Montserrat-Light.ufo
<glyph name="exclam" format="1">
  <advance width="203"/>
  <unicode hex="0021"/>
  <outline>
    <contour>
      <point x="73" y="688" type="line"/>
      <point x="73" y="519" type="line"/>
      <point x="84" y="211" type="line"/>
      <point x="136" y="211" type="line"/>
      <point x="148" y="519" type="line"/>
      <point x="148" y="688" type="line"/>
    </contour>
    <component base="period" xOffset="10.718"/>
  </outline>
</glyph>
<glyph name="numbersign" format="1">
  <advance width="718"/>
  <unicode hex="0023"/>
  <outline>
    <contour>
      <point x="475" y="0" type="line"/>
      <point x="562" y="700" type="line"/>
      <point x="502" y="700" type="line"/>
      <point x="416" y="0" type="line"/>
    </contour>
    <contour>
      <point x="649" y="248" type="line"/>
      <point x="40" y="248" type="line"/>
      <point x="35" y="185" type="line"/>
      <point x="645" y="185" type="line"/>
    </contour>
    <contour>
      <point x="214" y="0" type="line"/>
      <point x="301" y="700" type="line"/>
      <point x="241" y="700" type="line"/>
      <point x="155" y="0" type="line"/>
    </contour>
    <contour>
      <point x="681" y="509" type="line"/>
      <point x="71" y="509" type="line"/>
      <point x="67" y="446" type="line"/>
      <point x="677" y="446" type="line"/>
    </contour>
  </outline>
</glyph>
<glyph name="dollar" format="1">
  <advance width="610"/>
  <unicode hex="0024"/>
  <outline>
    <contour>
      <point x="277" y="447" type="line"/>
      <point x="277" y="-134" type="line"/>
      <point x="338" y="-134" type="line"/>
      <point x="338" y="447" type="line"/>
    </contour>
    <contour>
      <point x="277" y="823" type="line"/>
      <point x="277" y="167" type="line"/>
      <point x="338" y="167" type="line"/>
      <point x="338" y="823" type="line"/>
    </contour>
    <component base="S"/>
  </outline>
</glyph>
<glyph name="ampersand" format="1">
  <advance width="649"/>
  <unicode hex="0026"/>
  <outline>
    <contour>
      <point x="214" y="703"/>
      <point x="145" y="640"/>
      <point x="145" y="552" type="curve" smooth="yes"/>
      <point x="145" y="423"/>
      <point x="301" y="286"/>
      <point x="600" y="-13" type="curve"/>
      <point x="642" y="31" type="line"/>
      <point x="360" y="309"/>
      <point x="208" y="443"/>
      <point x="208" y="553" type="curve" smooth="yes"/>
      <point x="208" y="607"/>
      <point x="251" y="649"/>
      <point x="316" y="649" type="curve" smooth="yes"/>
      <point x="376" y="649"/>
      <point x="414" y="614"/>
      <point x="414" y="562" type="curve" smooth="yes"/>
      <point x="414" y="401"/>
      <point x="58" y="407"/>
      <point x="58" y="188" type="curve" smooth="yes"/>
      <point x="58" y="78"/>
      <point x="150" y="-4"/>
      <point x="266" y="-4" type="curve" smooth="yes"/>
      <point x="401" y="-4"/>
      <point x="522" y="109"/>
      <point x="600" y="290" type="curve"/>
      <point x="547" y="331" type="line"/>
      <point x="480" y="164"/>
      <point x="378" y="60"/>
      <point x="269" y="60" type="curve" smooth="yes"/>
      <point x="188" y="60"/>
      <point x="124" y="115"/>
      <point x="124" y="194" type="curve" smooth="yes"/>
      <point x="124" y="366"/>
      <point x="478" y="369"/>
      <point x="478" y="562" type="curve" smooth="yes"/>
      <point x="478" y="645"/>
      <point x="413" y="703"/>
      <point x="316" y="703" type="curve" smooth="yes"/>
    </contour>
  </outline>
</glyph>
<glyph name="parenleft" format="1">
  <advance width="303"/>
  <unicode hex="0028"/>
  <outline>
    <contour>
      <point x="206" y="742" type="line"/>
      <point x="129" y="629"/>
      <point x="87" y="476"/>
      <point x="87" y="309" type="curve" smooth="yes"/>
      <point x="87" y="142"/>
      <point x="129" y="-12"/>
      <point x="206" y="-124" type="curve"/>
      <point x="277" y="-124" type="line"/>
      <point x="204" y="-12"/>
      <point x="161" y="142"/>
      <point x="161" y="309" type="curve" smooth="yes"/>
      <point x="161" y="476"/>
      <point x="204" y="629"/>
      <point x="277" y="742" type="curve"/>
    </contour>
  </outline>
</glyph>
<glyph name="asterisk" format="1">
  <advance width="328"/>
  <unicode hex="002A"/>
  <outline>
    <contour>
      <point x="301" y="520" type="line"/>
      <point x="206" y="574" type="line"/>
      <point x="301" y="626" type="line"/>
      <point x="279" y="668" type="line"/>
      <point x="185" y="614" type="line"/>
      <point x="186" y="721" type="line"/>
      <point x="142" y="721" type="line"/>
      <point x="143" y="614" type="line"/>
      <point x="49" y="669" type="line"/>
      <point x="27" y="626" type="line"/>
      <point x="121" y="574" type="line"/>
      <point x="27" y="520" type="line"/>
      <point x="49" y="478" type="line"/>
      <point x="143" y="533" type="line"/>
      <point x="142" y="425" type="line"/>
      <point x="186" y="425" type="line"/>
      <point x="185" y="533" type="line"/>
      <point x="279" y="478" type="line"/>
    </contour>
  </outline>
</glyph>
<glyph name="plus" format="1">
  <advance width="491"/>
  <unicode hex="002B"/>
  <outline>
    <contour>
      <point x="37" y="352" type="line"/>
      <point x="37" y="294" type="line"/>
      <point x="454" y="294" type="line"/>
      <point x="454" y="352" type="line"/>
    </contour>
    <contour>
      <point x="219" y="533" type="line"/>
      <point x="219" y="113" type="line"/>
      <point x="273" y="113" type="line"/>
      <point x="273" y="533" type="line"/>
    </contour>
  </outline>
</glyph>
<glyph name="comma" format="1">
  <advance width="197"/>
  <unicode hex="002C"/>
  <outline>
    <contour>
      <point x="42" y="-72" type="line"/>
      <point x="86" y="-72" type="line"/>
      <point x="132" y="0" type="line" smooth="yes"/>
      <point x="141" y="14"/>
      <point x="147" y="27"/>
      <point x="147" y="43" type="curve" smooth="yes"/>
      <point x="147" y="75"/>
      <point x="125" y="94"/>
      <point x="100" y="94" type="curve" smooth="yes"/>
      <point x="73" y="94"/>
      <point x="52" y="73"/>
      <point x="52" y="44" type="curve" smooth="yes"/>
      <point x="52" y="17"/>
      <point x="69" y="-6"/>
      <point x="104" y="-7" type="curve"/>
      <point x="89" y="34" type="line"/>
    </contour>
  </outline>
</glyph>
<glyph name="hyphen" format="1">
  <advance width="363"/>
  <unicode hex="002D"/>
  <outline>
    <contour>
      <point x="64" y="332" type="line"/>
      <point x="64" y="274" type="line"/>
      <point x="299" y="274" type="line"/>
      <point x="299" y="332" type="line"/>
    </contour>
  </outline>
</glyph>
<glyph name="period" format="1">
  <advance width="199"/>
  <unicode hex="002E"/>
  <outline>
    <contour>
      <point x="72" y="96"/>
      <point x="51" y="74"/>
      <point x="51" y="44" type="curve" smooth="yes"/>
      <point x="51" y="14"/>
      <point x="72" y="-8"/>
      <point x="100" y="-8" type="curve" smooth="yes"/>
      <point x="127" y="-8"/>
      <point x="148" y="14"/>
      <point x="148" y="44" type="curve" smooth="yes"/>
      <point x="148" y="74"/>
      <point x="127" y="96"/>
      <point x="100" y="96" type="curve" smooth="yes"/>
    </contour>
  </outline>
</glyph>
<glyph name="slash" format="1">
  <advance width="317"/>
  <unicode hex="002F"/>
  <outline>
    <contour>
      <point x="301" y="820" type="line"/>
      <point x="-12" y="-122" type="line"/>
      <point x="57" y="-122" type="line"/>
      <point x="369" y="820" type="line"/>
    </contour>
  </outline>
</glyph>
<glyph name="zero" format="1">
  <advance width="684"/>
  <unicode hex="0030"/>
  <outline>
    <contour>
      <point x="156" y="702"/>
      <point x="53" y="576"/>
      <point x="53" y="350" type="curve" smooth="yes"/>
      <point x="53" y="124"/>
      <point x="156" y="-2"/>
      <point x="342" y="-2" type="curve" smooth="yes"/>
      <point x="528" y="-2"/>
      <point x="631" y="124"/>
      <point x="631" y="350" type="curve" smooth="yes"/>
      <point x="631" y="576"/>
      <point x="528" y="702"/>
      <point x="342" y="702" type="curve" smooth="yes"/>
    </contour>
    <contour>
      <point x="477" y="634"/>
      <point x="549" y="540"/>
      <point x="549" y="350" type="curve" smooth="yes"/>
      <point x="549" y="161"/>
      <point x="477" y="66"/>
      <point x="341" y="66" type="curve" smooth="yes"/>
      <point x="205" y="66"/>
      <point x="134" y="161"/>
      <point x="134" y="350" type="curve" smooth="yes"/>
      <point x="134" y="540"/>
      <point x="205" y="634"/>
      <point x="341" y="634" type="curve" smooth="yes"/>
    </contour>
  </outline>
</glyph>
<glyph name="one" format="1">
  <advance width="371"/>
  <unicode hex="0031"/>
  <outline>
    <contour>
      <point x="16" y="700" type="line"/>
      <point x="16" y="624" type="line"/>
      <point x="158" y="624" type="line"/>
      <point x="158" y="0" type="line"/>
      <point x="238" y="0" type="line"/>
      <point x="238" y="700" type="line"/>
    </contour>
  </outline>
</glyph>
<glyph name="two" format="1">
  <advance width="581"/>
  <unicode hex="0032"/>
  <outline>
    <contour>
      <point x="192" y="703"/>
      <point x="108" y="667"/>
      <point x="40" y="606" type="curve"/>
      <point x="74" y="542" type="line"/>
      <point x="130" y="596"/>
      <point x="202" y="629"/>
      <point x="266" y="629" type="curve"/>
      <point x="353" y="629"/>
      <point x="406" y="588"/>
      <point x="406" y="520" type="curve"/>
      <point x="406" y="475"/>
      <point x="368" y="410"/>
      <point x="310" y="351" type="curve" smooth="yes"/>
      <point x="47" y="66" type="line"/>
      <point x="47" y="0" type="line"/>
      <point x="529" y="0" type="line"/>
      <point x="529" y="76" type="line"/>
      <point x="150" y="76" type="line"/>
      <point x="364" y="304" type="line" smooth="yes"/>
      <point x="439" y="383"/>
      <point x="489" y="464"/>
      <point x="489" y="531" type="curve"/>
      <point x="489" y="636"/>
      <point x="404" y="703"/>
      <point x="276" y="703" type="curve"/>
    </contour>
  </outline>
</glyph>
<glyph name="three" format="1">
  <advance width="527"/>
  <unicode hex="0033"/>
  <outline>
    <contour>
      <point x="224" y="404" type="line"/>
      <point x="441" y="645" type="line"/>
      <point x="441" y="699" type="line"/>
      <point x="38" y="699" type="line"/>
      <point x="38" y="623" type="line"/>
      <point x="341" y="623" type="line"/>
      <point x="135" y="396" type="line"/>
      <point x="135" y="345" type="line"/>
      <point x="221" y="345" type="line" smooth="yes"/>
      <point x="330" y="345"/>
      <point x="395" y="300"/>
      <point x="395" y="212" type="curve" smooth="yes"/>
      <point x="396" y="127"/>
      <point x="332" y="68"/>
      <point x="223" y="68" type="curve" smooth="yes"/>
      <point x="158" y="68"/>
      <point x="92" y="93"/>
      <point x="42" y="134" type="curve"/>
      <point x="7" y="67" type="line"/>
      <point x="64" y="25"/>
      <point x="148" y="-4"/>
      <point x="228" y="-4" type="curve" smooth="yes"/>
      <point x="379" y="-4"/>
      <point x="474" y="86"/>
      <point x="474" y="215" type="curve" smooth="yes"/>
      <point x="474" y="327"/>
      <point x="389" y="395"/>
      <point x="263" y="401" type="curve" smooth="yes"/>
    </contour>
  </outline>
</glyph>
<glyph name="four" format="1">
  <advance width="577"/>
  <unicode hex="0034"/>
  <outline>
    <contour>
      <point x="281" y="700" type="line"/>
      <point x="31" y="250" type="line"/>
      <point x="31" y="184" type="line"/>
      <point x="367" y="184" type="line"/>
      <point x="367" y="0" type="line"/>
      <point x="442" y="0" type="line"/>
      <point x="442" y="184" type="line"/>
      <point x="547" y="184" type="line"/>
      <point x="548" y="261" type="line"/>
      <point x="442" y="261" type="line"/>
      <point x="442" y="446" type="line"/>
      <point x="367" y="446" type="line"/>
      <point x="367" y="261" type="line"/>
      <point x="116" y="261" type="line"/>
      <point x="360" y="700" type="line"/>
    </contour>
  </outline>
</glyph>
<glyph name="five" format="1">
  <advance width="565"/>
  <unicode hex="0035"/>
  <outline>
    <contour>
      <point x="83" y="700" type="line"/>
      <point x="82" y="342" type="line"/>
      <point x="132" y="352"/>
      <point x="217" y="359"/>
      <point x="262" y="359" type="curve"/>
      <point x="366" y="359"/>
      <point x="431" y="307"/>
      <point x="431" y="224" type="curve"/>
      <point x="431" y="130"/>
      <point x="366" y="72"/>
      <point x="261" y="72" type="curve"/>
      <point x="198" y="72"/>
      <point x="124" y="98"/>
      <point x="66" y="142" type="curve"/>
      <point x="33" y="74" type="line"/>
      <point x="99" y="28"/>
      <point x="191" y="-2"/>
      <point x="269" y="-2" type="curve"/>
      <point x="419" y="-2"/>
      <point x="516" y="89"/>
      <point x="516" y="229" type="curve"/>
      <point x="516" y="349"/>
      <point x="421" y="436"/>
      <point x="275" y="436" type="curve"/>
      <point x="243" y="436"/>
      <point x="193" y="432"/>
      <point x="157" y="426" type="curve"/>
      <point x="157" y="623" type="line"/>
      <point x="488" y="623" type="line"/>
      <point x="488" y="700" type="line"/>
    </contour>
  </outline>
</glyph>
<glyph name="seven" format="1">
  <advance width="554"/>
  <unicode hex="0037"/>
  <outline>
    <contour>
      <point x="39" y="700" type="line"/>
      <point x="39" y="521" type="line"/>
      <point x="111" y="521" type="line"/>
      <point x="111" y="623" type="line"/>
      <point x="437" y="623" type="line"/>
      <point x="149" y="0" type="line"/>
      <point x="234" y="0" type="line"/>
      <point x="525" y="633" type="line"/>
      <point x="525" y="700" type="line"/>
    </contour>
  </outline>
</glyph>
<glyph name="eight" format="1">
  <advance width="617"/>
  <unicode hex="0038"/>
  <outline>
    <contour>
      <point x="170" y="703"/>
      <point x="84" y="638"/>
      <point x="84" y="529" type="curve" smooth="yes"/>
      <point x="84" y="457"/>
      <point x="128" y="403"/>
      <point x="201" y="374" type="curve"/>
      <point x="108" y="347"/>
      <point x="50" y="283"/>
      <point x="50" y="194" type="curve" smooth="yes"/>
      <point x="50" y="71"/>
      <point x="149" y="-4"/>
      <point x="308" y="-4" type="curve" smooth="yes"/>
      <point x="467" y="-4"/>
      <point x="566" y="71"/>
      <point x="566" y="196" type="curve" smooth="yes"/>
      <point x="566" y="284"/>
      <point x="510" y="347"/>
      <point x="419" y="374" type="curve"/>
      <point x="490" y="402"/>
      <point x="533" y="455"/>
      <point x="533" y="527" type="curve" smooth="yes"/>
      <point x="533" y="637"/>
      <point x="447" y="703"/>
      <point x="308" y="703" type="curve" smooth="yes"/>
    </contour>
    <contour>
      <point x="423" y="336"/>
      <point x="490" y="286"/>
      <point x="490" y="203" type="curve" smooth="yes"/>
      <point x="490" y="115"/>
      <point x="422" y="64"/>
      <point x="308" y="64" type="curve" smooth="yes"/>
      <point x="193" y="64"/>
      <point x="126" y="115"/>
      <point x="126" y="203" type="curve" smooth="yes"/>
      <point x="126" y="286"/>
      <point x="194" y="336"/>
      <point x="308" y="336" type="curve" smooth="yes"/>
    </contour>
    <contour>
      <point x="406" y="641"/>
      <point x="464" y="597"/>
      <point x="464" y="522" type="curve" smooth="yes"/>
      <point x="464" y="447"/>
      <point x="406" y="403"/>
      <point x="309" y="403" type="curve" smooth="yes"/>
      <point x="211" y="403"/>
      <point x="153" y="447"/>
      <point x="153" y="522" type="curve" smooth="yes"/>
      <point x="153" y="597"/>
      <point x="211" y="641"/>
      <point x="309" y="641" type="curve" smooth="yes"/>
    </contour>
  </outline>
</glyph>
<glyph name="less" format="1">
  <advance width="491"/>
  <unicode hex="003C"/>
  <outline>
    <contour>
      <point x="37" y="364" type="line"/>
      <point x="37" y="289" type="line"/>
      <point x="454" y="103" type="line"/>
      <point x="454" y="168" type="line"/>
      <point x="91" y="326" type="line"/>
      <point x="454" y="484" type="line"/>
      <point x="454" y="550" type="line"/>
    </contour>
  </outline>
</glyph>
<glyph name="equal" format="1">
  <advance width="491"/>
  <unicode hex="003D"/>
  <outline>
    <contour>
      <point x="37" y="456" type="line"/>
      <point x="37" y="397" type="line"/>
      <point x="454" y="397" type="line"/>
      <point x="454" y="456" type="line"/>
    </contour>
    <contour>
      <point x="37" y="249" type="line"/>
      <point x="37" y="190" type="line"/>
      <point x="454" y="190" type="line"/>
      <point x="454" y="249" type="line"/>
    </contour>
  </outline>
</glyph>
<glyph name="question" format="1">
  <advance width="424"/>
  <unicode hex="003F"/>
  <outline>
    <contour>
      <point x="69" y="508" type="line"/>
      <point x="73" y="582"/>
      <point x="120" y="619"/>
      <point x="194" y="619" type="curve" smooth="yes"/>
      <point x="266" y="619"/>
      <point x="317" y="586"/>
      <point x="317" y="517" type="curve" smooth="yes"/>
      <point x="317" y="381"/>
      <point x="168" y="386"/>
      <point x="168" y="220" type="curve"/>
      <point x="230" y="220" type="line"/>
      <point x="230" y="366"/>
      <point x="390" y="365"/>
      <point x="390" y="528" type="curve" smooth="yes"/>
      <point x="390" y="635"/>
      <point x="311" y="689"/>
      <point x="201" y="689" type="curve" smooth="yes"/>
      <point x="86" y="689"/>
      <point x="11" y="625"/>
      <point x="6" y="510" type="curve"/>
    </contour>
    <component base="period" xOffset="98"/>
  </outline>
</glyph>
<glyph name="at" format="1">
  <advance width="986"/>
  <unicode hex="0040"/>
  <outline>
    <contour>
      <point x="238" y="708"/>
      <point x="40" y="518"/>
      <point x="40" y="266" type="curve" smooth="yes"/>
      <point x="40" y="20"/>
      <point x="230" y="-161"/>
      <point x="485" y="-161" type="curve" smooth="yes"/>
      <point x="554" y="-161"/>
      <point x="645" y="-137"/>
      <point x="701" y="-99" type="curve"/>
      <point x="673" y="-43" type="line"/>
      <point x="620" y="-79"/>
      <point x="543" y="-98"/>
      <point x="485" y="-98" type="curve" smooth="yes"/>
      <point x="265" y="-98"/>
      <point x="100" y="55"/>
      <point x="100" y="266" type="curve" smooth="yes"/>
      <point x="100" y="481"/>
      <point x="273" y="646"/>
      <point x="498" y="646" type="curve" smooth="yes"/>
      <point x="730" y="646"/>
      <point x="886" y="483"/>
      <point x="886" y="266" type="curve" smooth="yes"/>
      <point x="886" y="147"/>
      <point x="838" y="66"/>
      <point x="778" y="66" type="curve" smooth="yes"/>
      <point x="746" y="66"/>
      <point x="721" y="88"/>
      <point x="721" y="132" type="curve" smooth="yes"/>
      <point x="721" y="506" type="line"/>
      <point x="647" y="506" type="line"/>
      <point x="647" y="414" type="line"/>
      <point x="626" y="458"/>
      <point x="556" y="514"/>
      <point x="460" y="514" type="curve" smooth="yes"/>
      <point x="322" y="514"/>
      <point x="227" y="406"/>
      <point x="227" y="268" type="curve" smooth="yes"/>
      <point x="227" y="125"/>
      <point x="335" y="26"/>
      <point x="467" y="26" type="curve" smooth="yes"/>
      <point x="551" y="26"/>
      <point x="623" y="65"/>
      <point x="662" y="135" type="curve"/>
      <point x="664" y="102" type="line"/>
      <point x="670" y="42"/>
      <point x="713" y="11"/>
      <point x="771" y="11" type="curve" smooth="yes"/>
      <point x="875" y="11"/>
      <point x="946" y="112"/>
      <point x="946" y="268" type="curve" smooth="yes"/>
      <point x="946" y="523"/>
      <point x="756" y="708"/>
      <point x="498" y="708" type="curve" smooth="yes"/>
    </contour>
    <contour>
      <point x="573" y="439"/>
      <point x="642" y="366"/>
      <point x="642" y="271" type="curve" smooth="yes"/>
      <point x="642" y="174"/>
      <point x="574" y="99"/>
      <point x="474" y="99" type="curve" smooth="yes"/>
      <point x="375" y="99"/>
      <point x="306" y="175"/>
      <point x="306" y="272" type="curve" smooth="yes"/>
      <point x="306" y="366"/>
      <point x="375" y="439"/>
      <point x="472" y="439" type="curve" smooth="yes"/>
    </contour>
  </outline>
</glyph>
<glyph name="A" format="1">
  <advance width="718"/>
  <unicode hex="0041"/>
  <outline>
    <contour>
      <point x="317" y="700" type="line"/>
      <point x="4" y="0" type="line"/>
      <point x="88" y="0" type="line"/>
      <point x="357" y="609" type="line"/>
      <point x="627" y="0" type="line"/>
      <point x="713" y="0" type="line"/>
      <point x="400" y="700" type="line"/>
    </contour>
    <contour>
      <point x="144" y="254" type="line"/>
      <point x="144" y="177" type="line"/>
      <point x="569" y="177" type="line"/>
      <point x="569" y="254" type="line"/>
    </contour>
    <contour>
      <point x="754" y="10" type="move" name="ogonek"/>
    </contour>
    <contour>
      <point x="359" y="700" type="move" name="top"/>
    </contour>
  </outline>
</glyph>
<glyph name="B" format="1">
  <advance width="716"/>
  <unicode hex="0042"/>
  <outline>
    <contour>
      <point x="106" y="700" type="line"/>
      <point x="106" y="0" type="line"/>
      <point x="406" y="0" type="line" smooth="yes"/>
      <point x="564" y="0"/>
      <point x="658" y="71"/>
      <point x="658" y="190" type="curve" smooth="yes"/>
      <point x="658" y="286"/>
      <point x="599" y="352"/>
      <point x="498" y="367" type="curve"/>
      <point x="580" y="384"/>
      <point x="627" y="443"/>
      <point x="627" y="525" type="curve" smooth="yes"/>
      <point x="627" y="635"/>
      <point x="542" y="700"/>
      <point x="401" y="700" type="curve" smooth="yes"/>
    </contour>
    <contour>
      <point x="511" y="322"/>
      <point x="577" y="277"/>
      <point x="577" y="201" type="curve" smooth="yes"/>
      <point x="577" y="121"/>
      <point x="511" y="76"/>
      <point x="398" y="76" type="curve" smooth="yes"/>
      <point x="186" y="76" type="line"/>
      <point x="186" y="322" type="line"/>
      <point x="398" y="322" type="line" smooth="yes"/>
    </contour>
    <contour>
      <point x="491" y="623"/>
      <point x="546" y="583"/>
      <point x="546" y="512" type="curve" smooth="yes"/>
      <point x="546" y="439"/>
      <point x="491" y="398"/>
      <point x="398" y="398" type="curve" smooth="yes"/>
      <point x="186" y="398" type="line"/>
      <point x="186" y="623" type="line"/>
      <point x="398" y="623" type="line" smooth="yes"/>
    </contour>
  </outline>
</glyph>
<glyph name="C" format="1">
  <advance width="700"/>
  <unicode hex="0043"/>
  <outline>
    <contour>
      <point x="201" y="702"/>
      <point x="40" y="547"/>
      <point x="40" y="351" type="curve" smooth="yes"/>
      <point x="40" y="153"/>
      <point x="200" y="-4"/>
      <point x="402" y="-4" type="curve" smooth="yes"/>
      <point x="498" y="-4"/>
      <point x="593" y="39"/>
      <point x="661" y="104" type="curve"/>
      <point x="613" y="159" type="line"/>
      <point x="557" y="107"/>
      <point x="482" y="75"/>
      <point x="406" y="75" type="curve" smooth="yes"/>
      <point x="247" y="75"/>
      <point x="121" y="198"/>
      <point x="121" y="351" type="curve" smooth="yes"/>
      <point x="121" y="505"/>
      <point x="247" y="627"/>
      <point x="406" y="627" type="curve" smooth="yes"/>
      <point x="483" y="627"/>
      <point x="559" y="594"/>
      <point x="613" y="539" type="curve"/>
      <point x="660" y="600" type="line"/>
      <point x="594" y="663"/>
      <point x="501" y="702"/>
      <point x="405" y="702" type="curve" smooth="yes"/>
    </contour>
    <contour>
      <point x="365" y="700" type="move" name="top"/>
    </contour>
    <contour>
      <point x="388" y="0" type="move" name="bottom"/>
    </contour>
  </outline>
</glyph>
<glyph name="D" format="1">
  <advance width="789"/>
  <unicode hex="0044"/>
  <outline>
    <contour>
      <point x="106" y="700" type="line"/>
      <point x="106" y="0" type="line"/>
      <point x="386" y="0" type="line" smooth="yes"/>
      <point x="592" y="0"/>
      <point x="749" y="151"/>
      <point x="749" y="350" type="curve" smooth="yes"/>
      <point x="749" y="549"/>
      <point x="593" y="700"/>
      <point x="389" y="700" type="curve" smooth="yes"/>
    </contour>
    <contour>
      <point x="544" y="623"/>
      <point x="668" y="506"/>
      <point x="668" y="349" type="curve" smooth="yes"/>
      <point x="668" y="193"/>
      <point x="546" y="76"/>
      <point x="391" y="76" type="curve" smooth="yes"/>
      <point x="186" y="76" type="line"/>
      <point x="186" y="623" type="line"/>
      <point x="388" y="623" type="line" smooth="yes"/>
    </contour>
    <contour>
      <point x="393" y="350" type="move" name="center"/>
    </contour>
    <contour>
      <point x="373" y="700" type="move" name="top"/>
    </contour>
  </outline>
</glyph>
<glyph name="E" format="1">
  <advance width="651"/>
  <unicode hex="0045"/>
  <outline>
    <contour>
      <point x="106" y="700" type="line"/>
      <point x="106" y="0" type="line"/>
      <point x="594" y="0" type="line"/>
      <point x="594" y="76" type="line"/>
      <point x="186" y="76" type="line"/>
      <point x="186" y="316" type="line"/>
      <point x="539" y="316" type="line"/>
      <point x="539" y="393" type="line"/>
      <point x="186" y="393" type="line"/>
      <point x="186" y="623" type="line"/>
      <point x="581" y="623" type="line"/>
      <point x="581" y="700" type="line"/>
    </contour>
    <contour>
      <point x="592" y="10" type="move" name="ogonek"/>
    </contour>
    <contour>
      <point x="328" y="0" type="move" name="bottom"/>
    </contour>
    <contour>
      <point x="347" y="700" type="move" name="top"/>
    </contour>
  </outline>
</glyph>
<glyph name="F" format="1">
  <advance width="563"/>
  <unicode hex="0046"/>
  <outline>
    <contour>
      <point x="106" y="700" type="line"/>
      <point x="106" y="0" type="line"/>
      <point x="186" y="0" type="line"/>
      <point x="186" y="300" type="line"/>
      <point x="513" y="300" type="line"/>
      <point x="513" y="377" type="line"/>
      <point x="186" y="377" type="line"/>
      <point x="186" y="623" type="line"/>
      <point x="551" y="623" type="line"/>
      <point x="551" y="700" type="line"/>
    </contour>
  </outline>
</glyph>
<glyph name="G" format="1">
  <advance width="753"/>
  <unicode hex="0047"/>
  <outline>
    <contour>
      <point x="203" y="702"/>
      <point x="40" y="547"/>
      <point x="40" y="350" type="curve" smooth="yes"/>
      <point x="40" y="153"/>
      <point x="201" y="-4"/>
      <point x="405" y="-4" type="curve" smooth="yes"/>
      <point x="499" y="-4"/>
      <point x="596" y="33"/>
      <point x="664" y="88" type="curve"/>
      <point x="617" y="149" type="line"/>
      <point x="560" y="101"/>
      <point x="483" y="72"/>
      <point x="409" y="72" type="curve" smooth="yes"/>
      <point x="249" y="72"/>
      <point x="121" y="195"/>
      <point x="121" y="350" type="curve" smooth="yes"/>
      <point x="121" y="504"/>
      <point x="249" y="627"/>
      <point x="409" y="627" type="curve" smooth="yes"/>
      <point x="487" y="627"/>
      <point x="564" y="597"/>
      <point x="621" y="546" type="curve"/>
      <point x="667" y="606" type="line"/>
      <point x="599" y="665"/>
      <point x="506" y="702"/>
      <point x="409" y="702" type="curve" smooth="yes"/>
    </contour>
    <contour>
      <point x="594" y="342" type="line"/>
      <point x="594" y="88" type="line"/>
      <point x="665" y="88" type="line"/>
      <point x="665" y="342" type="line"/>
    </contour>
    <contour>
      <point x="384" y="700" type="move" name="top"/>
    </contour>
    <contour>
      <point x="384" y="0" type="move" name="bottom"/>
    </contour>
  </outline>
</glyph>
<glyph name="H" format="1">
  <advance width="794"/>
  <unicode hex="0048"/>
  <outline>
    <contour>
      <point x="608" y="700" type="line"/>
      <point x="608" y="384" type="line"/>
      <point x="186" y="384" type="line"/>
      <point x="186" y="700" type="line"/>
      <point x="106" y="700" type="line"/>
      <point x="106" y="0" type="line"/>
      <point x="186" y="0" type="line"/>
      <point x="186" y="308" type="line"/>
      <point x="608" y="308" type="line"/>
      <point x="608" y="0" type="line"/>
      <point x="688" y="0" type="line"/>
      <point x="688" y="700" type="line"/>
    </contour>
    <contour>
      <point x="397" y="350" type="move" name="center"/>
    </contour>
    <contour>
      <point x="400" y="700" type="move" name="top"/>
    </contour>
  </outline>
</glyph>
<glyph name="J" format="1">
  <advance width="483"/>
  <unicode hex="004A"/>
  <outline>
    <contour>
      <point x="63" y="700" type="line"/>
      <point x="63" y="623" type="line"/>
      <point x="313" y="623" type="line"/>
      <point x="313" y="212" type="line"/>
      <point x="313" y="125"/>
      <point x="269" y="79"/>
      <point x="193" y="79" type="curve"/>
      <point x="139" y="79"/>
      <point x="84" y="107"/>
      <point x="40" y="160" type="curve"/>
      <point x="-0" y="96" type="line"/>
      <point x="49" y="33"/>
      <point x="116" y="-4"/>
      <point x="193" y="-4" type="curve"/>
      <point x="319" y="-4"/>
      <point x="394" y="74"/>
      <point x="394" y="210" type="curve"/>
      <point x="394" y="700" type="line"/>
    </contour>
    <contour>
      <point x="225" y="700" type="move" name="top"/>
    </contour>
  </outline>
</glyph>
<glyph name="K" format="1">
  <advance width="699"/>
  <unicode hex="004B"/>
  <outline>
    <contour>
      <point x="562" y="700" type="line"/>
      <point x="186" y="297" type="line"/>
      <point x="186" y="700" type="line"/>
      <point x="106" y="700" type="line"/>
      <point x="106" y="0" type="line"/>
      <point x="186" y="0" type="line"/>
      <point x="186" y="183" type="line"/>
      <point x="657" y="700" type="line"/>
    </contour>
    <contour>
      <point x="316" y="339" type="line"/>
      <point x="580" y="0" type="line"/>
      <point x="677" y="0" type="line"/>
      <point x="368" y="410" type="line"/>
    </contour>
    <contour>
      <point x="346" y="700" type="move" name="top"/>
    </contour>
    <contour>
      <point x="346" y="0" type="move" name="bottom"/>
    </contour>
  </outline>
</glyph>
<glyph name="L" format="1">
  <advance width="517"/>
  <unicode hex="004C"/>
  <outline>
    <contour>
      <point x="106" y="700" type="line"/>
      <point x="106" y="0" type="line"/>
      <point x="493" y="0" type="line"/>
      <point x="493" y="76" type="line"/>
      <point x="186" y="76" type="line"/>
      <point x="186" y="700" type="line"/>
    </contour>
    <contour>
      <point x="151" y="700" type="move" name="top"/>
    </contour>
    <contour>
      <point x="289" y="0" type="move" name="bottom"/>
    </contour>
  </outline>
</glyph>
<glyph name="M" format="1">
  <advance width="921"/>
  <unicode hex="004D"/>
  <outline>
    <contour>
      <point x="716" y="700" type="line"/>
      <point x="461" y="196" type="line" smooth="yes"/>
      <point x="205" y="700" type="line"/>
      <point x="106" y="700" type="line"/>
      <point x="106" y="0" type="line"/>
      <point x="182" y="0" type="line"/>
      <point x="182" y="577" type="line"/>
      <point x="436" y="74" type="line"/>
      <point x="484" y="74" type="line"/>
      <point x="739" y="577" type="line"/>
      <point x="740" y="0" type="line"/>
      <point x="814" y="0" type="line"/>
      <point x="814" y="700" type="line"/>
    </contour>
  </outline>
</glyph>
<glyph name="N" format="1">
  <advance width="795"/>
  <unicode hex="004E"/>
  <outline>
    <contour>
      <point x="609" y="700" type="line"/>
      <point x="609" y="137" type="line"/>
      <point x="189" y="700" type="line"/>
      <point x="106" y="700" type="line"/>
      <point x="106" y="0" type="line"/>
      <point x="186" y="0" type="line"/>
      <point x="186" y="562" type="line"/>
      <point x="606" y="0" type="line"/>
      <point x="688" y="0" type="line"/>
      <point x="688" y="700" type="line"/>
    </contour>
    <contour>
      <point x="398" y="700" type="move" name="top"/>
    </contour>
    <contour>
      <point x="398" y="0" type="move" name="bottom"/>
    </contour>
  </outline>
</glyph>
<glyph name="O" format="1">
  <advance width="813"/>
  <unicode hex="004F"/>
  <outline>
    <contour>
      <point x="202" y="702"/>
      <point x="40" y="548"/>
      <point x="40" y="350" type="curve" smooth="yes"/>
      <point x="40" y="153"/>
      <point x="202" y="-4"/>
      <point x="406" y="-4" type="curve" smooth="yes"/>
      <point x="611" y="-4"/>
      <point x="773" y="153"/>
      <point x="773" y="350" type="curve" smooth="yes"/>
      <point x="773" y="547"/>
      <point x="611" y="702"/>
      <point x="406" y="702" type="curve" smooth="yes"/>
    </contour>
    <contour>
      <point x="563" y="626"/>
      <point x="691" y="504"/>
      <point x="691" y="350" type="curve" smooth="yes"/>
      <point x="691" y="196"/>
      <point x="563" y="73"/>
      <point x="407" y="73" type="curve" smooth="yes"/>
      <point x="251" y="73"/>
      <point x="121" y="196"/>
      <point x="121" y="350" type="curve" smooth="yes"/>
      <point x="121" y="504"/>
      <point x="250" y="626"/>
      <point x="407" y="626" type="curve" smooth="yes"/>
    </contour>
    <contour>
      <point x="404" y="700" type="move" name="top"/>
    </contour>
  </outline>
</glyph>
<glyph name="P" format="1">
  <advance width="669"/>
  <unicode hex="0050"/>
  <outline>
    <contour>
      <point x="106" y="700" type="line"/>
      <point x="106" y="0" type="line"/>
      <point x="186" y="0" type="line"/>
      <point x="186" y="221" type="line"/>
      <point x="369" y="221" type="line" smooth="yes"/>
      <point x="542" y="221"/>
      <point x="642" y="310"/>
      <point x="642" y="465" type="curve" smooth="yes"/>
      <point x="642" y="614"/>
      <point x="542" y="700"/>
      <point x="369" y="700" type="curve" smooth="yes"/>
    </contour>
    <contour>
      <point x="493" y="623"/>
      <point x="566" y="569"/>
      <point x="566" y="463" type="curve" smooth="yes"/>
      <point x="566" y="354"/>
      <point x="493" y="298"/>
      <point x="366" y="298" type="curve" smooth="yes"/>
      <point x="186" y="298" type="line"/>
      <point x="186" y="623" type="line"/>
      <point x="366" y="623" type="line" smooth="yes"/>
    </contour>
  </outline>
</glyph>
<glyph name="Q" format="1">
  <advance width="830"/>
  <unicode hex="0051"/>
  <outline>
    <contour>
      <point x="412" y="1" type="line"/>
      <point x="477" y="-92"/>
      <point x="553" y="-144"/>
      <point x="635" y="-144" type="curve" smooth="yes"/>
      <point x="696" y="-144"/>
      <point x="760" y="-117"/>
      <point x="814" y="-67" type="curve"/>
      <point x="779" y="-7" type="line"/>
      <point x="732" y="-47"/>
      <point x="685" y="-70"/>
      <point x="644" y="-70" type="curve" smooth="yes"/>
      <point x="590" y="-70"/>
      <point x="537" y="-34"/>
      <point x="480" y="31" type="curve"/>
    </contour>
    <component base="O"/>
  </outline>
</glyph>
<glyph name="R" format="1">
  <advance width="723"/>
  <unicode hex="0052"/>
  <outline>
    <contour>
      <point x="106" y="700" type="line"/>
      <point x="106" y="0" type="line"/>
      <point x="186" y="0" type="line"/>
      <point x="186" y="221" type="line"/>
      <point x="372" y="221" type="line" smooth="yes"/>
      <point x="547" y="221"/>
      <point x="648" y="310"/>
      <point x="648" y="465" type="curve" smooth="yes"/>
      <point x="648" y="614"/>
      <point x="547" y="700"/>
      <point x="372" y="700" type="curve" smooth="yes"/>
    </contour>
    <contour>
      <point x="396" y="258" type="line"/>
      <point x="564" y="0" type="line"/>
      <point x="655" y="0" type="line"/>
      <point x="477" y="258" type="line"/>
    </contour>
    <contour>
      <point x="499" y="623"/>
      <point x="572" y="569"/>
      <point x="572" y="463" type="curve" smooth="yes"/>
      <point x="572" y="354"/>
      <point x="499" y="298"/>
      <point x="372" y="298" type="curve" smooth="yes"/>
      <point x="186" y="298" type="line"/>
      <point x="186" y="623" type="line"/>
      <point x="372" y="623" type="line" smooth="yes"/>
    </contour>
    <contour>
      <point x="350" y="700" type="move" name="top"/>
    </contour>
    <contour>
      <point x="360" y="0" type="move" name="bottom"/>
    </contour>
  </outline>
</glyph>
<glyph name="S" format="1">
  <advance width="611"/>
  <unicode hex="0053"/>
  <outline>
    <contour>
      <point x="169" y="703"/>
      <point x="72" y="632"/>
      <point x="72" y="522" type="curve"/>
      <point x="72" y="271"/>
      <point x="466" y="369"/>
      <point x="465" y="185" type="curve"/>
      <point x="465" y="118"/>
      <point x="402" y="77"/>
      <point x="301" y="77" type="curve"/>
      <point x="222" y="77"/>
      <point x="133" y="113"/>
      <point x="69" y="176" type="curve"/>
      <point x="32" y="104" type="line"/>
      <point x="99" y="41"/>
      <point x="198" y="-3"/>
      <point x="300" y="-3" type="curve"/>
      <point x="450" y="-3"/>
      <point x="553" y="72"/>
      <point x="553" y="189" type="curve"/>
      <point x="555" y="443"/>
      <point x="160" y="349"/>
      <point x="160" y="529" type="curve"/>
      <point x="160" y="588"/>
      <point x="219" y="622"/>
      <point x="309" y="622" type="curve"/>
      <point x="365" y="622"/>
      <point x="439" y="605"/>
      <point x="503" y="563" type="curve"/>
      <point x="536" y="638" type="line"/>
      <point x="478" y="677"/>
      <point x="395" y="703"/>
      <point x="314" y="703" type="curve"/>
    </contour>
    <contour>
      <point x="307" y="700" type="move" name="top"/>
    </contour>
    <contour>
      <point x="309" y="0" type="move" name="bottom"/>
    </contour>
  </outline>
</glyph>
<glyph name="T" format="1">
  <advance width="558"/>
  <unicode hex="0054"/>
  <outline>
    <contour>
      <point x="11" y="700" type="line"/>
      <point x="11" y="623" type="line"/>
      <point x="239" y="623" type="line"/>
      <point x="239" y="0" type="line"/>
      <point x="319" y="0" type="line"/>
      <point x="319" y="623" type="line"/>
      <point x="548" y="623" type="line"/>
      <point x="548" y="700" type="line"/>
    </contour>
    <contour>
      <point x="275" y="350" type="move" name="center"/>
    </contour>
    <contour>
      <point x="265" y="0" type="move" name="bottom"/>
    </contour>
    <contour>
      <point x="284" y="700" type="move" name="top"/>
    </contour>
  </outline>
</glyph>
<glyph name="U" format="1">
  <advance width="768"/>
  <unicode hex="0055"/>
  <outline>
    <contour>
      <point x="598" y="700" type="line"/>
      <point x="598" y="288" type="line"/>
      <point x="598" y="152"/>
      <point x="518" y="73"/>
      <point x="385" y="73" type="curve"/>
      <point x="251" y="73"/>
      <point x="170" y="152"/>
      <point x="170" y="288" type="curve"/>
      <point x="170" y="700" type="line"/>
      <point x="90" y="700" type="line"/>
      <point x="90" y="288" type="line"/>
      <point x="90" y="106"/>
      <point x="201" y="-4"/>
      <point x="384" y="-4" type="curve"/>
      <point x="568" y="-4"/>
      <point x="678" y="106"/>
      <point x="678" y="288" type="curve"/>
      <point x="678" y="700" type="line"/>
    </contour>
    <contour>
      <point x="537" y="10" type="move" name="ogonek"/>
    </contour>
    <contour>
      <point x="384" y="700" type="move" name="top"/>
    </contour>
  </outline>
</glyph>
<glyph name="V" format="1">
  <advance width="665"/>
  <unicode hex="0056"/>
  <outline>
    <contour>
      <point x="575" y="700" type="line"/>
      <point x="334" y="93" type="line"/>
      <point x="92" y="700" type="line"/>
      <point x="6" y="700" type="line"/>
      <point x="290" y="0" type="line"/>
      <point x="373" y="0" type="line"/>
      <point x="659" y="700" type="line"/>
    </contour>
  </outline>
</glyph>
<glyph name="W" format="1">
  <advance width="1017"/>
  <unicode hex="0057"/>
  <outline>
    <contour>
      <point x="936" y="700" type="line"/>
      <point x="746" y="93" type="line"/>
      <point x="554" y="700" type="line"/>
      <point x="474" y="699" type="line"/>
      <point x="284" y="93" type="line"/>
      <point x="92" y="700" type="line"/>
      <point x="6" y="700" type="line"/>
      <point x="240" y="0" type="line"/>
      <point x="323" y="0" type="line"/>
      <point x="513" y="590" type="line"/>
      <point x="702" y="0" type="line"/>
      <point x="785" y="0" type="line"/>
      <point x="1019" y="700" type="line"/>
    </contour>
    <contour>
      <point x="473" y="700" type="move" name="top"/>
    </contour>
  </outline>
</glyph>
<glyph name="X" format="1">
  <advance width="665"/>
  <unicode hex="0058"/>
  <outline>
    <contour>
      <point x="522" y="700" type="line"/>
      <point x="327" y="430" type="line"/>
      <point x="133" y="700" type="line"/>
      <point x="40" y="700" type="line"/>
      <point x="279" y="360" type="line"/>
      <point x="22" y="0" type="line"/>
      <point x="116" y="0" type="line"/>
      <point x="327" y="293" type="line"/>
      <point x="540" y="0" type="line"/>
      <point x="636" y="0" type="line"/>
      <point x="378" y="364" type="line"/>
      <point x="616" y="700" type="line"/>
    </contour>
  </outline>
</glyph>
<glyph name="Y" format="1">
  <advance width="625"/>
  <unicode hex="0059"/>
  <outline>
    <contour>
      <point x="537" y="700" type="line"/>
      <point x="314" y="335" type="line"/>
      <point x="86" y="700" type="line"/>
      <point x="4" y="700" type="line"/>
      <point x="307" y="181" type="line"/>
      <point x="320" y="181" type="line"/>
      <point x="620" y="700" type="line"/>
    </contour>
    <contour>
      <point x="275" y="290" type="line"/>
      <point x="275" y="0" type="line"/>
      <point x="355" y="0" type="line"/>
      <point x="355" y="290" type="line"/>
    </contour>
    <contour>
      <point x="312" y="700" type="move" name="top"/>
    </contour>
  </outline>
</glyph>
<glyph name="Z" format="1">
  <advance width="660"/>
  <unicode hex="005A"/>
  <outline>
    <contour>
      <point x="56" y="700" type="line"/>
      <point x="56" y="623" type="line"/>
      <point x="507" y="623" type="line"/>
      <point x="43" y="64" type="line"/>
      <point x="43" y="0" type="line"/>
      <point x="616" y="0" type="line"/>
      <point x="617" y="76" type="line"/>
      <point x="148" y="76" type="line"/>
      <point x="612" y="636" type="line"/>
      <point x="612" y="700" type="line"/>
    </contour>
    <contour>
      <point x="335" y="700" type="move" name="top"/>
    </contour>
  </outline>
</glyph>
<glyph name="bracketleft" format="1">
  <advance width="334"/>
  <unicode hex="005B"/>
  <outline>
    <contour>
      <point x="106" y="742" type="line"/>
      <point x="106" y="-124" type="line"/>
      <point x="303" y="-124" type="line"/>
      <point x="303" y="-57" type="line"/>
      <point x="177" y="-57" type="line"/>
      <point x="177" y="675" type="line"/>
      <point x="303" y="675" type="line"/>
      <point x="303" y="742" type="line"/>
    </contour>
  </outline>
</glyph>
<glyph name="underscore" format="1">
  <advance width="554"/>
  <unicode hex="005F"/>
  <outline>
    <contour>
      <point x="0" y="-152" type="line"/>
      <point x="0" y="-204" type="line"/>
      <point x="554" y="-204" type="line"/>
      <point x="554" y="-152" type="line"/>
    </contour>
  </outline>
</glyph>
<glyph name="grave" format="1">
  <advance width="350"/>
  <unicode hex="0060"/>
  <outline>
    <contour>
      <point x="71" y="713" type="line"/>
      <point x="196" y="614" type="line"/>
      <point x="270" y="614" type="line"/>
      <point x="151" y="750" type="line"/>
    </contour>
    <contour>
      <point x="221" y="527" type="move" name="_top"/>
    </contour>
  </outline>
</glyph>
<glyph name="a" format="1">
  <advance width="577"/>
  <unicode hex="0061"/>
  <outline>
    <contour>
      <point x="204" y="530"/>
      <point x="147" y="504"/>
      <point x="79" y="459" type="curve"/>
      <point x="112" y="402" type="line"/>
      <point x="167" y="440"/>
      <point x="221" y="462"/>
      <point x="279" y="462" type="curve"/>
      <point x="372" y="462"/>
      <point x="420" y="416"/>
      <point x="420" y="339" type="curve"/>
      <point x="422" y="0" type="line"/>
      <point x="498" y="0" type="line"/>
      <point x="497" y="348" type="line"/>
      <point x="496" y="461"/>
      <point x="424" y="530"/>
      <point x="294" y="530" type="curve"/>
    </contour>
    <contour>
      <point x="248" y="308" type="line"/>
      <point x="123" y="307"/>
      <point x="50" y="249"/>
      <point x="50" y="157" type="curve"/>
      <point x="50" y="66"/>
      <point x="120" y="-4"/>
      <point x="230" y="-4" type="curve"/>
      <point x="329" y="-4"/>
      <point x="406" y="35"/>
      <point x="442" y="116" type="curve"/>
      <point x="422" y="186" type="line"/>
      <point x="405" y="111"/>
      <point x="336" y="64"/>
      <point x="245" y="64" type="curve"/>
      <point x="170" y="64"/>
      <point x="124" y="102"/>
      <point x="124" y="160" type="curve"/>
      <point x="124" y="218"/>
      <point x="169" y="245"/>
      <point x="258" y="245" type="curve"/>
      <point x="434" y="245" type="line"/>
      <point x="434" y="308" type="line"/>
    </contour>
    <contour>
      <point x="530" y="10" type="move" name="ogonek"/>
    </contour>
    <contour>
      <point x="284" y="527" type="move" name="top"/>
    </contour>
  </outline>
</glyph>
<glyph name="c" format="1">
  <advance width="561"/>
  <unicode hex="0063"/>
  <outline>
    <contour>
      <point x="151" y="529"/>
      <point x="42" y="420"/>
      <point x="42" y="263" type="curve" smooth="yes"/>
      <point x="42" y="106"/>
      <point x="151" y="-3"/>
      <point x="303" y="-3" type="curve" smooth="yes"/>
      <point x="394" y="-3"/>
      <point x="467" y="31"/>
      <point x="514" y="88" type="curve"/>
      <point x="470" y="136" type="line"/>
      <point x="432" y="92"/>
      <point x="375" y="68"/>
      <point x="307" y="68" type="curve" smooth="yes"/>
      <point x="198" y="68"/>
      <point x="120" y="148"/>
      <point x="120" y="263" type="curve" smooth="yes"/>
      <point x="120" y="378"/>
      <point x="198" y="457"/>
      <point x="307" y="457" type="curve" smooth="yes"/>
      <point x="371" y="457"/>
      <point x="423" y="434"/>
      <point x="463" y="396" type="curve"/>
      <point x="506" y="451" type="line"/>
      <point x="459" y="501"/>
      <point x="389" y="530"/>
      <point x="304" y="529" type="curve" smooth="yes"/>
    </contour>
    <contour>
      <point x="284" y="527" type="move" name="top"/>
    </contour>
    <contour>
      <point x="289" y="0" type="move" name="bottom"/>
    </contour>
  </outline>
</glyph>
<glyph name="d" format="1">
  <advance width="679"/>
  <unicode hex="0064"/>
  <outline>
    <contour>
      <point x="421" y="264" type="move"/>
    </contour>
    <contour>
      <point x="147" y="531"/>
      <point x="42" y="422"/>
      <point x="42" y="264" type="curve" smooth="yes"/>
      <point x="42" y="107"/>
      <point x="146" y="-4"/>
      <point x="296" y="-4" type="curve" smooth="yes"/>
      <point x="442" y="-4"/>
      <point x="535" y="100"/>
      <point x="535" y="264" type="curve"/>
      <point x="535" y="427"/>
      <point x="442" y="531"/>
      <point x="295" y="531" type="curve" smooth="yes"/>
    </contour>
    <contour>
      <point x="422" y="460"/>
      <point x="501" y="377"/>
      <point x="501" y="262" type="curve" smooth="yes"/>
      <point x="501" y="148"/>
      <point x="422" y="66"/>
      <point x="311" y="66" type="curve" smooth="yes"/>
      <point x="199" y="66"/>
      <point x="121" y="148"/>
      <point x="120" y="262" type="curve" smooth="yes"/>
      <point x="121" y="377"/>
      <point x="200" y="460"/>
      <point x="311" y="460" type="curve" smooth="yes"/>
    </contour>
    <contour>
      <point x="501" y="742" type="line"/>
      <point x="501" y="0" type="line"/>
      <point x="579" y="0" type="line"/>
      <point x="579" y="742" type="line"/>
    </contour>
    <contour>
      <point x="-10" y="0" type="move" name="center"/>
    </contour>
  </outline>
</glyph>
<glyph name="e" format="1">
  <advance width="588"/>
  <unicode hex="0065"/>
  <outline>
    <contour>
      <point x="104" y="233" type="line"/>
      <point x="549" y="233" type="line"/>
      <point x="557" y="412"/>
      <point x="474" y="530"/>
      <point x="303" y="529" type="curve" smooth="yes"/>
      <point x="151" y="529"/>
      <point x="42" y="420"/>
      <point x="42" y="263" type="curve" smooth="yes"/>
      <point x="42" y="106"/>
      <point x="149" y="-3"/>
      <point x="305" y="-3" type="curve" smooth="yes"/>
      <point x="392" y="-3"/>
      <point x="466" y="29"/>
      <point x="516" y="85" type="curve"/>
      <point x="473" y="131" type="line"/>
      <point x="433" y="88"/>
      <point x="375" y="65"/>
      <point x="310" y="65" type="curve" smooth="yes"/>
      <point x="198" y="65"/>
      <point x="118" y="145"/>
      <point x="118" y="267" type="curve" smooth="yes"/>
      <point x="118" y="384"/>
      <point x="194" y="462"/>
      <point x="304" y="462" type="curve" smooth="yes"/>
      <point x="407" y="462"/>
      <point x="474" y="398"/>
      <point x="480" y="297" type="curve"/>
      <point x="104" y="297" type="line"/>
    </contour>
    <contour>
      <point x="521" y="10" type="move" name="ogonek"/>
    </contour>
    <contour>
      <point x="298" y="0" type="move" name="bottom"/>
    </contour>
    <contour>
      <point x="297" y="527" type="move" name="top"/>
    </contour>
  </outline>
</glyph>
<glyph name="f" format="1">
  <advance width="324"/>
  <unicode hex="0066"/>
  <outline>
    <contour>
      <point x="192" y="746"/>
      <point x="111" y="684"/>
      <point x="111" y="569" type="curve"/>
      <point x="111" y="0" type="line"/>
      <point x="188" y="0" type="line"/>
      <point x="188" y="579" type="line"/>
      <point x="188" y="640"/>
      <point x="230" y="673"/>
      <point x="281" y="673" type="curve"/>
      <point x="309" y="673"/>
      <point x="338" y="663"/>
      <point x="361" y="646" type="curve"/>
      <point x="393" y="709" type="line"/>
      <point x="361" y="733"/>
      <point x="320" y="745"/>
      <point x="280" y="746" type="curve"/>
    </contour>
    <contour>
      <point x="43" y="511" type="line"/>
      <point x="43" y="447" type="line"/>
      <point x="339" y="447" type="line"/>
      <point x="339" y="511" type="line"/>
    </contour>
  </outline>
</glyph>
<glyph name="g" format="1">
  <advance width="636"/>
  <unicode hex="0067"/>
  <outline>
    <contour>
      <point x="476" y="527" type="line"/>
      <point x="476" y="53" type="line"/>
      <point x="476" y="-57"/>
      <point x="401" y="-127"/>
      <point x="286" y="-127" type="curve" smooth="yes"/>
      <point x="216" y="-126"/>
      <point x="160" y="-103"/>
      <point x="108" y="-60" type="curve"/>
      <point x="73" y="-120" type="line"/>
      <point x="136" y="-168"/>
      <point x="206" y="-195"/>
      <point x="289" y="-196" type="curve" smooth="yes"/>
      <point x="449" y="-196"/>
      <point x="553" y="-99"/>
      <point x="553" y="55" type="curve"/>
      <point x="553" y="527" type="line"/>
    </contour>
    <contour>
      <point x="140" y="529"/>
      <point x="42" y="425"/>
      <point x="42" y="278" type="curve" smooth="yes"/>
      <point x="42" y="128"/>
      <point x="140" y="23"/>
      <point x="282" y="23" type="curve" smooth="yes"/>
      <point x="421" y="23"/>
      <point x="509" y="122"/>
      <point x="509" y="277" type="curve"/>
      <point x="509" y="432"/>
      <point x="420" y="530"/>
      <point x="280" y="530" type="curve" smooth="yes"/>
    </contour>
    <contour>
      <point x="401" y="462"/>
      <point x="476" y="385"/>
      <point x="476" y="275" type="curve" smooth="yes"/>
      <point x="476" y="167"/>
      <point x="401" y="89"/>
      <point x="296" y="89" type="curve" smooth="yes"/>
      <point x="190" y="89"/>
      <point x="116" y="167"/>
      <point x="115" y="275" type="curve" smooth="yes"/>
      <point x="116" y="384"/>
      <point x="190" y="462"/>
      <point x="296" y="462" type="curve" smooth="yes"/>
    </contour>
    <contour>
      <point x="318" y="527" type="move" name="top"/>
    </contour>
  </outline>
</glyph>
<glyph name="h" format="1">
  <advance width="662"/>
  <unicode hex="0068"/>
  <outline>
    <contour>
      <point x="100" y="742" type="line"/>
      <point x="100" y="0" type="line"/>
      <point x="178" y="0" type="line"/>
      <point x="178" y="742" type="line"/>
    </contour>
    <contour>
      <point x="239" y="528"/>
      <point x="151" y="445"/>
      <point x="151" y="259" type="curve"/>
      <point x="178" y="259" type="line"/>
      <point x="178" y="372"/>
      <point x="244" y="451"/>
      <point x="356" y="452" type="curve"/>
      <point x="449" y="452"/>
      <point x="505" y="397"/>
      <point x="505" y="304" type="curve"/>
      <point x="505" y="0" type="line" smooth="yes"/>
      <point x="583" y="0" type="line"/>
      <point x="583" y="325" type="line"/>
      <point x="583" y="452"/>
      <point x="509" y="530"/>
      <point x="383" y="530" type="curve"/>
    </contour>
    <contour>
      <point x="328" y="264" type="move" name="center"/>
    </contour>
    <contour>
      <point x="328" y="527" type="move" name="top"/>
    </contour>
    <contour>
      <point x="249" y="527" type="move" name="topright"/>
    </contour>
    <contour>
      <point x="425" y="0" type="move" name="bottom"/>
    </contour>
  </outline>
</glyph>
<glyph name="j" format="1">
  <advance width="267"/>
  <unicode hex="006A"/>
  <outline>
    <contour>
      <point x="92" y="527" type="line"/>
      <point x="92" y="-30" type="line"/>
      <point x="92" y="-94"/>
      <point x="62" y="-124"/>
      <point x="16" y="-124" type="curve"/>
      <point x="-10" y="-124"/>
      <point x="-37" y="-114"/>
      <point x="-60" y="-97" type="curve"/>
      <point x="-88" y="-161" type="line"/>
      <point x="-58" y="-184"/>
      <point x="-20" y="-197"/>
      <point x="19" y="-197" type="curve"/>
      <point x="101" y="-198"/>
      <point x="170" y="-141"/>
      <point x="170" y="-20" type="curve"/>
      <point x="170" y="527" type="line"/>
    </contour>
    <contour>
      <point x="101" y="733"/>
      <point x="78" y="709"/>
      <point x="78" y="678" type="curve" smooth="yes"/>
      <point x="78" y="647"/>
      <point x="101" y="623"/>
      <point x="131" y="623" type="curve" smooth="yes"/>
      <point x="162" y="623"/>
      <point x="184" y="647"/>
      <point x="184" y="678" type="curve" smooth="yes"/>
      <point x="184" y="709"/>
      <point x="162" y="733"/>
      <point x="131" y="733" type="curve" smooth="yes"/>
    </contour>
  </outline>
</glyph>
<glyph name="k" format="1">
  <advance width="573"/>
  <unicode hex="006B"/>
  <outline>
    <contour>
      <point x="230" y="111" type="move"/>
    </contour>
    <contour>
      <point x="100" y="742" type="line"/>
      <point x="100" y="0" type="line"/>
      <point x="178" y="0" type="line"/>
      <point x="178" y="742" type="line"/>
    </contour>
    <contour>
      <point x="449" y="527" type="line"/>
      <point x="169" y="248" type="line"/>
      <point x="169" y="142" type="line"/>
      <point x="541" y="527" type="line"/>
    </contour>
    <contour>
      <point x="276" y="285" type="line"/>
      <point x="469" y="0" type="line"/>
      <point x="562" y="0" type="line"/>
      <point x="334" y="337" type="line"/>
    </contour>
    <contour>
      <point x="139" y="742" type="move" name="top"/>
    </contour>
    <contour>
      <point x="116" y="0" type="move" name="bottom"/>
    </contour>
    <contour>
      <point x="249" y="527" type="move" name="topright"/>
    </contour>
  </outline>
</glyph>
<glyph name="l" format="1">
  <advance width="278"/>
  <unicode hex="006C"/>
  <outline>
    <contour>
      <point x="100" y="742" type="line"/>
      <point x="100" y="0" type="line"/>
      <point x="178" y="0" type="line"/>
      <point x="178" y="742" type="line"/>
    </contour>
    <contour>
      <point x="139" y="742" type="move" name="top"/>
    </contour>
    <contour>
      <point x="139" y="0" type="move" name="bottom"/>
    </contour>
    <contour>
      <point x="249" y="527" type="move" name="topright"/>
    </contour>
  </outline>
</glyph>
<glyph name="m" format="1">
  <advance width="1044"/>
  <unicode hex="006D"/>
  <outline>
    <contour>
      <point x="95" y="527" type="line"/>
      <point x="95" y="0" type="line"/>
      <point x="172" y="0" type="line"/>
      <point x="172" y="527" type="line"/>
    </contour>
    <contour>
      <point x="233" y="528"/>
      <point x="146" y="445"/>
      <point x="146" y="259" type="curve"/>
      <point x="173" y="259" type="line"/>
      <point x="173" y="372"/>
      <point x="238" y="450"/>
      <point x="346" y="453" type="curve"/>
      <point x="437" y="453"/>
      <point x="492" y="398"/>
      <point x="492" y="304" type="curve"/>
      <point x="492" y="0" type="line" smooth="yes"/>
      <point x="570" y="0" type="line"/>
      <point x="570" y="325" type="line"/>
      <point x="570" y="452"/>
      <point x="497" y="530"/>
      <point x="374" y="530" type="curve"/>
    </contour>
    <contour>
      <point x="629" y="528"/>
      <point x="542" y="445"/>
      <point x="542" y="259" type="curve"/>
      <point x="569" y="259" type="line"/>
      <point x="569" y="372"/>
      <point x="633" y="450"/>
      <point x="741" y="453" type="curve"/>
      <point x="832" y="453"/>
      <point x="887" y="398"/>
      <point x="887" y="304" type="curve"/>
      <point x="887" y="0" type="line" smooth="yes"/>
      <point x="966" y="0" type="line"/>
      <point x="966" y="325" type="line"/>
      <point x="966" y="452"/>
      <point x="893" y="530"/>
      <point x="769" y="530" type="curve"/>
    </contour>
  </outline>
</glyph>
<glyph name="n" format="1">
  <advance width="656"/>
  <unicode hex="006E"/>
  <outline>
    <contour>
      <point x="95" y="527" type="line"/>
      <point x="95" y="0" type="line"/>
      <point x="173" y="0" type="line"/>
      <point x="173" y="527" type="line"/>
    </contour>
    <contour>
      <point x="233" y="528"/>
      <point x="145" y="445"/>
      <point x="145" y="259" type="curve"/>
      <point x="172" y="259" type="line"/>
      <point x="172" y="372"/>
      <point x="238" y="451"/>
      <point x="350" y="452" type="curve"/>
      <point x="443" y="452"/>
      <point x="499" y="397"/>
      <point x="499" y="304" type="curve"/>
      <point x="499" y="0" type="line" smooth="yes"/>
      <point x="577" y="0" type="line"/>
      <point x="577" y="325" type="line"/>
      <point x="577" y="452"/>
      <point x="503" y="530"/>
      <point x="377" y="530" type="curve"/>
    </contour>
    <contour>
      <point x="341" y="527" type="move" name="top"/>
    </contour>
    <contour>
      <point x="332" y="0" type="move" name="bottom"/>
    </contour>
  </outline>
</glyph>
<glyph name="o" format="1">
  <advance width="618"/>
  <unicode hex="006F"/>
  <outline>
    <contour>
      <point x="153" y="529"/>
      <point x="42" y="421"/>
      <point x="42" y="264" type="curve" smooth="yes"/>
      <point x="42" y="106"/>
      <point x="153" y="-3"/>
      <point x="309" y="-3" type="curve" smooth="yes"/>
      <point x="466" y="-3"/>
      <point x="577" y="106"/>
      <point x="577" y="264" type="curve" smooth="yes"/>
      <point x="577" y="421"/>
      <point x="466" y="529"/>
      <point x="309" y="529" type="curve" smooth="yes"/>
    </contour>
    <contour>
      <point x="419" y="458"/>
      <point x="498" y="378"/>
      <point x="498" y="263" type="curve" smooth="yes"/>
      <point x="498" y="147"/>
      <point x="419" y="67"/>
      <point x="309" y="67" type="curve" smooth="yes"/>
      <point x="199" y="67"/>
      <point x="120" y="147"/>
      <point x="120" y="263" type="curve" smooth="yes"/>
      <point x="120" y="378"/>
      <point x="199" y="458"/>
      <point x="309" y="458" type="curve" smooth="yes"/>
    </contour>
    <contour>
      <point x="309" y="527" type="move" name="top"/>
    </contour>
  </outline>
</glyph>
<glyph name="p" format="1">
  <advance width="676"/>
  <unicode hex="0070"/>
  <outline>
    <contour>
      <point x="100" y="527" type="line"/>
      <point x="100" y="-194" type="line"/>
      <point x="178" y="-194" type="line"/>
      <point x="178" y="527" type="line"/>
    </contour>
    <contour>
      <point x="208" y="31" type="move"/>
    </contour>
    <contour>
      <point x="238" y="530"/>
      <point x="144" y="427"/>
      <point x="145" y="262" type="curve"/>
      <point x="144" y="101"/>
      <point x="237" y="-3"/>
      <point x="383" y="-3" type="curve" smooth="yes"/>
      <point x="532" y="-3"/>
      <point x="634" y="106"/>
      <point x="634" y="262" type="curve" smooth="yes"/>
      <point x="634" y="420"/>
      <point x="530" y="530"/>
      <point x="382" y="530" type="curve" smooth="yes"/>
    </contour>
    <contour>
      <point x="477" y="460"/>
      <point x="556" y="377"/>
      <point x="556" y="264" type="curve" smooth="yes"/>
      <point x="556" y="150"/>
      <point x="477" y="68"/>
      <point x="367" y="68" type="curve" smooth="yes"/>
      <point x="257" y="68"/>
      <point x="178" y="149"/>
      <point x="178" y="264" type="curve" smooth="yes"/>
      <point x="178" y="378"/>
      <point x="257" y="460"/>
      <point x="367" y="460" type="curve" smooth="yes"/>
    </contour>
  </outline>
</glyph>
<glyph name="r" format="1">
  <advance width="372"/>
  <unicode hex="0072"/>
  <outline>
    <contour>
      <point x="95" y="527" type="line"/>
      <point x="95" y="0" type="line"/>
      <point x="173" y="0" type="line"/>
      <point x="173" y="527" type="line"/>
    </contour>
    <contour>
      <point x="226" y="528"/>
      <point x="145" y="432"/>
      <point x="145" y="259" type="curve"/>
      <point x="172" y="256" type="line"/>
      <point x="172" y="374"/>
      <point x="243" y="453"/>
      <point x="362" y="451" type="curve"/>
      <point x="362" y="530" type="line"/>
    </contour>
    <contour>
      <point x="189" y="527" type="move" name="top"/>
    </contour>
    <contour>
      <point x="132" y="0" type="move" name="bottom"/>
    </contour>
  </outline>
</glyph>
<glyph name="s" format="1">
  <advance width="453"/>
  <unicode hex="0073"/>
  <outline>
    <contour>
      <point x="138" y="530"/>
      <point x="51" y="488"/>
      <point x="51" y="387" type="curve" smooth="yes"/>
      <point x="51" y="200"/>
      <point x="345" y="265"/>
      <point x="343" y="138" type="curve" smooth="yes"/>
      <point x="342" y="86"/>
      <point x="291" y="63"/>
      <point x="230" y="63" type="curve" smooth="yes"/>
      <point x="168" y="63"/>
      <point x="99" y="88"/>
      <point x="54" y="130" type="curve"/>
      <point x="24" y="71" type="line"/>
      <point x="74" y="23"/>
      <point x="151" y="-3"/>
      <point x="227" y="-3" type="curve" smooth="yes"/>
      <point x="327" y="-3"/>
      <point x="419" y="43"/>
      <point x="419" y="147" type="curve" smooth="yes"/>
      <point x="420" y="336"/>
      <point x="126" y="276"/>
      <point x="126" y="393" type="curve" smooth="yes"/>
      <point x="126" y="442"/>
      <point x="171" y="463"/>
      <point x="230" y="463" type="curve" smooth="yes"/>
      <point x="278" y="463"/>
      <point x="331" y="446"/>
      <point x="373" y="420" type="curve"/>
      <point x="402" y="482" type="line"/>
      <point x="358" y="512"/>
      <point x="297" y="530"/>
      <point x="235" y="530" type="curve" smooth="yes"/>
    </contour>
    <contour>
      <point x="230" y="527" type="move" name="top"/>
    </contour>
    <contour>
      <point x="225" y="0" type="move" name="bottom"/>
    </contour>
  </outline>
</glyph>
<glyph name="t" format="1">
  <advance width="390"/>
  <unicode hex="0074"/>
  <outline>
    <contour>
      <point x="114" y="649" type="line"/>
      <point x="114" y="146" type="line"/>
      <point x="114" y="42"/>
      <point x="171" y="-4"/>
      <point x="248" y="-4" type="curve"/>
      <point x="290" y="-3"/>
      <point x="330" y="11"/>
      <point x="368" y="36" type="curve"/>
      <point x="345" y="99" type="line"/>
      <point x="316" y="81"/>
      <point x="288" y="72"/>
      <point x="261" y="72" type="curve"/>
      <point x="216" y="72"/>
      <point x="191" y="96"/>
      <point x="191" y="160" type="curve"/>
      <point x="191" y="649" type="line"/>
    </contour>
    <contour>
      <point x="38" y="510" type="line"/>
      <point x="38" y="447" type="line"/>
      <point x="358" y="447" type="line"/>
      <point x="358" y="511" type="line"/>
    </contour>
    <contour>
      <point x="195" y="264" type="move" name="center"/>
    </contour>
    <contour>
      <point x="235" y="0" type="move" name="bottom"/>
    </contour>
  </outline>
</glyph>
<glyph name="u" format="1">
  <advance width="647"/>
  <unicode hex="0075"/>
  <outline>
    <contour>
      <point x="552" y="0" type="line"/>
      <point x="552" y="527" type="line"/>
      <point x="474" y="527" type="line"/>
      <point x="474" y="0" type="line"/>
    </contour>
    <contour>
      <point x="414" y="-1"/>
      <point x="499" y="82"/>
      <point x="499" y="268" type="curve"/>
      <point x="474" y="268" type="line"/>
      <point x="474" y="156"/>
      <point x="410" y="77"/>
      <point x="301" y="75" type="curve"/>
      <point x="210" y="75"/>
      <point x="155" y="130"/>
      <point x="155" y="223" type="curve"/>
      <point x="155" y="527" type="line" smooth="yes"/>
      <point x="77" y="527" type="line"/>
      <point x="77" y="202" type="line"/>
      <point x="77" y="75"/>
      <point x="150" y="-3"/>
      <point x="274" y="-3" type="curve"/>
    </contour>
    <contour>
      <point x="584" y="10" type="move" name="ogonek"/>
    </contour>
    <contour>
      <point x="320" y="527" type="move" name="top"/>
    </contour>
  </outline>
</glyph>
<glyph name="v" format="1">
  <advance width="498"/>
  <unicode hex="0076"/>
  <outline>
    <contour>
      <point x="421" y="527" type="line"/>
      <point x="255" y="81" type="line"/>
      <point x="86" y="527" type="line"/>
      <point x="4" y="527" type="line"/>
      <point x="212" y="0" type="line"/>
      <point x="293" y="0" type="line"/>
      <point x="501" y="527" type="line"/>
    </contour>
  </outline>
</glyph>
<glyph name="w" format="1">
  <advance width="864"/>
  <unicode hex="0077"/>
  <outline>
    <contour>
      <point x="786" y="527" type="line"/>
      <point x="632" y="81" type="line"/>
      <point x="477" y="527" type="line"/>
      <point x="395" y="527" type="line"/>
      <point x="242" y="81" type="line"/>
      <point x="86" y="527" type="line"/>
      <point x="4" y="527" type="line"/>
      <point x="200" y="0" type="line"/>
      <point x="281" y="0" type="line"/>
      <point x="436" y="428" type="line"/>
      <point x="590" y="0" type="line"/>
      <point x="671" y="0" type="line"/>
      <point x="866" y="527" type="line"/>
    </contour>
    <contour>
      <point x="432" y="527" type="move" name="top"/>
    </contour>
  </outline>
</glyph>
<glyph name="x" format="1">
  <advance width="529"/>
  <unicode hex="0078"/>
  <outline>
    <contour>
      <point x="35" y="527" type="line"/>
      <point x="213" y="271" type="line"/>
      <point x="21" y="0" type="line"/>
      <point x="109" y="0" type="line"/>
      <point x="264" y="215" type="line"/>
      <point x="415" y="0" type="line"/>
      <point x="505" y="0" type="line"/>
      <point x="316" y="271" type="line"/>
      <point x="492" y="527" type="line"/>
      <point x="406" y="527" type="line"/>
      <point x="265" y="327" type="line"/>
      <point x="125" y="527" type="line"/>
    </contour>
  </outline>
</glyph>
<glyph name="y" format="1">
  <advance width="502"/>
  <unicode hex="0079"/>
  <outline>
    <contour>
      <point x="425" y="527" type="line"/>
      <point x="258" y="92" type="line"/>
      <point x="82" y="527" type="line"/>
      <point x="1" y="527" type="line"/>
      <point x="218" y="4" type="line"/>
      <point x="197" y="-45" type="line" smooth="yes"/>
      <point x="176" y="-94"/>
      <point x="142" y="-119"/>
      <point x="101" y="-119" type="curve" smooth="yes"/>
      <point x="74" y="-119"/>
      <point x="51" y="-111"/>
      <point x="27" y="-94" type="curve"/>
      <point x="-7" y="-159" type="line"/>
      <point x="25" y="-185"/>
      <point x="61" y="-198"/>
      <point x="104" y="-198" type="curve" smooth="yes"/>
      <point x="175" y="-198"/>
      <point x="230" y="-156"/>
      <point x="263" y="-75" type="curve" smooth="yes"/>
      <point x="505" y="527" type="line"/>
    </contour>
    <contour>
      <point x="254" y="527" type="move" name="top"/>
    </contour>
  </outline>
</glyph>
<glyph name="z" format="1">
  <advance width="526"/>
  <unicode hex="007A"/>
  <outline>
    <contour>
      <point x="61" y="527" type="line"/>
      <point x="61" y="459" type="line"/>
      <point x="382" y="458" type="line"/>
      <point x="52" y="59" type="line"/>
      <point x="52" y="0" type="line"/>
      <point x="484" y="-1" type="line"/>
      <point x="484" y="67" type="line"/>
      <point x="146" y="68" type="line"/>
      <point x="476" y="467" type="line"/>
      <point x="476" y="526" type="line"/>
    </contour>
    <contour>
      <point x="263" y="527" type="move" name="top"/>
    </contour>
  </outline>
</glyph>
<glyph name="braceleft" format="1">
  <advance width="311"/>
  <unicode hex="007B"/>
  <outline>
    <contour>
      <point x="260" y="743" type="line" smooth="yes"/>
      <point x="159" y="743"/>
      <point x="118" y="709"/>
      <point x="118" y="624" type="curve" smooth="yes"/>
      <point x="118" y="402" type="line" smooth="yes"/>
      <point x="118" y="361"/>
      <point x="102" y="343"/>
      <point x="69" y="343" type="curve" smooth="yes"/>
      <point x="43" y="343" type="line"/>
      <point x="43" y="274" type="line"/>
      <point x="69" y="274" type="line"/>
      <point x="113" y="304" type="line" smooth="yes"/>
      <point x="169" y="314"/>
      <point x="188" y="342"/>
      <point x="188" y="407" type="curve" smooth="yes"/>
      <point x="188" y="601" type="line" smooth="yes"/>
      <point x="188" y="653"/>
      <point x="217" y="676"/>
      <point x="289" y="676" type="curve"/>
      <point x="289" y="743" type="line"/>
    </contour>
    <contour>
      <point x="43" y="343" type="line"/>
      <point x="43" y="274" type="line"/>
      <point x="69" y="274" type="line" smooth="yes"/>
      <point x="102" y="274"/>
      <point x="118" y="256"/>
      <point x="118" y="214" type="curve" smooth="yes"/>
      <point x="118" y="-7" type="line" smooth="yes"/>
      <point x="118" y="-92"/>
      <point x="159" y="-126"/>
      <point x="260" y="-126" type="curve" smooth="yes"/>
      <point x="289" y="-126" type="line"/>
      <point x="289" y="-59" type="line"/>
      <point x="217" y="-59"/>
      <point x="188" y="-37"/>
      <point x="188" y="15" type="curve" smooth="yes"/>
      <point x="188" y="210" type="line" smooth="yes"/>
      <point x="188" y="275"/>
      <point x="169" y="303"/>
      <point x="113" y="312" type="curve" smooth="yes"/>
      <point x="69" y="343" type="line"/>
    </contour>
  </outline>
</glyph>
<glyph name="asciitilde" format="1">
  <advance width="491"/>
  <unicode hex="007E"/>
  <outline>
    <contour>
      <point x="103" y="383"/>
      <point x="73" y="342"/>
      <point x="73" y="264" type="curve"/>
      <point x="129" y="264" type="line"/>
      <point x="129" y="298"/>
      <point x="145" y="317"/>
      <point x="173" y="317" type="curve" smooth="yes"/>
      <point x="219" y="317"/>
      <point x="266" y="256"/>
      <point x="333" y="256" type="curve" smooth="yes"/>
      <point x="389" y="256"/>
      <point x="419" y="297"/>
      <point x="419" y="375" type="curve"/>
      <point x="363" y="375" type="line"/>
      <point x="363" y="340"/>
      <point x="348" y="321"/>
      <point x="320" y="321" type="curve" smooth="yes"/>
      <point x="275" y="321"/>
      <point x="221" y="383"/>
      <point x="159" y="383" type="curve" smooth="yes"/>
    </contour>
  </outline>
</glyph>
<glyph name="cent" format="1">
  <advance width="561"/>
  <unicode hex="00A2"/>
  <outline>
    <contour>
      <point x="269" y="345" type="line"/>
      <point x="269" y="-134" type="line"/>
      <point x="330" y="-134" type="line"/>
      <point x="330" y="345" type="line"/>
    </contour>
    <contour>
      <point x="269" y="673" type="line"/>
      <point x="269" y="135" type="line"/>
      <point x="330" y="135" type="line"/>
      <point x="330" y="673" type="line"/>
    </contour>
    <component base="c"/>
  </outline>
</glyph>
<glyph name="sterling" format="1">
  <advance width="541"/>
  <unicode hex="00A3"/>
  <outline>
    <contour>
      <point x="504" y="0" type="line"/>
      <point x="504" y="70" type="line"/>
      <point x="210" y="70" type="line"/>
      <point x="210" y="488" type="line"/>
      <point x="210" y="579"/>
      <point x="254" y="627"/>
      <point x="334" y="627" type="curve"/>
      <point x="389" y="627"/>
      <point x="440" y="599"/>
      <point x="482" y="546" type="curve"/>
      <point x="516" y="610" type="line"/>
      <point x="467" y="670"/>
      <point x="400" y="703"/>
      <point x="327" y="703" type="curve"/>
      <point x="201" y="703"/>
      <point x="130" y="626"/>
      <point x="130" y="489" type="curve"/>
      <point x="130" y="0" type="line"/>
    </contour>
    <contour>
      <point x="43" y="0" type="line"/>
      <point x="213" y="0" type="line"/>
      <point x="213" y="70" type="line"/>
      <point x="43" y="70" type="line"/>
    </contour>
    <contour>
      <point x="43" y="309" type="line"/>
      <point x="392" y="309" type="line"/>
      <point x="392" y="371" type="line"/>
      <point x="43" y="371" type="line"/>
    </contour>
  </outline>
</glyph>
<glyph name="currency" format="1">
  <advance width="717"/>
  <unicode hex="00A4"/>
  <outline>
    <contour>
      <point x="209" y="585"/>
      <point x="86" y="465"/>
      <point x="86" y="318" type="curve" smooth="yes"/>
      <point x="86" y="173"/>
      <point x="209" y="53"/>
      <point x="359" y="53" type="curve" smooth="yes"/>
      <point x="510" y="53"/>
      <point x="633" y="173"/>
      <point x="633" y="318" type="curve" smooth="yes"/>
      <point x="633" y="465"/>
      <point x="510" y="585"/>
      <point x="359" y="585" type="curve" smooth="yes"/>
    </contour>
    <contour>
      <point x="42" y="49" type="line"/>
      <point x="87" y="-0" type="line"/>
      <point x="204" y="116" type="line"/>
      <point x="158" y="166" type="line"/>
    </contour>
    <contour>
      <point x="513" y="116" type="line"/>
      <point x="630" y="-0" type="line"/>
      <point x="675" y="49" type="line"/>
      <point x="559" y="166" type="line"/>
    </contour>
    <contour>
      <point x="42" y="586" type="line"/>
      <point x="158" y="469" type="line"/>
      <point x="204" y="519" type="line"/>
      <point x="87" y="635" type="line"/>
    </contour>
    <contour>
      <point x="474" y="515"/>
      <point x="569" y="427"/>
      <point x="569" y="318" type="curve" smooth="yes"/>
      <point x="569" y="211"/>
      <point x="474" y="124"/>
      <point x="358" y="124" type="curve" smooth="yes"/>
      <point x="243" y="124"/>
      <point x="149" y="211"/>
      <point x="149" y="318" type="curve" smooth="yes"/>
      <point x="149" y="427"/>
      <point x="243" y="515"/>
      <point x="358" y="515" type="curve" smooth="yes"/>
    </contour>
    <contour>
      <point x="513" y="519" type="line"/>
      <point x="559" y="469" type="line"/>
      <point x="675" y="586" type="line"/>
      <point x="630" y="635" type="line"/>
    </contour>
  </outline>
</glyph>
<glyph name="yen" format="1">
  <advance width="619"/>
  <unicode hex="00A5"/>
  <outline>
    <contour>
      <point x="78" y="311" type="line"/>
      <point x="78" y="271" type="line"/>
      <point x="555" y="271" type="line"/>
      <point x="555" y="311" type="line"/>
    </contour>
    <contour>
      <point x="78" y="175" type="line"/>
      <point x="78" y="135" type="line"/>
      <point x="555" y="135" type="line"/>
      <point x="555" y="175" type="line"/>
    </contour>
    <contour>
      <point x="537" y="700" type="line"/>
      <point x="314" y="335" type="line"/>
      <point x="86" y="700" type="line"/>
      <point x="4" y="700" type="line"/>
      <point x="308" y="181" type="line"/>
      <point x="320" y="181" type="line"/>
      <point x="620" y="700" type="line"/>
    </contour>
    <contour>
      <point x="275" y="290" type="line"/>
      <point x="275" y="0" type="line"/>
      <point x="355" y="0" type="line"/>
      <point x="355" y="290" type="line"/>
    </contour>
  </outline>
</glyph>
<glyph name="brokenbar" format="1">
  <advance width="250"/>
  <unicode hex="00A6"/>
  <outline>
    <contour>
      <point x="94" y="228" type="line"/>
      <point x="94" y="-121" type="line"/>
      <point x="155" y="-121" type="line"/>
      <point x="155" y="228" type="line"/>
    </contour>
    <contour>
      <point x="94" y="815" type="line"/>
      <point x="94" y="466" type="line"/>
      <point x="155" y="466" type="line"/>
      <point x="155" y="815" type="line"/>
    </contour>
  </outline>
</glyph>
<glyph name="section" format="1">
  <advance width="472"/>
  <unicode hex="00A7"/>
  <outline>
    <contour>
      <point x="135" y="694"/>
      <point x="62" y="639"/>
      <point x="62" y="558" type="curve" smooth="yes"/>
      <point x="62" y="502"/>
      <point x="93" y="466"/>
      <point x="180" y="435" type="curve"/>
      <point x="99" y="421"/>
      <point x="48" y="376"/>
      <point x="48" y="310" type="curve" smooth="yes"/>
      <point x="48" y="130"/>
      <point x="354" y="185"/>
      <point x="354" y="58" type="curve" smooth="yes"/>
      <point x="354" y="9"/>
      <point x="300" y="-24"/>
      <point x="229" y="-24" type="curve" smooth="yes"/>
      <point x="166" y="-24"/>
      <point x="103" y="0"/>
      <point x="51" y="44" type="curve"/>
      <point x="24" y="-8" type="line"/>
      <point x="77" y="-56"/>
      <point x="152" y="-84"/>
      <point x="231" y="-84" type="curve" smooth="yes"/>
      <point x="345" y="-84"/>
      <point x="425" y="-25"/>
      <point x="425" y="59" type="curve" smooth="yes"/>
      <point x="425" y="117"/>
      <point x="394" y="152"/>
      <point x="325" y="179" type="curve"/>
      <point x="383" y="192"/>
      <point x="438" y="244"/>
      <point x="438" y="308" type="curve" smooth="yes"/>
      <point x="438" y="491"/>
      <point x="130" y="432"/>
      <point x="130" y="561" type="curve" smooth="yes"/>
      <point x="130" y="607"/>
      <point x="176" y="635"/>
      <point x="246" y="635" type="curve" smooth="yes"/>
      <point x="294" y="635"/>
      <point x="343" y="621"/>
      <point x="389" y="593" type="curve"/>
      <point x="415" y="646" type="line"/>
      <point x="363" y="678"/>
      <point x="306" y="694"/>
      <point x="246" y="694" type="curve" smooth="yes"/>
    </contour>
    <contour>
      <point x="316" y="390"/>
      <point x="369" y="355"/>
      <point x="369" y="302" type="curve" smooth="yes"/>
      <point x="369" y="255"/>
      <point x="325" y="222"/>
      <point x="258" y="222" type="curve" smooth="yes"/>
      <point x="182" y="222"/>
      <point x="117" y="263"/>
      <point x="117" y="317" type="curve" smooth="yes"/>
      <point x="117" y="361"/>
      <point x="162" y="390"/>
      <point x="235" y="390" type="curve" smooth="yes"/>
    </contour>
  </outline>
</glyph>
<glyph name="dieresis" format="1">
  <advance width="373"/>
  <unicode hex="00A8"/>
  <outline>
    <component base="dotaccent" xOffset="93" yOffset="44" xScale="0.94" yScale="0.94"/>
    <component base="dotaccent" xOffset="-73" yOffset="44" xScale="0.94" yScale="0.94"/>
    <contour>
      <point x="175" y="527" type="move" name="_top"/>
    </contour>
  </outline>
</glyph>
<glyph name="copyright" format="1">
  <advance width="757"/>
  <unicode hex="00A9"/>
  <outline>
    <contour>
      <point x="188" y="689"/>
      <point x="40" y="533"/>
      <point x="40" y="348" type="curve" smooth="yes"/>
      <point x="40" y="163"/>
      <point x="187" y="9"/>
      <point x="377" y="9" type="curve" smooth="yes"/>
      <point x="568" y="9"/>
      <point x="717" y="165"/>
      <point x="717" y="350" type="curve" smooth="yes"/>
      <point x="717" y="536"/>
      <point x="569" y="689"/>
      <point x="379" y="689" type="curve" smooth="yes"/>
    </contour>
    <contour>
      <point x="547" y="643"/>
      <point x="675" y="511"/>
      <point x="675" y="350" type="curve" smooth="yes"/>
      <point x="675" y="189"/>
      <point x="546" y="55"/>
      <point x="377" y="55" type="curve" smooth="yes"/>
      <point x="210" y="55"/>
      <point x="83" y="187"/>
      <point x="83" y="348" type="curve" smooth="yes"/>
      <point x="83" y="509"/>
      <point x="211" y="643"/>
      <point x="379" y="643" type="curve" smooth="yes"/>
    </contour>
    <contour>
      <point x="282" y="524"/>
      <point x="201" y="447"/>
      <point x="201" y="349" type="curve" smooth="yes"/>
      <point x="201" y="250"/>
      <point x="281" y="172"/>
      <point x="383" y="172" type="curve" smooth="yes"/>
      <point x="431" y="172"/>
      <point x="479" y="193"/>
      <point x="514" y="227" type="curve"/>
      <point x="488" y="256" type="line"/>
      <point x="460" y="231"/>
      <point x="422" y="215"/>
      <point x="385" y="215" type="curve" smooth="yes"/>
      <point x="307" y="215"/>
      <point x="245" y="275"/>
      <point x="245" y="350" type="curve" smooth="yes"/>
      <point x="245" y="423"/>
      <point x="307" y="482"/>
      <point x="385" y="482" type="curve" smooth="yes"/>
      <point x="423" y="482"/>
      <point x="460" y="466"/>
      <point x="488" y="440" type="curve"/>
      <point x="514" y="472" type="line"/>
      <point x="480" y="504"/>
      <point x="432" y="524"/>
      <point x="384" y="524" type="curve" smooth="yes"/>
    </contour>
  </outline>
</glyph>
<glyph name="ordfeminine" format="1">
  <advance width="380"/>
  <unicode hex="00AA"/>
  <outline>
    <contour>
      <point x="148" y="771"/>
      <point x="102" y="756"/>
      <point x="58" y="732" type="curve"/>
      <point x="74" y="690" type="line"/>
      <point x="110" y="711"/>
      <point x="146" y="723"/>
      <point x="182" y="723" type="curve"/>
      <point x="237" y="723"/>
      <point x="265" y="698"/>
      <point x="266" y="656" type="curve"/>
      <point x="267" y="458" type="line"/>
      <point x="323" y="458" type="line"/>
      <point x="322" y="662" type="line"/>
      <point x="323" y="730"/>
      <point x="276" y="771"/>
      <point x="194" y="771" type="curve"/>
    </contour>
    <contour>
      <point x="275" y="635" type="line"/>
      <point x="162" y="635" type="line"/>
      <point x="86" y="635"/>
      <point x="40" y="604"/>
      <point x="40" y="549" type="curve"/>
      <point x="40" y="494"/>
      <point x="82" y="456"/>
      <point x="146" y="456" type="curve"/>
      <point x="210" y="456"/>
      <point x="256" y="483"/>
      <point x="279" y="538" type="curve"/>
      <point x="267" y="557" type="line"/>
      <point x="246" y="514"/>
      <point x="210" y="497"/>
      <point x="164" y="497" type="curve"/>
      <point x="122" y="497"/>
      <point x="95" y="520"/>
      <point x="95" y="553" type="curve"/>
      <point x="95" y="585"/>
      <point x="123" y="603"/>
      <point x="173" y="603" type="curve"/>
      <point x="275" y="603" type="line"/>
    </contour>
  </outline>
</glyph>
<glyph name="registered" format="1">
  <advance width="757"/>
  <unicode hex="00AE"/>
  <outline>
    <contour>
      <point x="188" y="689"/>
      <point x="40" y="533"/>
      <point x="40" y="348" type="curve" smooth="yes"/>
      <point x="40" y="163"/>
      <point x="187" y="9"/>
      <point x="377" y="9" type="curve" smooth="yes"/>
      <point x="568" y="9"/>
      <point x="717" y="165"/>
      <point x="717" y="350" type="curve" smooth="yes"/>
      <point x="717" y="536"/>
      <point x="569" y="689"/>
      <point x="379" y="689" type="curve" smooth="yes"/>
    </contour>
    <contour>
      <point x="395" y="311" type="line"/>
      <point x="480" y="182" type="line"/>
      <point x="530" y="182" type="line"/>
      <point x="439" y="311" type="line"/>
    </contour>
    <contour>
      <point x="547" y="643"/>
      <point x="675" y="511"/>
      <point x="675" y="350" type="curve" smooth="yes"/>
      <point x="675" y="189"/>
      <point x="546" y="55"/>
      <point x="377" y="55" type="curve" smooth="yes"/>
      <point x="210" y="55"/>
      <point x="83" y="187"/>
      <point x="83" y="348" type="curve" smooth="yes"/>
      <point x="83" y="509"/>
      <point x="211" y="643"/>
      <point x="379" y="643" type="curve" smooth="yes"/>
    </contour>
    <contour>
      <point x="251" y="533" type="line"/>
      <point x="251" y="182" type="line"/>
      <point x="294" y="182" type="line"/>
      <point x="294" y="293" type="line"/>
      <point x="385" y="293" type="line" smooth="yes"/>
      <point x="475" y="293"/>
      <point x="525" y="338"/>
      <point x="525" y="415" type="curve" smooth="yes"/>
      <point x="525" y="491"/>
      <point x="475" y="533"/>
      <point x="385" y="533" type="curve" smooth="yes"/>
    </contour>
    <contour>
      <point x="447" y="495"/>
      <point x="484" y="467"/>
      <point x="484" y="415" type="curve" smooth="yes"/>
      <point x="484" y="361"/>
      <point x="447" y="331"/>
      <point x="384" y="331" type="curve" smooth="yes"/>
      <point x="293" y="331" type="line"/>
      <point x="293" y="495" type="line"/>
      <point x="384" y="495" type="line" smooth="yes"/>
    </contour>
  </outline>
</glyph>
<glyph name="macron" format="1">
  <advance width="350"/>
  <unicode hex="00AF"/>
  <outline>
    <contour>
      <point x="55" y="708" type="line"/>
      <point x="55" y="646" type="line"/>
      <point x="295" y="646" type="line"/>
      <point x="295" y="708" type="line"/>
    </contour>
    <contour>
      <point x="175" y="527" type="move" name="_top"/>
    </contour>
  </outline>
</glyph>
<glyph name="degree" format="1">
  <advance width="328"/>
  <unicode hex="00B0"/>
  <outline>
    <contour>
      <point x="132" y="805"/>
      <point x="79" y="753"/>
      <point x="79" y="692" type="curve" smooth="yes"/>
      <point x="79" y="631"/>
      <point x="132" y="580"/>
      <point x="194" y="580" type="curve" smooth="yes"/>
      <point x="256" y="580"/>
      <point x="309" y="631"/>
      <point x="309" y="692" type="curve" smooth="yes"/>
      <point x="309" y="753"/>
      <point x="256" y="805"/>
      <point x="194" y="805" type="curve" smooth="yes"/>
    </contour>
    <contour>
      <point x="236" y="765"/>
      <point x="271" y="731"/>
      <point x="271" y="692" type="curve" smooth="yes"/>
      <point x="271" y="653"/>
      <point x="236" y="620"/>
      <point x="194" y="620" type="curve" smooth="yes"/>
      <point x="152" y="620"/>
      <point x="117" y="653"/>
      <point x="117" y="692" type="curve" smooth="yes"/>
      <point x="117" y="731"/>
      <point x="152" y="765"/>
      <point x="194" y="765" type="curve" smooth="yes"/>
    </contour>
  </outline>
</glyph>
<glyph name="twosuperior" format="1">
  <advance width="380"/>
  <unicode hex="00B2"/>
  <outline>
    <contour>
      <point x="131" y="702"/>
      <point x="77" y="680"/>
      <point x="34" y="643" type="curve"/>
      <point x="59" y="598" type="line"/>
      <point x="93" y="630"/>
      <point x="137" y="650"/>
      <point x="175" y="650" type="curve"/>
      <point x="225" y="650"/>
      <point x="254" y="628"/>
      <point x="254" y="592" type="curve"/>
      <point x="254" y="566"/>
      <point x="232" y="531"/>
      <point x="199" y="498" type="curve" smooth="yes"/>
      <point x="40" y="333" type="line"/>
      <point x="40" y="289" type="line"/>
      <point x="338" y="289" type="line"/>
      <point x="338" y="339" type="line"/>
      <point x="114" y="339" type="line"/>
      <point x="238" y="466" type="line" smooth="yes"/>
      <point x="286" y="512"/>
      <point x="315" y="559"/>
      <point x="315" y="599" type="curve"/>
      <point x="315" y="662"/>
      <point x="263" y="702"/>
      <point x="184" y="702" type="curve"/>
    </contour>
  </outline>
</glyph>
<glyph name="acute" format="1">
  <advance width="350"/>
  <unicode hex="00B4"/>
  <outline>
    <contour>
      <point x="75" y="614" type="line"/>
      <point x="150" y="614" type="line"/>
      <point x="275" y="712" type="line"/>
      <point x="195" y="750" type="line"/>
    </contour>
    <contour>
      <point x="128" y="527" type="move" name="_top"/>
    </contour>
  </outline>
</glyph>
<glyph name="paragraph" format="1">
  <advance width="592"/>
  <unicode hex="00B6"/>
  <outline>
    <contour>
      <point x="216" y="742" type="line"/>
      <point x="62" y="742"/>
      <point x="2" y="650"/>
      <point x="2" y="556" type="curve" smooth="yes"/>
      <point x="2" y="486"/>
      <point x="38" y="377"/>
      <point x="179" y="377" type="curve" smooth="yes"/>
      <point x="190" y="377"/>
      <point x="201" y="377"/>
      <point x="213" y="378" type="curve"/>
      <point x="213" y="-110" type="line"/>
      <point x="274" y="-110" type="line"/>
      <point x="274" y="688" type="line"/>
      <point x="425" y="688" type="line"/>
      <point x="425" y="-110" type="line"/>
      <point x="486" y="-110" type="line"/>
      <point x="486" y="742" type="line"/>
    </contour>
  </outline>
</glyph>
<glyph name="cedilla" format="1">
  <advance width="350"/>
  <unicode hex="00B8"/>
  <outline>
    <contour>
      <point x="219" y="9" type="line"/>
      <point x="170" y="9" type="line"/>
      <point x="133" y="-82" type="line"/>
      <point x="141" y="-80"/>
      <point x="155" y="-79"/>
      <point x="165" y="-79" type="curve" smooth="yes"/>
      <point x="197" y="-79"/>
      <point x="215" y="-99"/>
      <point x="215" y="-121" type="curve" smooth="yes"/>
      <point x="216" y="-146"/>
      <point x="195" y="-168"/>
      <point x="162" y="-168" type="curve" smooth="yes"/>
      <point x="142" y="-168"/>
      <point x="119" y="-161"/>
      <point x="103" y="-148" type="curve"/>
      <point x="86" y="-191" type="line"/>
      <point x="106" y="-205"/>
      <point x="138" y="-215"/>
      <point x="167" y="-215" type="curve" smooth="yes"/>
      <point x="223" y="-215"/>
      <point x="265" y="-180"/>
      <point x="265" y="-126" type="curve" smooth="yes"/>
      <point x="264" y="-82"/>
      <point x="235" y="-55"/>
      <point x="193" y="-50" type="curve"/>
    </contour>
    <contour>
      <point x="175" y="0" type="move" name="_bottom"/>
    </contour>
  </outline>
</glyph>
<glyph name="ordmasculine" format="1">
  <advance width="402"/>
  <unicode hex="00BA"/>
  <outline>
    <contour>
      <point x="104" y="771"/>
      <point x="36" y="707"/>
      <point x="36" y="614" type="curve" smooth="yes"/>
      <point x="36" y="520"/>
      <point x="104" y="456"/>
      <point x="201" y="456" type="curve" smooth="yes"/>
      <point x="299" y="456"/>
      <point x="367" y="520"/>
      <point x="367" y="614" type="curve" smooth="yes"/>
      <point x="367" y="707"/>
      <point x="299" y="771"/>
      <point x="201" y="771" type="curve" smooth="yes"/>
    </contour>
    <contour>
      <point x="264" y="721"/>
      <point x="308" y="677"/>
      <point x="308" y="613" type="curve" smooth="yes"/>
      <point x="308" y="548"/>
      <point x="264" y="505"/>
      <point x="201" y="505" type="curve" smooth="yes"/>
      <point x="138" y="505"/>
      <point x="93" y="548"/>
      <point x="93" y="613" type="curve" smooth="yes"/>
      <point x="93" y="677"/>
      <point x="138" y="721"/>
      <point x="201" y="721" type="curve" smooth="yes"/>
    </contour>
  </outline>
</glyph>
<glyph name="Aring" format="1">
  <advance width="718"/>
  <unicode hex="00C5"/>
  <outline>
    <contour>
      <point x="295" y="896"/>
      <point x="242" y="842"/>
      <point x="242" y="779" type="curve" smooth="yes"/>
      <point x="242" y="715"/>
      <point x="295" y="662"/>
      <point x="360" y="662" type="curve" smooth="yes"/>
      <point x="425" y="662"/>
      <point x="479" y="715"/>
      <point x="479" y="779" type="curve" smooth="yes"/>
      <point x="479" y="842"/>
      <point x="425" y="896"/>
      <point x="360" y="896" type="curve" smooth="yes"/>
    </contour>
    <contour>
      <point x="403" y="852"/>
      <point x="439" y="819"/>
      <point x="439" y="779" type="curve" smooth="yes"/>
      <point x="439" y="738"/>
      <point x="403" y="705"/>
      <point x="360" y="705" type="curve" smooth="yes"/>
      <point x="317" y="705"/>
      <point x="282" y="738"/>
      <point x="282" y="779" type="curve" smooth="yes"/>
      <point x="282" y="819"/>
      <point x="317" y="852"/>
      <point x="360" y="852" type="curve" smooth="yes"/>
    </contour>
    <component base="A"/>
  </outline>
</glyph>
<glyph name="AE" format="1">
  <advance width="1027"/>
  <unicode hex="00C6"/>
  <outline>
    <contour>
      <point x="416" y="700" type="line"/>
      <point x="4" y="0" type="line"/>
      <point x="89" y="0" type="line"/>
      <point x="455" y="629" type="line"/>
      <point x="745" y="629" type="line"/>
      <point x="747" y="700" type="line"/>
    </contour>
    <contour>
      <point x="176" y="258" type="line"/>
      <point x="174" y="190" type="line"/>
      <point x="525" y="190" type="line"/>
      <point x="527" y="258" type="line"/>
    </contour>
    <component base="E" xOffset="375"/>
    <contour>
      <point x="615" y="700" type="move" name="top"/>
    </contour>
  </outline>
</glyph>
<glyph name="AE" format="1">
  <advance width="1027"/>
  <unicode hex="00C6"/>
  <outline>
    <contour>
      <point x="416" y="700" type="line"/>
      <point x="4" y="0" type="line"/>
      <point x="89" y="0" type="line"/>
      <point x="455" y="629" type="line"/>
      <point x="745" y="629" type="line"/>
      <point x="747" y="700" type="line"/>
    </contour>
    <contour>
      <point x="176" y="258" type="line"/>
      <point x="174" y="190" type="line"/>
      <point x="525" y="190" type="line"/>
      <point x="527" y="258" type="line"/>
    </contour>
    <contour>
      <point x="481" y="700" type="line"/>
      <point x="481" y="0" type="line"/>
      <point x="969" y="0" type="line"/>
      <point x="969" y="77" type="line"/>
      <point x="560" y="77" type="line"/>
      <point x="560" y="316" type="line"/>
      <point x="914" y="316" type="line"/>
      <point x="914" y="392" type="line"/>
      <point x="560" y="392" type="line"/>
      <point x="560" y="623" type="line"/>
      <point x="956" y="623" type="line"/>
      <point x="956" y="700" type="line"/>
    </contour>
    <contour>
      <point x="967" y="10" type="move" name="ogonek"/>
    </contour>
    <contour>
      <point x="703" y="0" type="move" name="bottom"/>
    </contour>
    <contour>
      <point x="615" y="700" type="move" name="top"/>
    </contour>
  </outline>
</glyph>
<glyph name="Eth" format="1">
  <advance width="801"/>
  <unicode hex="00D0"/>
  <outline>
    <contour>
      <point x="0" y="378" type="line"/>
      <point x="0" y="326" type="line"/>
      <point x="421" y="326" type="line"/>
      <point x="421" y="378" type="line"/>
    </contour>
    <component base="D" xOffset="12"/>
  </outline>
</glyph>
<glyph name="multiply" format="1">
  <advance width="491"/>
  <unicode hex="00D7"/>
  <outline>
    <contour>
      <point x="118" y="492" type="line"/>
      <point x="80" y="450" type="line"/>
      <point x="374" y="154" type="line"/>
      <point x="412" y="196" type="line"/>
    </contour>
    <contour>
      <point x="374" y="492" type="line"/>
      <point x="80" y="196" type="line"/>
      <point x="118" y="154" type="line"/>
      <point x="412" y="450" type="line"/>
    </contour>
  </outline>
</glyph>
<glyph name="Oslash" format="1">
  <advance width="813"/>
  <unicode hex="00D8"/>
  <outline>
    <contour>
      <point x="522" y="813" type="line"/>
      <point x="210" y="-128" type="line"/>
      <point x="261" y="-128" type="line"/>
      <point x="573" y="813" type="line"/>
    </contour>
    <component base="O"/>
    <contour>
      <point x="401" y="700" type="move" name="top"/>
    </contour>
  </outline>
</glyph>
<glyph name="Thorn" format="1">
  <advance width="672"/>
  <unicode hex="00DE"/>
  <outline>
    <contour>
      <point x="167" y="596" type="line"/>
      <point x="177" y="526" type="line"/>
      <point x="346" y="526" type="line" smooth="yes"/>
      <point x="491" y="526"/>
      <point x="564" y="471"/>
      <point x="564" y="365" type="curve" smooth="yes"/>
      <point x="564" y="255"/>
      <point x="491" y="199"/>
      <point x="346" y="199" type="curve" smooth="yes"/>
      <point x="179" y="199" type="line"/>
      <point x="179" y="129" type="line"/>
      <point x="348" y="129" type="line" smooth="yes"/>
      <point x="542" y="129"/>
      <point x="645" y="213"/>
      <point x="645" y="367" type="curve" smooth="yes"/>
      <point x="645" y="516"/>
      <point x="542" y="596"/>
      <point x="348" y="596" type="curve" smooth="yes"/>
    </contour>
    <contour>
      <point x="106" y="700" type="line"/>
      <point x="106" y="0" type="line"/>
      <point x="186" y="0" type="line"/>
      <point x="186" y="700" type="line"/>
    </contour>
  </outline>
</glyph>
<glyph name="germandbls" format="1">
  <advance width="649"/>
  <unicode hex="00DF"/>
  <outline>
    <contour>
      <point x="183" y="746"/>
      <point x="90" y="645"/>
      <point x="90" y="490" type="curve" smooth="yes"/>
      <point x="90" y="0" type="line"/>
      <point x="167" y="0" type="line"/>
      <point x="167" y="495" type="line" smooth="yes"/>
      <point x="167" y="606"/>
      <point x="231" y="678"/>
      <point x="331" y="678" type="curve" smooth="yes"/>
      <point x="419" y="678"/>
      <point x="477" y="626"/>
      <point x="477" y="545" type="curve" smooth="yes"/>
      <point x="477" y="459"/>
      <point x="413" y="403"/>
      <point x="314" y="403" type="curve"/>
      <point x="314" y="339" type="line"/>
      <point x="324" y="339" type="line"/>
      <point x="440" y="339"/>
      <point x="515" y="288"/>
      <point x="515" y="203" type="curve" smooth="yes"/>
      <point x="515" y="122"/>
      <point x="447" y="65"/>
      <point x="343" y="65" type="curve" smooth="yes"/>
      <point x="285" y="65" type="line"/>
      <point x="285" y="0" type="line"/>
      <point x="338" y="0" type="line" smooth="yes"/>
      <point x="492" y="0"/>
      <point x="591" y="85"/>
      <point x="591" y="206" type="curve" smooth="yes"/>
      <point x="591" y="303"/>
      <point x="522" y="363"/>
      <point x="424" y="380" type="curve"/>
      <point x="502" y="403"/>
      <point x="552" y="472"/>
      <point x="552" y="556" type="curve" smooth="yes"/>
      <point x="552" y="671"/>
      <point x="463" y="746"/>
      <point x="332" y="746" type="curve" smooth="yes"/>
    </contour>
  </outline>
</glyph>
<glyph name="ae" format="1">
  <advance width="979"/>
  <unicode hex="00E6"/>
  <outline>
    <contour>
      <point x="556" y="124" type="move"/>
    </contour>
    <contour>
      <point x="219" y="530"/>
      <point x="148" y="504"/>
      <point x="79" y="461" type="curve"/>
      <point x="101" y="402" type="line"/>
      <point x="160" y="440"/>
      <point x="218" y="462"/>
      <point x="280" y="462" type="curve"/>
      <point x="373" y="462"/>
      <point x="422" y="416"/>
      <point x="422" y="339" type="curve"/>
      <point x="424" y="221" type="line"/>
      <point x="500" y="204" type="line"/>
      <point x="499" y="348" type="line"/>
      <point x="498" y="461"/>
      <point x="425" y="530"/>
      <point x="294" y="530" type="curve"/>
    </contour>
    <contour>
      <point x="249" y="297" type="line"/>
      <point x="125" y="297"/>
      <point x="50" y="245"/>
      <point x="50" y="153" type="curve"/>
      <point x="50" y="62"/>
      <point x="121" y="-4"/>
      <point x="229" y="-4" type="curve"/>
      <point x="341" y="-4"/>
      <point x="425" y="46"/>
      <point x="467" y="150" type="curve"/>
      <point x="434" y="191" type="line"/>
      <point x="397" y="92"/>
      <point x="331" y="56"/>
      <point x="245" y="56" type="curve"/>
      <point x="172" y="56"/>
      <point x="124" y="98"/>
      <point x="124" y="160" type="curve"/>
      <point x="124" y="218"/>
      <point x="174" y="250"/>
      <point x="262" y="250" type="curve"/>
      <point x="436" y="250" type="line"/>
      <point x="436" y="297" type="line"/>
    </contour>
    <contour>
      <point x="486" y="247" type="line"/>
      <point x="941" y="247" type="line"/>
      <point x="944" y="414"/>
      <point x="843" y="530"/>
      <point x="686" y="530" type="curve" smooth="yes"/>
      <point x="537" y="530"/>
      <point x="433" y="420"/>
      <point x="433" y="263" type="curve" smooth="yes"/>
      <point x="433" y="106"/>
      <point x="536" y="-3"/>
      <point x="688" y="-3" type="curve" smooth="yes"/>
      <point x="775" y="-3"/>
      <point x="849" y="29"/>
      <point x="900" y="85" type="curve"/>
      <point x="856" y="131" type="line"/>
      <point x="815" y="88"/>
      <point x="758" y="65"/>
      <point x="693" y="65" type="curve" smooth="yes"/>
      <point x="581" y="65"/>
      <point x="500" y="145"/>
      <point x="500" y="267" type="curve" smooth="yes"/>
      <point x="500" y="384"/>
      <point x="577" y="468"/>
      <point x="687" y="468" type="curve" smooth="yes"/>
      <point x="789" y="468"/>
      <point x="857" y="396"/>
      <point x="863" y="294" type="curve"/>
      <point x="486" y="294" type="line"/>
    </contour>
    <contour>
      <point x="490" y="527" type="move" name="top"/>
    </contour>
  </outline>
</glyph>
<glyph name="eth" format="1">
  <advance width="581"/>
  <unicode hex="00F0"/>
  <outline>
    <contour>
      <point x="136" y="704" type="line"/>
      <point x="293" y="624"/>
      <point x="421" y="484"/>
      <point x="462" y="345" type="curve"/>
      <point x="430" y="404"/>
      <point x="356" y="441"/>
      <point x="273" y="441" type="curve" smooth="yes"/>
      <point x="135" y="441"/>
      <point x="46" y="356"/>
      <point x="46" y="224" type="curve" smooth="yes"/>
      <point x="46" y="86"/>
      <point x="139" y="-4"/>
      <point x="282" y="-4" type="curve" smooth="yes"/>
      <point x="439" y="-4"/>
      <point x="541" y="97"/>
      <point x="541" y="252" type="curve" smooth="yes"/>
      <point x="541" y="444"/>
      <point x="402" y="638"/>
      <point x="187" y="745" type="curve"/>
    </contour>
    <contour>
      <point x="392" y="380"/>
      <point x="458" y="318"/>
      <point x="458" y="223" type="curve"/>
      <point x="458" y="130"/>
      <point x="392" y="70"/>
      <point x="288" y="70" type="curve" smooth="yes"/>
      <point x="187" y="70"/>
      <point x="121" y="132"/>
      <point x="121" y="229" type="curve" smooth="yes"/>
      <point x="121" y="321"/>
      <point x="186" y="380"/>
      <point x="289" y="380" type="curve" smooth="yes"/>
    </contour>
    <contour>
      <point x="143" y="586" type="line"/>
      <point x="156" y="541" type="line"/>
      <point x="474" y="643" type="line"/>
      <point x="461" y="689" type="line"/>
    </contour>
  </outline>
</glyph>
<glyph name="divide" format="1">
  <advance width="491"/>
  <unicode hex="00F7"/>
  <outline>
    <contour>
      <point x="37" y="352" type="line"/>
      <point x="37" y="294" type="line"/>
      <point x="454" y="294" type="line"/>
      <point x="454" y="352" type="line"/>
    </contour>
    <component base="dotaccent" xOffset="79" yOffset="-133" xScale="0.94" yScale="0.94"/>
    <component base="dotaccent" xOffset="79" yOffset="-487" xScale="0.94" yScale="0.94"/>
  </outline>
</glyph>
<glyph name="oslash" format="1">
  <advance width="618"/>
  <unicode hex="00F8"/>
  <outline>
    <contour>
      <point x="417" y="661" type="line"/>
      <point x="157" y="-148" type="line"/>
      <point x="197" y="-148" type="line"/>
      <point x="457" y="661" type="line"/>
    </contour>
    <contour>
      <point x="153" y="529"/>
      <point x="42" y="421"/>
      <point x="42" y="264" type="curve" smooth="yes"/>
      <point x="42" y="106"/>
      <point x="153" y="-3"/>
      <point x="309" y="-3" type="curve" smooth="yes"/>
      <point x="466" y="-3"/>
      <point x="577" y="106"/>
      <point x="577" y="264" type="curve" smooth="yes"/>
      <point x="577" y="421"/>
      <point x="466" y="529"/>
      <point x="309" y="529" type="curve" smooth="yes"/>
    </contour>
    <contour>
      <point x="422" y="464"/>
      <point x="502" y="382"/>
      <point x="502" y="263" type="curve" smooth="yes"/>
      <point x="502" y="143"/>
      <point x="422" y="61"/>
      <point x="309" y="61" type="curve" smooth="yes"/>
      <point x="196" y="61"/>
      <point x="116" y="143"/>
      <point x="116" y="263" type="curve" smooth="yes"/>
      <point x="116" y="382"/>
      <point x="196" y="464"/>
      <point x="309" y="464" type="curve" smooth="yes"/>
    </contour>
    <contour>
      <point x="309" y="527" type="move" name="top"/>
    </contour>
  </outline>
</glyph>
<glyph name="Aogonek" format="1">
  <advance width="718"/>
  <unicode hex="0104"/>
  <outline>
    <contour>
      <point x="317" y="700" type="line"/>
      <point x="4" y="0" type="line"/>
      <point x="89" y="0" type="line"/>
      <point x="168" y="177" type="line"/>
      <point x="548" y="177" type="line"/>
      <point x="627" y="0" type="line"/>
      <point x="649" y="0" type="line"/>
      <point x="612" y="-52"/>
      <point x="594" y="-91"/>
      <point x="594" y="-126" type="curve" smooth="yes"/>
      <point x="594" y="-176"/>
      <point x="630" y="-200"/>
      <point x="667" y="-200" type="curve" smooth="yes"/>
      <point x="700" y="-200"/>
      <point x="733" y="-180"/>
      <point x="754" y="-149" type="curve"/>
      <point x="728" y="-119" type="line"/>
      <point x="712" y="-138"/>
      <point x="695" y="-152"/>
      <point x="675" y="-152" type="curve" smooth="yes"/>
      <point x="654" y="-152"/>
      <point x="640" y="-138"/>
      <point x="640" y="-114" type="curve" smooth="yes"/>
      <point x="640" y="-89"/>
      <point x="652" y="-55"/>
      <point x="693" y="0" type="curve"/>
      <point x="713" y="0" type="line"/>
      <point x="400" y="700" type="line"/>
    </contour>
    <contour>
      <point x="519" y="253" type="line"/>
      <point x="197" y="253" type="line"/>
      <point x="357" y="610" type="line"/>
    </contour>
  </outline>
</glyph>
<glyph name="aogonek" format="1">
  <advance width="581"/>
  <unicode hex="0105"/>
  <outline>
    <contour>
      <point x="204" y="530"/>
      <point x="148" y="504"/>
      <point x="79" y="459" type="curve"/>
      <point x="113" y="402" type="line"/>
      <point x="167" y="440"/>
      <point x="221" y="462"/>
      <point x="281" y="462" type="curve" smooth="yes"/>
      <point x="374" y="462"/>
      <point x="421" y="416"/>
      <point x="422" y="339" type="curve" smooth="yes"/>
      <point x="422" y="308" type="line"/>
      <point x="248" y="308" type="line" smooth="yes"/>
      <point x="124" y="307"/>
      <point x="50" y="249"/>
      <point x="50" y="156" type="curve" smooth="yes"/>
      <point x="50" y="67"/>
      <point x="118" y="-4"/>
      <point x="233" y="-4" type="curve" smooth="yes"/>
      <point x="311" y="-4"/>
      <point x="381" y="23"/>
      <point x="423" y="80" type="curve"/>
      <point x="423" y="2" type="line"/>
      <point x="436" y="2" type="line"/>
      <point x="388" y="-50"/>
      <point x="368" y="-90"/>
      <point x="368" y="-126" type="curve" smooth="yes"/>
      <point x="368" y="-176"/>
      <point x="403" y="-200"/>
      <point x="440" y="-200" type="curve" smooth="yes"/>
      <point x="473" y="-200"/>
      <point x="505" y="-181"/>
      <point x="528" y="-149" type="curve"/>
      <point x="502" y="-119" type="line"/>
      <point x="486" y="-138"/>
      <point x="468" y="-152"/>
      <point x="449" y="-152" type="curve" smooth="yes"/>
      <point x="428" y="-152"/>
      <point x="413" y="-138"/>
      <point x="413" y="-114" type="curve" smooth="yes"/>
      <point x="413" y="-88"/>
      <point x="429" y="-54"/>
      <point x="478" y="0" type="curve"/>
      <point x="500" y="0" type="line"/>
      <point x="500" y="348" type="line"/>
      <point x="498" y="461"/>
      <point x="425" y="530"/>
      <point x="296" y="530" type="curve" smooth="yes"/>
    </contour>
    <contour>
      <point x="422" y="179" type="line"/>
      <point x="403" y="110"/>
      <point x="329" y="64"/>
      <point x="247" y="64" type="curve" smooth="yes"/>
      <point x="167" y="64"/>
      <point x="123" y="104"/>
      <point x="123" y="159" type="curve" smooth="yes"/>
      <point x="123" y="218"/>
      <point x="168" y="245"/>
      <point x="258" y="245" type="curve" smooth="yes"/>
      <point x="422" y="245" type="line"/>
    </contour>
  </outline>
</glyph>
<glyph name="dcaron" format="1">
  <advance width="698"/>
  <unicode hex="010F"/>
  <outline>
    <contour>
      <point x="311" y="-93" type="move"/>
    </contour>
    <component base="d"/>
    <component base="quoteright" xOffset="594" yOffset="-10"/>
  </outline>
</glyph>
<glyph name="dcroat" format="1">
  <advance width="674"/>
  <unicode hex="0111"/>
  <outline>
    <contour>
      <point x="393" y="680" type="line"/>
      <point x="393" y="630" type="line"/>
      <point x="650" y="630" type="line"/>
      <point x="650" y="680" type="line"/>
    </contour>
    <component base="d"/>
  </outline>
</glyph>
<glyph name="Eogonek" format="1">
  <advance width="657"/>
  <unicode hex="0118"/>
  <outline>
    <contour>
      <point x="106" y="700" type="line"/>
      <point x="106" y="0" type="line"/>
      <point x="493" y="0" type="line"/>
      <point x="455" y="-54"/>
      <point x="438" y="-91"/>
      <point x="438" y="-126" type="curve" smooth="yes"/>
      <point x="438" y="-176"/>
      <point x="473" y="-200"/>
      <point x="511" y="-200" type="curve" smooth="yes"/>
      <point x="544" y="-200"/>
      <point x="577" y="-180"/>
      <point x="598" y="-149" type="curve"/>
      <point x="572" y="-119" type="line"/>
      <point x="556" y="-138"/>
      <point x="538" y="-152"/>
      <point x="519" y="-152" type="curve" smooth="yes"/>
      <point x="499" y="-152"/>
      <point x="483" y="-138"/>
      <point x="483" y="-114" type="curve" smooth="yes"/>
      <point x="483" y="-88"/>
      <point x="496" y="-56"/>
      <point x="537" y="0" type="curve"/>
      <point x="600" y="0" type="line"/>
      <point x="600" y="70" type="line"/>
      <point x="186" y="70" type="line"/>
      <point x="186" y="322" type="line"/>
      <point x="545" y="322" type="line"/>
      <point x="545" y="392" type="line"/>
      <point x="186" y="392" type="line"/>
      <point x="186" y="629" type="line"/>
      <point x="587" y="629" type="line"/>
      <point x="587" y="700" type="line"/>
    </contour>
  </outline>
</glyph>
<glyph name="eogonek" format="1">
  <advance width="588"/>
  <unicode hex="0119"/>
  <outline>
    <contour>
      <point x="141" y="525"/>
      <point x="42" y="414"/>
      <point x="42" y="265" type="curve" smooth="yes"/>
      <point x="42" y="106"/>
      <point x="150" y="-3"/>
      <point x="302" y="-3" type="curve" smooth="yes"/>
      <point x="353" y="-3"/>
      <point x="396" y="10"/>
      <point x="437" y="36" type="curve"/>
      <point x="390" y="-27"/>
      <point x="370" y="-81"/>
      <point x="370" y="-125" type="curve" smooth="yes"/>
      <point x="370" y="-177"/>
      <point x="405" y="-200"/>
      <point x="443" y="-200" type="curve" smooth="yes"/>
      <point x="477" y="-200"/>
      <point x="508" y="-179"/>
      <point x="529" y="-149" type="curve"/>
      <point x="503" y="-119" type="line"/>
      <point x="488" y="-137"/>
      <point x="470" y="-152"/>
      <point x="451" y="-152" type="curve" smooth="yes"/>
      <point x="430" y="-152"/>
      <point x="415" y="-139"/>
      <point x="415" y="-113" type="curve" smooth="yes"/>
      <point x="415" y="-66"/>
      <point x="448" y="1"/>
      <point x="516" y="85" type="curve"/>
      <point x="473" y="131" type="line"/>
      <point x="433" y="88"/>
      <point x="374" y="64"/>
      <point x="311" y="64" type="curve" smooth="yes"/>
      <point x="204" y="64"/>
      <point x="132" y="133"/>
      <point x="121" y="233" type="curve"/>
      <point x="549" y="233" type="line"/>
      <point x="557" y="415"/>
      <point x="467" y="532"/>
      <point x="303" y="529" type="curve" smooth="yes"/>
    </contour>
    <contour>
      <point x="406" y="462"/>
      <point x="473" y="395"/>
      <point x="479" y="297" type="curve"/>
      <point x="119" y="297" type="line"/>
      <point x="127" y="395"/>
      <point x="202" y="462"/>
      <point x="304" y="462" type="curve" smooth="yes"/>
    </contour>
  </outline>
</glyph>
<glyph name="hbar" format="1">
  <advance width="748"/>
  <unicode hex="0127"/>
  <outline>
    <contour>
      <point x="13" y="650" type="line"/>
      <point x="13" y="598" type="line"/>
      <point x="333" y="598" type="line"/>
      <point x="333" y="650" type="line"/>
    </contour>
    <component base="h"/>
  </outline>
</glyph>
<glyph name="Iogonek" format="1">
  <advance width="292"/>
  <unicode hex="012E"/>
  <outline>
    <contour>
      <point x="206" y="-119" type="line"/>
      <point x="190" y="-138"/>
      <point x="173" y="-152"/>
      <point x="153" y="-152" type="curve" smooth="yes"/>
      <point x="132" y="-152"/>
      <point x="118" y="-138"/>
      <point x="118" y="-114" type="curve" smooth="yes"/>
      <point x="118" y="-88"/>
      <point x="131" y="-54"/>
      <point x="171" y="0" type="curve"/>
      <point x="186" y="0" type="line"/>
      <point x="186" y="700" type="line"/>
      <point x="106" y="700" type="line"/>
      <point x="106" y="1" type="line"/>
      <point x="128" y="1" type="line"/>
      <point x="90" y="-51"/>
      <point x="72" y="-91"/>
      <point x="72" y="-126" type="curve" smooth="yes"/>
      <point x="72" y="-176"/>
      <point x="107" y="-200"/>
      <point x="145" y="-200" type="curve" smooth="yes"/>
      <point x="178" y="-200"/>
      <point x="211" y="-180"/>
      <point x="232" y="-149" type="curve"/>
    </contour>
  </outline>
</glyph>
<glyph name="iogonek" format="1">
  <advance width="253"/>
  <unicode hex="012F"/>
  <outline>
    <contour>
      <point x="88" y="527" type="line"/>
      <point x="88" y="0" type="line"/>
      <point x="108" y="0" type="line"/>
      <point x="73" y="-52"/>
      <point x="56" y="-91"/>
      <point x="56" y="-126" type="curve" smooth="yes"/>
      <point x="56" y="-176"/>
      <point x="91" y="-200"/>
      <point x="129" y="-200" type="curve" smooth="yes"/>
      <point x="162" y="-200"/>
      <point x="195" y="-180"/>
      <point x="216" y="-149" type="curve"/>
      <point x="190" y="-119" type="line"/>
      <point x="174" y="-138"/>
      <point x="157" y="-152"/>
      <point x="137" y="-152" type="curve" smooth="yes"/>
      <point x="116" y="-152"/>
      <point x="102" y="-138"/>
      <point x="102" y="-114" type="curve" smooth="yes"/>
      <point x="102" y="-88"/>
      <point x="114" y="-54"/>
      <point x="151" y="0" type="curve"/>
      <point x="167" y="0" type="line"/>
      <point x="167" y="527" type="line"/>
    </contour>
    <contour>
      <point x="98" y="733"/>
      <point x="76" y="709"/>
      <point x="76" y="678" type="curve" smooth="yes"/>
      <point x="76" y="646"/>
      <point x="98" y="623"/>
      <point x="127" y="623" type="curve" smooth="yes"/>
      <point x="156" y="623"/>
      <point x="178" y="646"/>
      <point x="178" y="678" type="curve" smooth="yes"/>
      <point x="178" y="709"/>
      <point x="156" y="733"/>
      <point x="127" y="733" type="curve" smooth="yes"/>
    </contour>
  </outline>
</glyph>
<glyph name="kcedilla" format="1">
  <advance width="573"/>
  <unicode hex="0137"/>
  <outline>
    <contour>
      <point x="158" y="6" type="line"/>
      <point x="109" y="6" type="line"/>
      <point x="75" y="-68" type="line"/>
      <point x="82" y="-68"/>
      <point x="97" y="-67"/>
      <point x="106" y="-67" type="curve" smooth="yes"/>
      <point x="134" y="-67"/>
      <point x="155" y="-85"/>
      <point x="156" y="-112" type="curve" smooth="yes"/>
      <point x="157" y="-143"/>
      <point x="134" y="-165"/>
      <point x="99" y="-165" type="curve" smooth="yes"/>
      <point x="80" y="-165"/>
      <point x="57" y="-157"/>
      <point x="43" y="-146" type="curve"/>
      <point x="26" y="-188" type="line"/>
      <point x="46" y="-202"/>
      <point x="79" y="-212"/>
      <point x="105" y="-212" type="curve" smooth="yes"/>
      <point x="166" y="-212"/>
      <point x="206" y="-174"/>
      <point x="205" y="-119" type="curve" smooth="yes"/>
      <point x="204" y="-81"/>
      <point x="175" y="-50"/>
      <point x="134" y="-46" type="curve"/>
    </contour>
    <component base="k"/>
  </outline>
</glyph>
<glyph name="kgreenlandic" format="1">
  <advance width="569"/>
  <unicode hex="0138"/>
  <outline>
    <contour>
      <point x="230" y="111" type="move"/>
    </contour>
    <contour>
      <point x="95" y="527" type="line"/>
      <point x="95" y="0" type="line"/>
      <point x="172" y="0" type="line"/>
      <point x="172" y="527" type="line"/>
    </contour>
    <contour>
      <point x="445" y="527" type="line"/>
      <point x="165" y="248" type="line"/>
      <point x="165" y="143" type="line"/>
      <point x="536" y="527" type="line"/>
    </contour>
    <contour>
      <point x="272" y="285" type="line"/>
      <point x="465" y="0" type="line"/>
      <point x="557" y="0" type="line"/>
      <point x="330" y="337" type="line"/>
    </contour>
    <contour>
      <point x="226" y="10" type="move" name="ogonek"/>
    </contour>
    <contour>
      <point x="282" y="0" type="move" name="bottom"/>
    </contour>
    <contour>
      <point x="133" y="527" type="move" name="top"/>
    </contour>
  </outline>
</glyph>
<glyph name="ldot" format="1">
  <advance width="296"/>
  <unicode hex="0140"/>
  <outline>
    <contour>
      <point x="248" y="359"/>
      <point x="228" y="337"/>
      <point x="228" y="308" type="curve" smooth="yes"/>
      <point x="228" y="279"/>
      <point x="248" y="257"/>
      <point x="276" y="257" type="curve" smooth="yes"/>
      <point x="303" y="257"/>
      <point x="323" y="279"/>
      <point x="323" y="308" type="curve" smooth="yes"/>
      <point x="323" y="337"/>
      <point x="303" y="359"/>
      <point x="276" y="359" type="curve" smooth="yes"/>
    </contour>
    <component base="l"/>
  </outline>
</glyph>
<glyph name="Lslash" format="1">
  <advance width="532"/>
  <unicode hex="0141"/>
  <outline>
    <contour>
      <point x="17" y="423" type="line"/>
      <point x="31" y="367" type="line"/>
      <point x="383" y="470" type="line"/>
      <point x="369" y="527" type="line"/>
    </contour>
    <component base="L" xOffset="15"/>
  </outline>
</glyph>
<glyph name="lslash" format="1">
  <advance width="289"/>
  <unicode hex="0142"/>
  <outline>
    <contour>
      <point x="-13" y="435" type="line"/>
      <point x="1" y="379" type="line"/>
      <point x="310" y="470" type="line"/>
      <point x="296" y="527" type="line"/>
    </contour>
    <component base="l" xOffset="14"/>
  </outline>
</glyph>
<glyph name="OE" format="1">
  <advance width="1094"/>
  <unicode hex="0152"/>
  <outline>
    <contour>
      <point x="406" y="700" type="line"/>
      <point x="201" y="700"/>
      <point x="40" y="545"/>
      <point x="40" y="350" type="curve" smooth="yes"/>
      <point x="40" y="154"/>
      <point x="202" y="0"/>
      <point x="406" y="0" type="curve"/>
      <point x="572" y="0" type="line"/>
      <point x="572" y="75" type="line"/>
      <point x="406" y="76" type="line"/>
      <point x="247" y="76"/>
      <point x="121" y="195"/>
      <point x="121" y="349" type="curve" smooth="yes"/>
      <point x="121" y="503"/>
      <point x="247" y="623"/>
      <point x="406" y="623" type="curve"/>
      <point x="567" y="623" type="line"/>
      <point x="569" y="700" type="line"/>
    </contour>
    <contour>
      <point x="549" y="700" type="line"/>
      <point x="549" y="0" type="line"/>
      <point x="1037" y="0" type="line"/>
      <point x="1037" y="77" type="line"/>
      <point x="629" y="77" type="line"/>
      <point x="629" y="316" type="line"/>
      <point x="982" y="316" type="line"/>
      <point x="982" y="392" type="line"/>
      <point x="629" y="392" type="line"/>
      <point x="629" y="623" type="line"/>
      <point x="1025" y="623" type="line"/>
      <point x="1025" y="700" type="line"/>
    </contour>
    <contour>
      <point x="1035" y="10" type="move" name="ogonek"/>
    </contour>
    <contour>
      <point x="770" y="0" type="move" name="bottom"/>
    </contour>
    <contour>
      <point x="549" y="700" type="move" name="top"/>
    </contour>
  </outline>
</glyph>
<glyph name="oe" format="1">
  <advance width="1054"/>
  <unicode hex="0153"/>
  <outline>
    <contour>
      <point x="373" y="216" type="move"/>
    </contour>
    <contour>
      <point x="153" y="529"/>
      <point x="42" y="421"/>
      <point x="42" y="264" type="curve" smooth="yes"/>
      <point x="42" y="106"/>
      <point x="153" y="-3"/>
      <point x="309" y="-3" type="curve" smooth="yes"/>
      <point x="461" y="-3"/>
      <point x="563" y="106"/>
      <point x="563" y="264" type="curve" smooth="yes"/>
      <point x="563" y="421"/>
      <point x="461" y="529"/>
      <point x="309" y="529" type="curve" smooth="yes"/>
    </contour>
    <contour>
      <point x="419" y="458"/>
      <point x="498" y="378"/>
      <point x="498" y="263" type="curve" smooth="yes"/>
      <point x="498" y="147"/>
      <point x="419" y="67"/>
      <point x="309" y="67" type="curve" smooth="yes"/>
      <point x="199" y="67"/>
      <point x="120" y="147"/>
      <point x="120" y="263" type="curve" smooth="yes"/>
      <point x="120" y="378"/>
      <point x="199" y="458"/>
      <point x="309" y="458" type="curve" smooth="yes"/>
    </contour>
    <contour>
      <point x="558" y="247" type="line"/>
      <point x="1015" y="247" type="line"/>
      <point x="1018" y="414"/>
      <point x="917" y="529"/>
      <point x="759" y="529" type="curve" smooth="yes"/>
      <point x="611" y="529"/>
      <point x="510" y="420"/>
      <point x="510" y="263" type="curve" smooth="yes"/>
      <point x="510" y="106"/>
      <point x="609" y="-3"/>
      <point x="761" y="-3" type="curve" smooth="yes"/>
      <point x="848" y="-3"/>
      <point x="922" y="29"/>
      <point x="973" y="85" type="curve"/>
      <point x="930" y="131" type="line"/>
      <point x="889" y="88"/>
      <point x="831" y="65"/>
      <point x="766" y="65" type="curve" smooth="yes"/>
      <point x="653" y="65"/>
      <point x="572" y="145"/>
      <point x="572" y="267" type="curve" smooth="yes"/>
      <point x="572" y="384"/>
      <point x="649" y="467"/>
      <point x="760" y="467" type="curve" smooth="yes"/>
      <point x="863" y="467"/>
      <point x="931" y="396"/>
      <point x="937" y="295" type="curve"/>
      <point x="558" y="295" type="line"/>
    </contour>
    <contour>
      <point x="529" y="527" type="move" name="top"/>
    </contour>
  </outline>
</glyph>
<glyph name="tcaron" format="1">
  <advance width="374"/>
  <unicode hex="0165"/>
  <outline>
    <contour>
      <point x="179" y="-107" type="move"/>
    </contour>
    <component base="t"/>
    <component base="quoteright" xOffset="217" yOffset="58"/>
  </outline>
</glyph>
<glyph name="Uogonek" format="1">
  <advance width="769"/>
  <unicode hex="0172"/>
  <outline>
    <contour>
      <point x="598" y="700" type="line"/>
      <point x="598" y="288" type="line"/>
      <point x="598" y="152"/>
      <point x="518" y="73"/>
      <point x="385" y="73" type="curve"/>
      <point x="251" y="73"/>
      <point x="169" y="152"/>
      <point x="169" y="288" type="curve"/>
      <point x="169" y="700" type="line"/>
      <point x="90" y="700" type="line"/>
      <point x="90" y="288" type="line"/>
      <point x="90" y="106"/>
      <point x="200" y="-4"/>
      <point x="384" y="-4" type="curve"/>
      <point x="567" y="-4"/>
      <point x="678" y="106"/>
      <point x="678" y="288" type="curve"/>
      <point x="678" y="700" type="line"/>
    </contour>
    <contour>
      <point x="443" y="16" type="line"/>
      <point x="398" y="-44"/>
      <point x="377" y="-87"/>
      <point x="377" y="-126" type="curve" smooth="yes"/>
      <point x="377" y="-176"/>
      <point x="412" y="-200"/>
      <point x="450" y="-200" type="curve" smooth="yes"/>
      <point x="483" y="-200"/>
      <point x="516" y="-180"/>
      <point x="537" y="-149" type="curve"/>
      <point x="511" y="-119" type="line"/>
      <point x="495" y="-138"/>
      <point x="478" y="-152"/>
      <point x="458" y="-152" type="curve" smooth="yes"/>
      <point x="437" y="-152"/>
      <point x="423" y="-138"/>
      <point x="423" y="-114" type="curve" smooth="yes"/>
      <point x="423" y="-85"/>
      <point x="439" y="-47"/>
      <point x="487" y="16" type="curve"/>
    </contour>
  </outline>
</glyph>
<glyph name="uogonek" format="1">
  <advance width="645"/>
  <unicode hex="0173"/>
  <outline>
    <contour>
      <point x="476" y="527" type="line"/>
      <point x="476" y="244" type="line"/>
      <point x="468" y="144"/>
      <point x="403" y="76"/>
      <point x="303" y="75" type="curve" smooth="yes"/>
      <point x="212" y="74"/>
      <point x="155" y="129"/>
      <point x="155" y="223" type="curve" smooth="yes"/>
      <point x="155" y="527" type="line"/>
      <point x="78" y="527" type="line"/>
      <point x="78" y="202" type="line" smooth="yes"/>
      <point x="78" y="75"/>
      <point x="150" y="-3"/>
      <point x="275" y="-3" type="curve" smooth="yes"/>
      <point x="372" y="-2"/>
      <point x="441" y="37"/>
      <point x="476" y="114" type="curve"/>
      <point x="476" y="2" type="line"/>
      <point x="495" y="2" type="line"/>
      <point x="453" y="-53"/>
      <point x="436" y="-92"/>
      <point x="436" y="-127" type="curve" smooth="yes"/>
      <point x="436" y="-178"/>
      <point x="474" y="-200"/>
      <point x="509" y="-200" type="curve" smooth="yes"/>
      <point x="542" y="-200"/>
      <point x="574" y="-181"/>
      <point x="596" y="-149" type="curve"/>
      <point x="571" y="-119" type="line"/>
      <point x="554" y="-139"/>
      <point x="537" y="-152"/>
      <point x="517" y="-152" type="curve" smooth="yes"/>
      <point x="497" y="-152"/>
      <point x="482" y="-139"/>
      <point x="482" y="-114" type="curve" smooth="yes"/>
      <point x="482" y="-90"/>
      <point x="494" y="-54"/>
      <point x="538" y="0" type="curve"/>
      <point x="554" y="0" type="line"/>
      <point x="554" y="527" type="line"/>
    </contour>
  </outline>
</glyph>
<glyph name="florin" format="1">
  <advance width="348"/>
  <unicode hex="0192"/>
  <outline>
    <contour>
      <point x="214" y="753"/>
      <point x="146" y="689"/>
      <point x="134" y="589" type="curve" smooth="yes"/>
      <point x="59" y="-23" type="line" smooth="yes"/>
      <point x="51" y="-87"/>
      <point x="25" y="-129"/>
      <point x="-29" y="-128" type="curve" smooth="yes"/>
      <point x="-52" y="-127"/>
      <point x="-79" y="-116"/>
      <point x="-98" y="-99" type="curve"/>
      <point x="-123" y="-160" type="line"/>
      <point x="-97" y="-182"/>
      <point x="-57" y="-197"/>
      <point x="-22" y="-198" type="curve" smooth="yes"/>
      <point x="70" y="-199"/>
      <point x="122" y="-134"/>
      <point x="135" y="-34" type="curve" smooth="yes"/>
      <point x="210" y="578" type="line" smooth="yes"/>
      <point x="218" y="643"/>
      <point x="260" y="683"/>
      <point x="315" y="682" type="curve" smooth="yes"/>
      <point x="340" y="681"/>
      <point x="370" y="670"/>
      <point x="392" y="654" type="curve"/>
      <point x="422" y="714" type="line"/>
      <point x="392" y="736"/>
      <point x="347" y="751"/>
      <point x="306" y="752" type="curve" smooth="yes"/>
    </contour>
    <contour>
      <point x="51" y="463" type="line"/>
      <point x="45" y="404" type="line"/>
      <point x="341" y="404" type="line"/>
      <point x="347" y="463" type="line"/>
    </contour>
  </outline>
</glyph>
<glyph name="dotlessj" format="1">
  <advance width="253"/>
  <unicode hex="0237"/>
  <outline>
    <contour>
      <point x="92" y="527" type="line"/>
      <point x="92" y="-16" type="line"/>
      <point x="92" y="-89"/>
      <point x="64" y="-128"/>
      <point x="11" y="-127" type="curve"/>
      <point x="-17" y="-126"/>
      <point x="-45" y="-117"/>
      <point x="-69" y="-99" type="curve"/>
      <point x="-92" y="-160" type="line"/>
      <point x="-58" y="-183"/>
      <point x="-17" y="-196"/>
      <point x="26" y="-197" type="curve"/>
      <point x="118" y="-198"/>
      <point x="170" y="-137"/>
      <point x="170" y="-26" type="curve"/>
      <point x="170" y="527" type="line"/>
    </contour>
    <contour>
      <point x="128" y="527" type="move" name="top"/>
    </contour>
  </outline>
</glyph>
<glyph name="circumflex" format="1">
  <advance width="350"/>
  <unicode hex="02C6"/>
  <outline>
    <contour>
      <point x="136" y="748" type="line"/>
      <point x="35" y="618" type="line"/>
      <point x="103" y="618" type="line"/>
      <point x="175" y="708" type="line"/>
      <point x="246" y="618" type="line"/>
      <point x="314" y="618" type="line"/>
      <point x="213" y="748" type="line"/>
    </contour>
    <contour>
      <point x="175" y="529" type="move" name="_top"/>
    </contour>
  </outline>
</glyph>
<glyph name="caron" format="1">
  <advance width="350"/>
  <unicode hex="02C7"/>
  <outline>
    <contour>
      <point x="216" y="611" type="line"/>
      <point x="320" y="748" type="line"/>
      <point x="248" y="748" type="line"/>
      <point x="175" y="654" type="line"/>
      <point x="103" y="748" type="line"/>
      <point x="30" y="748" type="line"/>
      <point x="135" y="611" type="line"/>
    </contour>
    <contour>
      <point x="177" y="529" type="move" name="_top"/>
    </contour>
  </outline>
</glyph>
<glyph name="breve" format="1">
  <advance width="350"/>
  <unicode hex="02D8"/>
  <outline>
    <contour>
      <point x="247" y="741" type="line"/>
      <point x="245" y="700"/>
      <point x="215" y="669"/>
      <point x="175" y="669" type="curve" smooth="yes"/>
      <point x="135" y="669"/>
      <point x="105" y="700"/>
      <point x="103" y="741" type="curve"/>
      <point x="48" y="741" type="line"/>
      <point x="51" y="665"/>
      <point x="104" y="612"/>
      <point x="175" y="612" type="curve" smooth="yes"/>
      <point x="246" y="612"/>
      <point x="299" y="665"/>
      <point x="302" y="741" type="curve"/>
    </contour>
    <contour>
      <point x="175" y="528" type="move" name="_top"/>
    </contour>
  </outline>
</glyph>
<glyph name="dotaccent" format="1">
  <advance width="350"/>
  <unicode hex="02D9"/>
  <outline>
    <contour>
      <point x="146" y="732"/>
      <point x="124" y="709"/>
      <point x="124" y="678" type="curve" smooth="yes"/>
      <point x="124" y="647"/>
      <point x="146" y="624"/>
      <point x="175" y="624" type="curve" smooth="yes"/>
      <point x="204" y="624"/>
      <point x="226" y="647"/>
      <point x="226" y="678" type="curve" smooth="yes"/>
      <point x="226" y="709"/>
      <point x="204" y="732"/>
      <point x="175" y="732" type="curve" smooth="yes"/>
    </contour>
    <contour>
      <point x="175" y="527" type="move" name="_top"/>
    </contour>
  </outline>
</glyph>
<glyph name="ring" format="1">
  <advance width="350"/>
  <unicode hex="02DA"/>
  <outline>
    <contour>
      <point x="112" y="792"/>
      <point x="60" y="740"/>
      <point x="60" y="679" type="curve" smooth="yes"/>
      <point x="60" y="617"/>
      <point x="112" y="565"/>
      <point x="175" y="565" type="curve" smooth="yes"/>
      <point x="239" y="565"/>
      <point x="291" y="617"/>
      <point x="291" y="679" type="curve" smooth="yes"/>
      <point x="291" y="740"/>
      <point x="239" y="792"/>
      <point x="175" y="792" type="curve" smooth="yes"/>
    </contour>
    <contour>
      <point x="217" y="751"/>
      <point x="253" y="718"/>
      <point x="253" y="679" type="curve" smooth="yes"/>
      <point x="253" y="639"/>
      <point x="217" y="606"/>
      <point x="175" y="606" type="curve" smooth="yes"/>
      <point x="133" y="606"/>
      <point x="98" y="639"/>
      <point x="98" y="679" type="curve" smooth="yes"/>
      <point x="98" y="718"/>
      <point x="133" y="751"/>
      <point x="175" y="751" type="curve" smooth="yes"/>
    </contour>
    <contour>
      <point x="175" y="527" type="move" name="_top"/>
    </contour>
  </outline>
</glyph>
<glyph name="ogonek" format="1">
  <advance width="350"/>
  <unicode hex="02DB"/>
  <outline>
    <contour>
      <point x="156" y="8" type="line"/>
      <point x="116" y="-47"/>
      <point x="96" y="-89"/>
      <point x="96" y="-126" type="curve" smooth="yes"/>
      <point x="96" y="-176"/>
      <point x="131" y="-200"/>
      <point x="169" y="-200" type="curve" smooth="yes"/>
      <point x="202" y="-200"/>
      <point x="234" y="-180"/>
      <point x="256" y="-149" type="curve"/>
      <point x="230" y="-119" type="line"/>
      <point x="214" y="-138"/>
      <point x="196" y="-152"/>
      <point x="177" y="-152" type="curve" smooth="yes"/>
      <point x="157" y="-152"/>
      <point x="141" y="-138"/>
      <point x="141" y="-114" type="curve" smooth="yes"/>
      <point x="141" y="-87"/>
      <point x="157" y="-51"/>
      <point x="200" y="8" type="curve"/>
    </contour>
    <contour>
      <point x="256" y="10" type="move" name="_ogonek"/>
    </contour>
  </outline>
</glyph>
<glyph name="tilde" format="1">
  <advance width="350"/>
  <unicode hex="02DC"/>
  <outline>
    <contour>
      <point x="55" y="745"/>
      <point x="26" y="706"/>
      <point x="26" y="632" type="curve"/>
      <point x="79" y="632" type="line"/>
      <point x="79" y="666"/>
      <point x="94" y="684"/>
      <point x="121" y="684" type="curve" smooth="yes"/>
      <point x="159" y="684"/>
      <point x="184" y="624"/>
      <point x="243" y="624" type="curve" smooth="yes"/>
      <point x="297" y="624"/>
      <point x="326" y="663"/>
      <point x="326" y="737" type="curve"/>
      <point x="273" y="737" type="line"/>
      <point x="273" y="703"/>
      <point x="258" y="685"/>
      <point x="231" y="685" type="curve" smooth="yes"/>
      <point x="193" y="685"/>
      <point x="162" y="745"/>
      <point x="109" y="745" type="curve" smooth="yes"/>
    </contour>
    <contour>
      <point x="175" y="527" type="move" name="_top"/>
    </contour>
  </outline>
</glyph>
<glyph name="hungarumlaut" format="1">
  <advance width="350"/>
  <unicode hex="02DD"/>
  <outline>
    <contour>
      <point x="170" y="614" type="line"/>
      <point x="235" y="614" type="line"/>
      <point x="328" y="721" type="line"/>
      <point x="261" y="755" type="line"/>
    </contour>
    <contour>
      <point x="23" y="614" type="line"/>
      <point x="88" y="614" type="line"/>
      <point x="181" y="721" type="line"/>
      <point x="114" y="755" type="line"/>
    </contour>
    <contour>
      <point x="151" y="529" type="move" name="_top"/>
    </contour>
  </outline>
</glyph>
<glyph name="uni0326" format="1">
  <advance width="196"/>
  <unicode hex="0326"/>
  <outline>
    <contour>
      <point x="42" y="-221" type="line"/>
      <point x="86" y="-221" type="line"/>
      <point x="132" y="-149" type="line" smooth="yes"/>
      <point x="141" y="-135"/>
      <point x="147" y="-121"/>
      <point x="147" y="-105" type="curve" smooth="yes"/>
      <point x="147" y="-74"/>
      <point x="125" y="-55"/>
      <point x="100" y="-55" type="curve" smooth="yes"/>
      <point x="73" y="-55"/>
      <point x="52" y="-76"/>
      <point x="52" y="-105" type="curve" smooth="yes"/>
      <point x="52" y="-132"/>
      <point x="69" y="-155"/>
      <point x="104" y="-156" type="curve"/>
      <point x="89" y="-115" type="line"/>
    </contour>
    <contour>
      <point x="95" y="0" type="move" name="_bottom"/>
    </contour>
  </outline>
</glyph>
<glyph name="Delta" format="1">
  <advance width="718"/>
  <unicode hex="0394"/>
  <outline>
    <contour>
      <point x="317" y="700" type="line"/>
      <point x="4" y="0" type="line"/>
      <point x="88" y="0" type="line"/>
      <point x="357" y="609" type="line"/>
      <point x="627" y="0" type="line"/>
      <point x="713" y="0" type="line"/>
      <point x="400" y="700" type="line"/>
    </contour>
    <contour>
      <point x="72" y="67" type="line"/>
      <point x="72" y="0" type="line"/>
      <point x="641" y="0" type="line"/>
      <point x="641" y="67" type="line"/>
    </contour>
  </outline>
</glyph>
<glyph name="pi" format="1">
  <advance width="722"/>
  <unicode hex="03C0"/>
  <outline>
    <contour>
      <point x="163" y="527" type="line"/>
      <point x="66" y="527"/>
      <point x="-7" y="461"/>
      <point x="-6" y="377" type="curve"/>
      <point x="-5" y="337"/>
      <point x="9" y="292"/>
      <point x="31" y="259" type="curve"/>
      <point x="86" y="283" type="line"/>
      <point x="68" y="308"/>
      <point x="58" y="338"/>
      <point x="57" y="364" type="curve"/>
      <point x="56" y="420"/>
      <point x="105" y="463"/>
      <point x="171" y="463" type="curve"/>
      <point x="713" y="463" type="line"/>
      <point x="714" y="527" type="line"/>
    </contour>
    <contour>
      <point x="486" y="481" type="line"/>
      <point x="486" y="0" type="line"/>
      <point x="552" y="0" type="line"/>
      <point x="552" y="481" type="line"/>
    </contour>
    <contour>
      <point x="238" y="481" type="line"/>
      <point x="183" y="0" type="line"/>
      <point x="249" y="0" type="line"/>
      <point x="305" y="481" type="line"/>
    </contour>
  </outline>
</glyph>
<glyph name="endash" format="1">
  <advance width="403"/>
  <unicode hex="2013"/>
  <outline>
    <contour>
      <point x="0" y="289" type="line"/>
      <point x="0" y="230" type="line"/>
      <point x="403" y="230" type="line"/>
      <point x="403" y="289" type="line"/>
    </contour>
  </outline>
</glyph>
<glyph name="dagger" format="1">
  <advance width="514"/>
  <unicode hex="2020"/>
  <outline>
    <contour>
      <point x="219" y="699" type="line"/>
      <point x="219" y="478" type="line"/>
      <point x="13" y="478" type="line"/>
      <point x="13" y="401" type="line"/>
      <point x="219" y="401" type="line"/>
      <point x="219" y="-191" type="line"/>
      <point x="293" y="-191" type="line"/>
      <point x="293" y="401" type="line"/>
      <point x="501" y="401" type="line"/>
      <point x="501" y="478" type="line"/>
      <point x="293" y="478" type="line"/>
      <point x="293" y="699" type="line"/>
    </contour>
  </outline>
</glyph>
<glyph name="bullet" format="1">
  <advance width="248"/>
  <unicode hex="2022"/>
  <outline>
    <contour>
      <point x="82" y="345"/>
      <point x="51" y="313"/>
      <point x="51" y="268" type="curve" smooth="yes"/>
      <point x="51" y="223"/>
      <point x="82" y="189"/>
      <point x="124" y="189" type="curve" smooth="yes"/>
      <point x="165" y="189"/>
      <point x="197" y="223"/>
      <point x="197" y="268" type="curve" smooth="yes"/>
      <point x="197" y="313"/>
      <point x="165" y="345"/>
      <point x="124" y="345" type="curve" smooth="yes"/>
    </contour>
  </outline>
</glyph>
<glyph name="guilsinglleft" format="1">
  <advance width="273"/>
  <unicode hex="2039"/>
  <outline>
    <contour>
      <point x="150" y="423" type="line"/>
      <point x="37" y="255" type="line"/>
      <point x="150" y="89" type="line"/>
      <point x="218" y="89" type="line"/>
      <point x="111" y="255" type="line"/>
      <point x="218" y="423" type="line"/>
    </contour>
  </outline>
</glyph>
<glyph name="Euro" format="1">
  <advance width="796"/>
  <unicode hex="20AC"/>
  <outline>
    <contour>
      <point x="297" y="702"/>
      <point x="136" y="547"/>
      <point x="136" y="351" type="curve" smooth="yes"/>
      <point x="136" y="153"/>
      <point x="296" y="-4"/>
      <point x="498" y="-4" type="curve" smooth="yes"/>
      <point x="595" y="-4"/>
      <point x="690" y="39"/>
      <point x="757" y="104" type="curve"/>
      <point x="710" y="159" type="line"/>
      <point x="653" y="107"/>
      <point x="578" y="75"/>
      <point x="502" y="75" type="curve" smooth="yes"/>
      <point x="344" y="75"/>
      <point x="217" y="198"/>
      <point x="217" y="351" type="curve" smooth="yes"/>
      <point x="217" y="505"/>
      <point x="344" y="627"/>
      <point x="502" y="627" type="curve" smooth="yes"/>
      <point x="580" y="627"/>
      <point x="655" y="594"/>
      <point x="710" y="539" type="curve"/>
      <point x="756" y="600" type="line"/>
      <point x="691" y="663"/>
      <point x="597" y="702"/>
      <point x="501" y="702" type="curve" smooth="yes"/>
    </contour>
    <component base="equal" xOffset="1" yOffset="65" xScale="1.13" yScale="0.88"/>
  </outline>
</glyph>
<glyph name="uni2113" format="1">
  <advance width="465"/>
  <unicode hex="2113"/>
  <outline>
    <contour>
      <point x="252" y="704"/>
      <point x="189" y="645"/>
      <point x="165" y="519" type="curve" smooth="yes"/>
      <point x="118" y="235" type="line"/>
      <point x="37" y="175" type="line"/>
      <point x="54" y="133" type="line"/>
      <point x="110" y="173" type="line"/>
      <point x="103" y="67"/>
      <point x="130" y="-3"/>
      <point x="228" y="-3" type="curve" smooth="yes"/>
      <point x="302" y="-3"/>
      <point x="367" y="36"/>
      <point x="424" y="116" type="curve"/>
      <point x="394" y="152" type="line"/>
      <point x="350" y="100"/>
      <point x="303" y="62"/>
      <point x="244" y="62" type="curve" smooth="yes"/>
      <point x="174" y="62"/>
      <point x="158" y="116"/>
      <point x="176" y="218" type="curve"/>
      <point x="320" y="332"/>
      <point x="426" y="463"/>
      <point x="426" y="586" type="curve" smooth="yes"/>
      <point x="426" y="664"/>
      <point x="382" y="704"/>
      <point x="324" y="704" type="curve" smooth="yes"/>
    </contour>
    <contour>
      <point x="352" y="651"/>
      <point x="375" y="630"/>
      <point x="375" y="585" type="curve" smooth="yes"/>
      <point x="375" y="500"/>
      <point x="304" y="387"/>
      <point x="187" y="292" type="curve"/>
      <point x="227" y="524" type="line" smooth="yes"/>
      <point x="244" y="614"/>
      <point x="282" y="651"/>
      <point x="322" y="651" type="curve" smooth="yes"/>
    </contour>
  </outline>
</glyph>
<glyph name="trademark" format="1">
  <advance width="875"/>
  <unicode hex="2122"/>
  <outline>
    <contour>
      <point x="86" y="-142" type="move"/>
    </contour>
    <contour>
      <point x="743" y="700" type="line"/>
      <point x="599" y="407" type="line" smooth="yes"/>
      <point x="454" y="700" type="line"/>
      <point x="382" y="700" type="line"/>
      <point x="382" y="280" type="line"/>
      <point x="437" y="280" type="line"/>
      <point x="437" y="613" type="line"/>
      <point x="580" y="324" type="line"/>
      <point x="618" y="324" type="line"/>
      <point x="761" y="613" type="line"/>
      <point x="761" y="280" type="line"/>
      <point x="816" y="280" type="line"/>
      <point x="816" y="700" type="line"/>
    </contour>
    <contour>
      <point x="-3" y="700" type="line"/>
      <point x="-3" y="645" type="line"/>
      <point x="126" y="645" type="line"/>
      <point x="126" y="280" type="line"/>
      <point x="186" y="280" type="line"/>
      <point x="186" y="645" type="line"/>
      <point x="316" y="645" type="line"/>
      <point x="316" y="700" type="line"/>
    </contour>
  </outline>
</glyph>
<glyph name="Omega" format="1">
  <advance width="899"/>
  <unicode hex="2126"/>
  <outline>
    <contour>
      <point x="243" y="703"/>
      <point x="91" y="559"/>
      <point x="91" y="366" type="curve" smooth="yes"/>
      <point x="91" y="255"/>
      <point x="154" y="135"/>
      <point x="243" y="72" type="curve"/>
      <point x="11" y="72" type="line"/>
      <point x="11" y="0" type="line"/>
      <point x="333" y="0" type="line"/>
      <point x="333" y="67" type="line"/>
      <point x="234" y="122"/>
      <point x="163" y="245"/>
      <point x="163" y="359" type="curve" smooth="yes"/>
      <point x="163" y="515"/>
      <point x="284" y="629"/>
      <point x="450" y="629" type="curve" smooth="yes"/>
      <point x="616" y="629"/>
      <point x="738" y="515"/>
      <point x="738" y="359" type="curve" smooth="yes"/>
      <point x="738" y="245"/>
      <point x="666" y="122"/>
      <point x="568" y="68" type="curve"/>
      <point x="568" y="0" type="line"/>
      <point x="889" y="0" type="line"/>
      <point x="889" y="72" type="line"/>
      <point x="658" y="72" type="line"/>
      <point x="747" y="135"/>
      <point x="810" y="256"/>
      <point x="810" y="366" type="curve" smooth="yes"/>
      <point x="810" y="559"/>
      <point x="657" y="703"/>
      <point x="450" y="703" type="curve" smooth="yes"/>
    </contour>
    <contour>
      <point x="20" y="700" type="move" name="topleft"/>
    </contour>
  </outline>
</glyph>
<glyph name="partialdiff" format="1">
  <advance width="604"/>
  <unicode hex="2202"/>
  <outline>
    <contour>
      <point x="201" y="703"/>
      <point x="125" y="680"/>
      <point x="66" y="643" type="curve"/>
      <point x="98" y="579" type="line"/>
      <point x="145" y="612"/>
      <point x="205" y="632"/>
      <point x="261" y="632" type="curve" smooth="yes"/>
      <point x="410" y="632"/>
      <point x="489" y="509"/>
      <point x="472" y="303" type="curve"/>
      <point x="448" y="392"/>
      <point x="374" y="448"/>
      <point x="265" y="448" type="curve" smooth="yes"/>
      <point x="128" y="448"/>
      <point x="42" y="362"/>
      <point x="42" y="227" type="curve" smooth="yes"/>
      <point x="42" y="85"/>
      <point x="135" y="-4"/>
      <point x="278" y="-4" type="curve" smooth="yes"/>
      <point x="449" y="-4"/>
      <point x="552" y="120"/>
      <point x="552" y="338" type="curve" smooth="yes"/>
      <point x="552" y="558"/>
      <point x="442" y="703"/>
      <point x="267" y="703" type="curve" smooth="yes"/>
    </contour>
    <contour>
      <point x="389" y="380"/>
      <point x="454" y="307"/>
      <point x="454" y="223" type="curve"/>
      <point x="454" y="156"/>
      <point x="403" y="70"/>
      <point x="284" y="70" type="curve" smooth="yes"/>
      <point x="185" y="70"/>
      <point x="117" y="129"/>
      <point x="117" y="229" type="curve" smooth="yes"/>
      <point x="117" y="323"/>
      <point x="179" y="380"/>
      <point x="277" y="380" type="curve" smooth="yes"/>
    </contour>
  </outline>
</glyph>
<glyph name="product" format="1">
  <advance width="755"/>
  <unicode hex="220F"/>
  <outline>
    <contour>
      <point x="106" y="742" type="line"/>
      <point x="106" y="-194" type="line"/>
      <point x="184" y="-194" type="line"/>
      <point x="184" y="672" type="line"/>
      <point x="571" y="672" type="line"/>
      <point x="571" y="-194" type="line"/>
      <point x="649" y="-194" type="line"/>
      <point x="649" y="742" type="line"/>
    </contour>
  </outline>
</glyph>
<glyph name="summation" format="1">
  <advance width="608"/>
  <unicode hex="2211"/>
  <outline>
    <contour>
      <point x="41" y="743" type="line"/>
      <point x="41" y="674" type="line"/>
      <point x="349" y="308" type="line"/>
      <point x="35" y="-71" type="line"/>
      <point x="35" y="-138" type="line"/>
      <point x="606" y="-138" type="line"/>
      <point x="606" y="-62" type="line"/>
      <point x="131" y="-62" type="line"/>
      <point x="436" y="309" type="line"/>
      <point x="133" y="667" type="line"/>
      <point x="596" y="667" type="line"/>
      <point x="596" y="743" type="line"/>
    </contour>
  </outline>
</glyph>
<glyph name="radical" format="1">
  <advance width="677"/>
  <unicode hex="221A"/>
  <outline>
    <contour>
      <point x="16" y="323" type="line"/>
      <point x="138" y="323" type="line"/>
      <point x="298" y="-151" type="line"/>
      <point x="381" y="-151" type="line"/>
      <point x="665" y="752" type="line"/>
      <point x="589" y="752" type="line"/>
      <point x="340" y="-61" type="line"/>
      <point x="191" y="392" type="line"/>
      <point x="16" y="392" type="line"/>
    </contour>
  </outline>
</glyph>
<glyph name="infinity" format="1">
  <advance width="889"/>
  <unicode hex="221E"/>
  <outline>
    <contour>
      <point x="228" y="496" type="line"/>
      <point x="122" y="496"/>
      <point x="42" y="413"/>
      <point x="42" y="303" type="curve"/>
      <point x="42" y="193"/>
      <point x="122" y="110"/>
      <point x="228" y="110" type="curve"/>
      <point x="484" y="110"/>
      <point x="438" y="434"/>
      <point x="661" y="434" type="curve"/>
      <point x="736" y="434"/>
      <point x="791" y="379"/>
      <point x="791" y="304" type="curve"/>
      <point x="791" y="228"/>
      <point x="736" y="173"/>
      <point x="661" y="173" type="curve"/>
      <point x="438" y="173"/>
      <point x="482" y="496"/>
      <point x="228" y="496" type="curve"/>
      <point x="228" y="434" type="line"/>
      <point x="452" y="434"/>
      <point x="408" y="111"/>
      <point x="661" y="111" type="curve"/>
      <point x="768" y="111"/>
      <point x="848" y="193"/>
      <point x="848" y="304" type="curve"/>
      <point x="848" y="414"/>
      <point x="768" y="496"/>
      <point x="661" y="496" type="curve"/>
      <point x="405" y="496"/>
      <point x="452" y="172"/>
      <point x="228" y="172" type="curve"/>
      <point x="154" y="172"/>
      <point x="99" y="227"/>
      <point x="99" y="303" type="curve"/>
      <point x="99" y="378"/>
      <point x="154" y="434"/>
      <point x="228" y="434" type="curve"/>
    </contour>
  </outline>
</glyph>
<glyph name="integral" format="1">
  <advance width="312"/>
  <unicode hex="222B"/>
  <outline>
    <contour>
      <point x="311" y="819" type="line"/>
      <point x="285" y="831"/>
      <point x="266" y="836"/>
      <point x="244" y="836" type="curve"/>
      <point x="153" y="836"/>
      <point x="117" y="780"/>
      <point x="117" y="637" type="curve"/>
      <point x="117" y="499"/>
      <point x="138" y="219"/>
      <point x="138" y="73" type="curve"/>
      <point x="138" y="-22"/>
      <point x="117" y="-59"/>
      <point x="63" y="-59" type="curve"/>
      <point x="44" y="-59"/>
      <point x="30" y="-55"/>
      <point x="12" y="-45" type="curve"/>
      <point x="-1" y="-103" type="line"/>
      <point x="23" y="-116"/>
      <point x="43" y="-122"/>
      <point x="71" y="-122" type="curve"/>
      <point x="163" y="-122"/>
      <point x="198" y="-66"/>
      <point x="198" y="78" type="curve"/>
      <point x="198" y="224"/>
      <point x="178" y="507"/>
      <point x="178" y="643" type="curve"/>
      <point x="178" y="737"/>
      <point x="199" y="772"/>
      <point x="252" y="772" type="curve"/>
      <point x="269" y="772"/>
      <point x="283" y="769"/>
      <point x="299" y="761" type="curve"/>
    </contour>
  </outline>
</glyph>
<glyph name="approxequal" format="1">
  <advance width="491"/>
  <unicode hex="2248"/>
  <outline>
    <contour>
      <point x="103" y="286"/>
      <point x="73" y="245"/>
      <point x="73" y="167" type="curve"/>
      <point x="129" y="167" type="line"/>
      <point x="129" y="201"/>
      <point x="145" y="220"/>
      <point x="173" y="220" type="curve" smooth="yes"/>
      <point x="219" y="220"/>
      <point x="266" y="159"/>
      <point x="333" y="159" type="curve" smooth="yes"/>
      <point x="389" y="159"/>
      <point x="419" y="200"/>
      <point x="419" y="278" type="curve"/>
      <point x="363" y="278" type="line"/>
      <point x="363" y="243"/>
      <point x="348" y="224"/>
      <point x="320" y="224" type="curve" smooth="yes"/>
      <point x="275" y="224"/>
      <point x="221" y="286"/>
      <point x="159" y="286" type="curve" smooth="yes"/>
    </contour>
    <contour>
      <point x="103" y="499"/>
      <point x="73" y="458"/>
      <point x="73" y="380" type="curve"/>
      <point x="129" y="380" type="line"/>
      <point x="129" y="415"/>
      <point x="145" y="434"/>
      <point x="173" y="434" type="curve" smooth="yes"/>
      <point x="219" y="434"/>
      <point x="266" y="372"/>
      <point x="333" y="372" type="curve" smooth="yes"/>
      <point x="389" y="372"/>
      <point x="419" y="413"/>
      <point x="419" y="492" type="curve"/>
      <point x="363" y="492" type="line"/>
      <point x="363" y="457"/>
      <point x="348" y="438"/>
      <point x="320" y="438" type="curve" smooth="yes"/>
      <point x="275" y="438"/>
      <point x="221" y="499"/>
      <point x="159" y="499" type="curve" smooth="yes"/>
    </contour>
  </outline>
</glyph>
<glyph name="fi" format="1">
  <advance width="591"/>
  <unicode hex="FB01"/>
  <outline>
    <contour>
      <point x="194" y="749"/>
      <point x="111" y="689"/>
      <point x="111" y="572" type="curve"/>
      <point x="111" y="0" type="line"/>
      <point x="188" y="0" type="line"/>
      <point x="188" y="582" type="line"/>
      <point x="188" y="644"/>
      <point x="229" y="676"/>
      <point x="281" y="675" type="curve"/>
      <point x="311" y="675"/>
      <point x="344" y="665"/>
      <point x="373" y="649" type="curve"/>
      <point x="375" y="722" type="line"/>
      <point x="348" y="739"/>
      <point x="314" y="748"/>
      <point x="280" y="749" type="curve"/>
    </contour>
    <contour>
      <point x="43" y="514" type="line"/>
      <point x="43" y="450" type="line"/>
      <point x="339" y="450" type="line"/>
      <point x="339" y="514" type="line"/>
    </contour>
    <component base="i" xOffset="324"/>
  </outline>
</glyph>
<glyph name="fl" format="1">
  <advance width="610"/>
  <unicode hex="FB02"/>
  <outline>
    <contour>
      <point x="183" y="753"/>
      <point x="111" y="681"/>
      <point x="111" y="582" type="curve"/>
      <point x="111" y="0" type="line"/>
      <point x="188" y="0" type="line"/>
      <point x="188" y="571" type="line"/>
      <point x="188" y="636"/>
      <point x="234" y="683"/>
      <point x="294" y="682" type="curve"/>
      <point x="321" y="681"/>
      <point x="350" y="671"/>
      <point x="374" y="654" type="curve"/>
      <point x="376" y="727" type="line"/>
      <point x="350" y="742"/>
      <point x="314" y="751"/>
      <point x="280" y="752" type="curve"/>
    </contour>
    <contour>
      <point x="44" y="514" type="line"/>
      <point x="43" y="451" type="line"/>
      <point x="339" y="451" type="line"/>
      <point x="339" y="514" type="line"/>
    </contour>
    <component base="l" xOffset="332"/>
  </outline>
</glyph>
<glyph name="A.ss01" format="1">
  <advance width="770"/>
  <outline>
    <contour>
      <point x="200" y="703"/>
      <point x="90" y="592"/>
      <point x="90" y="411" type="curve" smooth="yes"/>
      <point x="90" y="0" type="line"/>
      <point x="170" y="0" type="line"/>
      <point x="170" y="200" type="line"/>
      <point x="599" y="200" type="line"/>
      <point x="599" y="0" type="line"/>
      <point x="679" y="0" type="line"/>
      <point x="679" y="411" type="line" smooth="yes"/>
      <point x="679" y="592"/>
      <point x="568" y="703"/>
      <point x="384" y="703" type="curve" smooth="yes"/>
    </contour>
    <contour>
      <point x="519" y="627"/>
      <point x="599" y="545"/>
      <point x="600" y="411" type="curve" smooth="yes"/>
      <point x="600" y="277" type="line"/>
      <point x="170" y="277" type="line"/>
      <point x="170" y="411" type="line" smooth="yes"/>
      <point x="170" y="545"/>
      <point x="250" y="627"/>
      <point x="385" y="627" type="curve" smooth="yes"/>
    </contour>
    <contour>
      <point x="716" y="10" type="move" name="ogonek"/>
    </contour>
    <contour>
      <point x="385" y="700" type="move" name="top"/>
    </contour>
  </outline>
</glyph>
<glyph name="Aogonek.ss01" format="1">
  <advance width="774"/>
  <outline>
    <contour>
      <point x="200" y="703"/>
      <point x="90" y="592"/>
      <point x="90" y="411" type="curve" smooth="yes"/>
      <point x="90" y="0" type="line"/>
      <point x="170" y="0" type="line"/>
      <point x="170" y="200" type="line"/>
      <point x="599" y="200" type="line"/>
      <point x="599" y="0" type="line"/>
      <point x="621" y="0" type="line"/>
      <point x="584" y="-53"/>
      <point x="565" y="-91"/>
      <point x="565" y="-126" type="curve" smooth="yes"/>
      <point x="565" y="-176"/>
      <point x="601" y="-200"/>
      <point x="639" y="-200" type="curve" smooth="yes"/>
      <point x="671" y="-200"/>
      <point x="704" y="-180"/>
      <point x="725" y="-149" type="curve"/>
      <point x="700" y="-119" type="line"/>
      <point x="684" y="-138"/>
      <point x="666" y="-152"/>
      <point x="646" y="-152" type="curve" smooth="yes"/>
      <point x="626" y="-152"/>
      <point x="611" y="-138"/>
      <point x="611" y="-114" type="curve" smooth="yes"/>
      <point x="611" y="-89"/>
      <point x="624" y="-55"/>
      <point x="664" y="0" type="curve"/>
      <point x="679" y="0" type="line"/>
      <point x="679" y="411" type="line" smooth="yes"/>
      <point x="679" y="592"/>
      <point x="568" y="703"/>
      <point x="384" y="703" type="curve" smooth="yes"/>
    </contour>
    <contour>
      <point x="519" y="627"/>
      <point x="599" y="545"/>
      <point x="600" y="411" type="curve" smooth="yes"/>
      <point x="600" y="277" type="line"/>
      <point x="170" y="277" type="line"/>
      <point x="170" y="411" type="line" smooth="yes"/>
      <point x="170" y="545"/>
      <point x="250" y="627"/>
      <point x="385" y="627" type="curve" smooth="yes"/>
    </contour>
  </outline>
</glyph>
<glyph name="E.ss01" format="1">
  <advance width="566"/>
  <outline>
    <contour>
      <point x="182" y="703"/>
      <point x="83" y="630"/>
      <point x="83" y="527" type="curve" smooth="yes"/>
      <point x="83" y="451"/>
      <point x="140" y="387"/>
      <point x="220" y="370" type="curve"/>
      <point x="119" y="352"/>
      <point x="50" y="276"/>
      <point x="50" y="190" type="curve" smooth="yes"/>
      <point x="50" y="77"/>
      <point x="162" y="-4"/>
      <point x="315" y="-4" type="curve" smooth="yes"/>
      <point x="396" y="-4"/>
      <point x="490" y="22"/>
      <point x="545" y="55" type="curve"/>
      <point x="513" y="121" type="line"/>
      <point x="467" y="95"/>
      <point x="384" y="72"/>
      <point x="318" y="72" type="curve" smooth="yes"/>
      <point x="212" y="72"/>
      <point x="132" y="121"/>
      <point x="132" y="197" type="curve" smooth="yes"/>
      <point x="132" y="273"/>
      <point x="210" y="328"/>
      <point x="319" y="328" type="curve" smooth="yes"/>
      <point x="448" y="328" type="line"/>
      <point x="448" y="404" type="line"/>
      <point x="319" y="404" type="line" smooth="yes"/>
      <point x="225" y="404"/>
      <point x="159" y="453"/>
      <point x="159" y="519" type="curve" smooth="yes"/>
      <point x="159" y="587"/>
      <point x="230" y="628"/>
      <point x="327" y="628" type="curve" smooth="yes"/>
      <point x="380" y="628"/>
      <point x="445" y="615"/>
      <point x="487" y="595" type="curve"/>
      <point x="515" y="661" type="line"/>
      <point x="469" y="686"/>
      <point x="388" y="703"/>
      <point x="323" y="703" type="curve" smooth="yes"/>
    </contour>
    <contour>
      <point x="509" y="10" type="move" name="ogonek"/>
    </contour>
    <contour>
      <point x="283" y="0" type="move" name="bottom"/>
    </contour>
    <contour>
      <point x="283" y="700" type="move" name="top"/>
    </contour>
  </outline>
</glyph>
<glyph name="Eogonek.ss01" format="1">
  <advance width="566"/>
  <outline>
    <contour>
      <point x="182" y="703"/>
      <point x="83" y="630"/>
      <point x="83" y="527" type="curve" smooth="yes"/>
      <point x="83" y="451"/>
      <point x="140" y="387"/>
      <point x="220" y="370" type="curve"/>
      <point x="119" y="352"/>
      <point x="50" y="276"/>
      <point x="50" y="190" type="curve" smooth="yes"/>
      <point x="50" y="77"/>
      <point x="162" y="-4"/>
      <point x="315" y="-4" type="curve" smooth="yes"/>
      <point x="396" y="-4"/>
      <point x="490" y="22"/>
      <point x="545" y="55" type="curve"/>
      <point x="513" y="121" type="line"/>
      <point x="467" y="95"/>
      <point x="384" y="72"/>
      <point x="318" y="72" type="curve" smooth="yes"/>
      <point x="212" y="72"/>
      <point x="132" y="121"/>
      <point x="132" y="197" type="curve" smooth="yes"/>
      <point x="132" y="273"/>
      <point x="210" y="328"/>
      <point x="319" y="328" type="curve" smooth="yes"/>
      <point x="448" y="328" type="line"/>
      <point x="448" y="404" type="line"/>
      <point x="319" y="404" type="line" smooth="yes"/>
      <point x="225" y="404"/>
      <point x="159" y="453"/>
      <point x="159" y="519" type="curve" smooth="yes"/>
      <point x="159" y="587"/>
      <point x="230" y="628"/>
      <point x="327" y="628" type="curve" smooth="yes"/>
      <point x="380" y="628"/>
      <point x="445" y="615"/>
      <point x="487" y="595" type="curve"/>
      <point x="515" y="661" type="line"/>
      <point x="469" y="686"/>
      <point x="388" y="703"/>
      <point x="323" y="703" type="curve" smooth="yes"/>
    </contour>
    <contour>
      <point x="417" y="18" type="line"/>
      <point x="371" y="-42"/>
      <point x="349" y="-86"/>
      <point x="349" y="-126" type="curve" smooth="yes"/>
      <point x="349" y="-176"/>
      <point x="384" y="-200"/>
      <point x="422" y="-200" type="curve" smooth="yes"/>
      <point x="455" y="-200"/>
      <point x="488" y="-180"/>
      <point x="509" y="-149" type="curve"/>
      <point x="483" y="-119" type="line"/>
      <point x="467" y="-138"/>
      <point x="449" y="-152"/>
      <point x="430" y="-152" type="curve" smooth="yes"/>
      <point x="409" y="-152"/>
      <point x="394" y="-138"/>
      <point x="394" y="-114" type="curve" smooth="yes"/>
      <point x="394" y="-80"/>
      <point x="416" y="-35"/>
      <point x="475" y="38" type="curve"/>
    </contour>
  </outline>
</glyph>
<glyph name="F.ss01" format="1">
  <advance width="515"/>
  <outline>
    <contour>
      <point x="169" y="0" type="line"/>
      <point x="169" y="485" type="line"/>
      <point x="169" y="571"/>
      <point x="226" y="627"/>
      <point x="313" y="627" type="curve"/>
      <point x="367" y="627"/>
      <point x="436" y="610"/>
      <point x="486" y="585" type="curve"/>
      <point x="507" y="660" type="line"/>
      <point x="454" y="686"/>
      <point x="378" y="703"/>
      <point x="306" y="703" type="curve"/>
      <point x="175" y="703"/>
      <point x="90" y="618"/>
      <point x="90" y="486" type="curve"/>
      <point x="90" y="0" type="line"/>
    </contour>
    <contour>
      <point x="114" y="365" type="line"/>
      <point x="114" y="289" type="line"/>
      <point x="451" y="289" type="line"/>
      <point x="451" y="365" type="line"/>
    </contour>
  </outline>
</glyph>
<glyph name="G.ss01" format="1">
  <advance width="754"/>
  <outline>
    <contour>
      <point x="203" y="702"/>
      <point x="40" y="547"/>
      <point x="40" y="350" type="curve" smooth="yes"/>
      <point x="40" y="153"/>
      <point x="198" y="-4"/>
      <point x="398" y="-4" type="curve" smooth="yes"/>
      <point x="494" y="-4"/>
      <point x="588" y="47"/>
      <point x="648" y="120" type="curve"/>
      <point x="607" y="169" type="line"/>
      <point x="559" y="110"/>
      <point x="485" y="72"/>
      <point x="405" y="72" type="curve" smooth="yes"/>
      <point x="247" y="72"/>
      <point x="121" y="195"/>
      <point x="121" y="350" type="curve" smooth="yes"/>
      <point x="121" y="504"/>
      <point x="249" y="627"/>
      <point x="409" y="627" type="curve" smooth="yes"/>
      <point x="488" y="627"/>
      <point x="564" y="597"/>
      <point x="621" y="546" type="curve"/>
      <point x="667" y="606" type="line"/>
      <point x="599" y="665"/>
      <point x="505" y="702"/>
      <point x="408" y="702" type="curve" smooth="yes"/>
    </contour>
    <contour>
      <point x="594" y="351" type="line"/>
      <point x="594" y="99" type="line"/>
      <point x="603" y="88" type="line"/>
      <point x="603" y="0" type="line"/>
      <point x="665" y="0" type="line"/>
      <point x="665" y="351" type="line"/>
    </contour>
    <contour>
      <point x="378" y="700" type="move" name="top"/>
    </contour>
    <contour>
      <point x="378" y="0" type="move" name="bottom"/>
    </contour>
  </outline>
</glyph>
<glyph name="I.ss01" format="1">
  <advance width="470"/>
  <outline>
    <contour>
      <point x="54" y="623" type="line"/>
      <point x="415" y="623" type="line"/>
      <point x="415" y="700" type="line"/>
      <point x="54" y="700" type="line"/>
    </contour>
    <contour>
      <point x="54" y="0" type="line"/>
      <point x="415" y="0" type="line"/>
      <point x="415" y="77" type="line"/>
      <point x="54" y="77" type="line"/>
    </contour>
    <contour>
      <point x="195" y="700" type="line"/>
      <point x="195" y="0" type="line"/>
      <point x="275" y="0" type="line"/>
      <point x="275" y="700" type="line"/>
    </contour>
    <contour>
      <point x="423" y="10" type="move" name="ogonek"/>
    </contour>
    <contour>
      <point x="235" y="700" type="move" name="top"/>
    </contour>
  </outline>
</glyph>
<glyph name="J.ss01" format="1">
  <advance width="483"/>
  <outline>
    <contour>
      <point x="63" y="700" type="line"/>
      <point x="63" y="623" type="line"/>
      <point x="313" y="623" type="line"/>
      <point x="313" y="112" type="line"/>
      <point x="313" y="25"/>
      <point x="269" y="-21"/>
      <point x="193" y="-21" type="curve"/>
      <point x="139" y="-21"/>
      <point x="84" y="7"/>
      <point x="40" y="60" type="curve"/>
      <point x="-0" y="-4" type="line"/>
      <point x="49" y="-67"/>
      <point x="116" y="-104"/>
      <point x="193" y="-104" type="curve"/>
      <point x="319" y="-104"/>
      <point x="393" y="-27"/>
      <point x="393" y="110" type="curve"/>
      <point x="393" y="700" type="line"/>
    </contour>
    <contour>
      <point x="245" y="700" type="move" name="top"/>
    </contour>
  </outline>
</glyph>
<glyph name="M.ss01" format="1">
  <advance width="1208"/>
  <outline>
    <contour>
      <point x="259" y="697"/>
      <point x="146" y="579"/>
      <point x="146" y="412" type="curve"/>
      <point x="185" y="391" type="line"/>
      <point x="185" y="517"/>
      <point x="273" y="616"/>
      <point x="395" y="619" type="curve"/>
      <point x="498" y="619"/>
      <point x="570" y="539"/>
      <point x="570" y="426" type="curve"/>
      <point x="570" y="0" type="line" smooth="yes"/>
      <point x="651" y="0" type="line"/>
      <point x="651" y="444" type="line"/>
      <point x="651" y="595"/>
      <point x="554" y="700"/>
      <point x="421" y="700" type="curve"/>
    </contour>
    <contour>
      <point x="726" y="697"/>
      <point x="613" y="579"/>
      <point x="613" y="412" type="curve"/>
      <point x="652" y="391" type="line"/>
      <point x="652" y="517"/>
      <point x="740" y="616"/>
      <point x="862" y="619" type="curve"/>
      <point x="965" y="619"/>
      <point x="1037" y="539"/>
      <point x="1037" y="426" type="curve"/>
      <point x="1037" y="0" type="line" smooth="yes"/>
      <point x="1118" y="0" type="line"/>
      <point x="1118" y="444" type="line"/>
      <point x="1118" y="595"/>
      <point x="1021" y="700"/>
      <point x="887" y="700" type="curve"/>
    </contour>
    <contour>
      <point x="106" y="700" type="line"/>
      <point x="106" y="0" type="line"/>
      <point x="186" y="0" type="line"/>
      <point x="186" y="700" type="line"/>
    </contour>
    <contour>
      <point x="232" y="10" type="move" name="ogonek"/>
    </contour>
    <contour>
      <point x="146" y="700" type="move" name="top"/>
    </contour>
  </outline>
</glyph>
<glyph name="N.ss01" format="1">
  <advance width="779"/>
  <outline>
    <contour>
      <point x="268" y="697"/>
      <point x="146" y="579"/>
      <point x="146" y="412" type="curve"/>
      <point x="185" y="391" type="line"/>
      <point x="185" y="517"/>
      <point x="282" y="616"/>
      <point x="417" y="619" type="curve"/>
      <point x="529" y="619"/>
      <point x="608" y="539"/>
      <point x="608" y="426" type="curve"/>
      <point x="608" y="0" type="line" smooth="yes"/>
      <point x="689" y="0" type="line"/>
      <point x="689" y="444" type="line"/>
      <point x="689" y="595"/>
      <point x="585" y="700"/>
      <point x="442" y="700" type="curve"/>
    </contour>
    <contour>
      <point x="106" y="700" type="line"/>
      <point x="106" y="0" type="line"/>
      <point x="186" y="0" type="line"/>
      <point x="186" y="700" type="line"/>
    </contour>
    <contour>
      <point x="232" y="10" type="move" name="ogonek"/>
    </contour>
    <contour>
      <point x="389" y="0" type="move" name="bottom"/>
    </contour>
    <contour>
      <point x="389" y="700" type="move" name="top"/>
    </contour>
  </outline>
</glyph>
<glyph name="T.ss01" format="1">
  <advance width="633"/>
  <outline>
    <contour>
      <point x="215" y="703"/>
      <point x="115" y="678"/>
      <point x="33" y="634" type="curve"/>
      <point x="61" y="560" type="line"/>
      <point x="135" y="599"/>
      <point x="226" y="621"/>
      <point x="314" y="621" type="curve" smooth="yes"/>
      <point x="404" y="621"/>
      <point x="494" y="600"/>
      <point x="569" y="560" type="curve"/>
      <point x="597" y="633" type="line"/>
      <point x="514" y="678"/>
      <point x="414" y="703"/>
      <point x="314" y="703" type="curve" smooth="yes"/>
    </contour>
    <contour>
      <point x="275" y="659" type="line"/>
      <point x="275" y="0" type="line"/>
      <point x="355" y="0" type="line"/>
      <point x="355" y="659" type="line"/>
    </contour>
    <contour>
      <point x="317" y="350" type="move" name="center"/>
    </contour>
    <contour>
      <point x="303" y="0" type="move" name="bottom"/>
    </contour>
    <contour>
      <point x="317" y="700" type="move" name="top"/>
    </contour>
  </outline>
</glyph>
<glyph name="W.ss01" format="1">
  <advance width="1189"/>
  <outline>
    <contour>
      <point x="1018" y="700" type="line"/>
      <point x="1018" y="251" type="line" smooth="yes"/>
      <point x="1018" y="144"/>
      <point x="944" y="73"/>
      <point x="830" y="73" type="curve" smooth="yes"/>
      <point x="713" y="73"/>
      <point x="635" y="144"/>
      <point x="635" y="251" type="curve" smooth="yes"/>
      <point x="635" y="700" type="line"/>
      <point x="555" y="700" type="line"/>
      <point x="555" y="251" type="line" smooth="yes"/>
      <point x="555" y="144"/>
      <point x="477" y="73"/>
      <point x="360" y="73" type="curve" smooth="yes"/>
      <point x="246" y="73"/>
      <point x="170" y="144"/>
      <point x="170" y="251" type="curve" smooth="yes"/>
      <point x="170" y="700" type="line"/>
      <point x="90" y="700" type="line"/>
      <point x="90" y="251" type="line" smooth="yes"/>
      <point x="90" y="99"/>
      <point x="194" y="-4"/>
      <point x="349" y="-4" type="curve" smooth="yes"/>
      <point x="466" y="-4"/>
      <point x="561" y="54"/>
      <point x="595" y="140" type="curve"/>
      <point x="628" y="54"/>
      <point x="724" y="-4"/>
      <point x="840" y="-4" type="curve" smooth="yes"/>
      <point x="994" y="-4"/>
      <point x="1098" y="99"/>
      <point x="1098" y="251" type="curve" smooth="yes"/>
      <point x="1098" y="700" type="line"/>
    </contour>
    <contour>
      <point x="594" y="700" type="move" name="top"/>
    </contour>
  </outline>
</glyph>
<glyph name="Y.ss01" format="1">
  <advance width="737"/>
  <outline>
    <contour>
      <point x="499" y="160"/>
      <point x="607" y="280"/>
      <point x="607" y="452" type="curve"/>
      <point x="569" y="465" type="line"/>
      <point x="569" y="332"/>
      <point x="480" y="237"/>
      <point x="358" y="235" type="curve"/>
      <point x="248" y="235"/>
      <point x="170" y="314"/>
      <point x="170" y="424" type="curve"/>
      <point x="170" y="700" type="line" smooth="yes"/>
      <point x="90" y="700" type="line"/>
      <point x="90" y="417" type="line"/>
      <point x="90" y="264"/>
      <point x="195" y="157"/>
      <point x="343" y="157" type="curve"/>
    </contour>
    <contour>
      <point x="568" y="700" type="line"/>
      <point x="568" y="165" type="line"/>
      <point x="568" y="53"/>
      <point x="482" y="-28"/>
      <point x="361" y="-28" type="curve"/>
      <point x="277" y="-28"/>
      <point x="184" y="14"/>
      <point x="135" y="70" type="curve"/>
      <point x="95" y="11" type="line"/>
      <point x="150" y="-56"/>
      <point x="263" y="-104"/>
      <point x="370" y="-104" type="curve"/>
      <point x="533" y="-104"/>
      <point x="647" y="6"/>
      <point x="647" y="163" type="curve"/>
      <point x="647" y="700" type="line"/>
    </contour>
    <contour>
      <point x="369" y="700" type="move" name="top"/>
    </contour>
  </outline>
</glyph>
<glyph name="Z.ss01" format="1">
  <advance width="660"/>
  <outline>
    <contour>
      <point x="323" y="381" type="line"/>
      <point x="323" y="311" type="line"/>
      <point x="542" y="311" type="line"/>
      <point x="542" y="381" type="line"/>
    </contour>
    <contour>
      <point x="110" y="385" type="line"/>
      <point x="110" y="315" type="line"/>
      <point x="327" y="315" type="line"/>
      <point x="327" y="385" type="line"/>
    </contour>
    <contour>
      <point x="56" y="700" type="line"/>
      <point x="56" y="623" type="line"/>
      <point x="507" y="623" type="line"/>
      <point x="43" y="64" type="line"/>
      <point x="43" y="0" type="line"/>
      <point x="616" y="0" type="line"/>
      <point x="617" y="76" type="line"/>
      <point x="148" y="76" type="line"/>
      <point x="612" y="636" type="line"/>
      <point x="612" y="700" type="line"/>
    </contour>
    <contour>
      <point x="330" y="700" type="move" name="top"/>
    </contour>
  </outline>
</glyph>
<glyph name="a.ss01" format="1">
  <advance width="672"/>
  <outline>
    <contour>
      <point x="500" y="527" type="line"/>
      <point x="500" y="0" type="line"/>
      <point x="577" y="0" type="line"/>
      <point x="577" y="527" type="line"/>
    </contour>
    <contour>
      <point x="145" y="530"/>
      <point x="42" y="421"/>
      <point x="42" y="264" type="curve" smooth="yes"/>
      <point x="42" y="107"/>
      <point x="146" y="-4"/>
      <point x="296" y="-4" type="curve" smooth="yes"/>
      <point x="442" y="-4"/>
      <point x="535" y="100"/>
      <point x="535" y="264" type="curve"/>
      <point x="535" y="427"/>
      <point x="441" y="532"/>
      <point x="294" y="531" type="curve" smooth="yes"/>
    </contour>
    <contour>
      <point x="422" y="460"/>
      <point x="500" y="377"/>
      <point x="501" y="262" type="curve" smooth="yes"/>
      <point x="500" y="148"/>
      <point x="422" y="66"/>
      <point x="311" y="66" type="curve" smooth="yes"/>
      <point x="199" y="66"/>
      <point x="121" y="148"/>
      <point x="120" y="262" type="curve" smooth="yes"/>
      <point x="121" y="377"/>
      <point x="200" y="460"/>
      <point x="311" y="460" type="curve" smooth="yes"/>
    </contour>
    <contour>
      <point x="623" y="10" type="move" name="ogonek"/>
    </contour>
    <contour>
      <point x="333" y="527" type="move" name="top"/>
    </contour>
  </outline>
</glyph>
<glyph name="ae.ss01" format="1">
  <advance width="970"/>
  <outline>
    <contour>
      <point x="554" y="124" type="move"/>
    </contour>
    <contour>
      <point x="248" y="308" type="line"/>
      <point x="124" y="307"/>
      <point x="50" y="249"/>
      <point x="50" y="157" type="curve"/>
      <point x="50" y="66"/>
      <point x="121" y="-4"/>
      <point x="230" y="-4" type="curve"/>
      <point x="344" y="-4"/>
      <point x="429" y="46"/>
      <point x="472" y="150" type="curve"/>
      <point x="430" y="198" type="line"/>
      <point x="411" y="112"/>
      <point x="339" y="64"/>
      <point x="245" y="64" type="curve"/>
      <point x="171" y="64"/>
      <point x="124" y="102"/>
      <point x="124" y="160" type="curve"/>
      <point x="124" y="218"/>
      <point x="170" y="245"/>
      <point x="259" y="245" type="curve"/>
      <point x="436" y="245" type="line"/>
      <point x="436" y="308" type="line"/>
    </contour>
    <contour>
      <point x="112" y="402" type="line"/>
      <point x="167" y="440"/>
      <point x="221" y="462"/>
      <point x="279" y="462" type="curve"/>
      <point x="374" y="462"/>
      <point x="421" y="416"/>
      <point x="422" y="339" type="curve"/>
      <point x="422" y="184" type="line"/>
      <point x="499" y="184" type="line"/>
      <point x="499" y="348" type="line"/>
      <point x="498" y="461"/>
      <point x="425" y="530"/>
      <point x="295" y="530" type="curve"/>
      <point x="204" y="530"/>
      <point x="147" y="504"/>
      <point x="79" y="459" type="curve"/>
    </contour>
    <contour>
      <point x="824" y="92"/>
      <point x="767" y="64"/>
      <point x="702" y="64" type="curve" smooth="yes"/>
      <point x="588" y="64"/>
      <point x="507" y="147"/>
      <point x="507" y="267" type="curve" smooth="yes"/>
      <point x="507" y="389"/>
      <point x="583" y="461"/>
      <point x="694" y="461" type="curve" smooth="yes"/>
      <point x="769" y="461"/>
      <point x="826" y="429"/>
      <point x="853" y="363" type="curve"/>
      <point x="492" y="241" type="line"/>
      <point x="497" y="176" type="line"/>
      <point x="931" y="322" type="line"/>
      <point x="914" y="451"/>
      <point x="821" y="531"/>
      <point x="691" y="530" type="curve" smooth="yes"/>
      <point x="534" y="528"/>
      <point x="430" y="417"/>
      <point x="430" y="264" type="curve" smooth="yes"/>
      <point x="430" y="106"/>
      <point x="540" y="-3"/>
      <point x="697" y="-3" type="curve" smooth="yes"/>
      <point x="785" y="-3"/>
      <point x="860" y="32"/>
      <point x="918" y="104" type="curve"/>
      <point x="870" y="147" type="line"/>
    </contour>
    <contour>
      <point x="481" y="527" type="move" name="top"/>
    </contour>
  </outline>
</glyph>
<glyph name="bp.util" format="1">
  <advance width="573"/>
  <outline>
    <contour>
      <point x="135" y="530"/>
      <point x="41" y="427"/>
      <point x="42" y="262" type="curve"/>
      <point x="41" y="101"/>
      <point x="134" y="-3"/>
      <point x="280" y="-3" type="curve" smooth="yes"/>
      <point x="429" y="-3"/>
      <point x="531" y="106"/>
      <point x="531" y="262" type="curve" smooth="yes"/>
      <point x="531" y="420"/>
      <point x="427" y="530"/>
      <point x="279" y="530" type="curve" smooth="yes"/>
    </contour>
    <contour>
      <point x="374" y="460"/>
      <point x="453" y="377"/>
      <point x="453" y="264" type="curve" smooth="yes"/>
      <point x="453" y="150"/>
      <point x="374" y="68"/>
      <point x="264" y="68" type="curve" smooth="yes"/>
      <point x="154" y="68"/>
      <point x="75" y="149"/>
      <point x="75" y="264" type="curve" smooth="yes"/>
      <point x="75" y="378"/>
      <point x="154" y="460"/>
      <point x="264" y="460" type="curve" smooth="yes"/>
    </contour>
  </outline>
</glyph>
<glyph name="e.ss01" format="1">
  <advance width="596"/>
  <outline>
    <contour>
      <point x="109" y="176" type="line"/>
      <point x="543" y="322" type="line"/>
      <point x="526" y="451"/>
      <point x="433" y="531"/>
      <point x="303" y="530" type="curve" smooth="yes"/>
      <point x="146" y="528"/>
      <point x="42" y="417"/>
      <point x="42" y="264" type="curve" smooth="yes"/>
      <point x="42" y="106"/>
      <point x="152" y="-3"/>
      <point x="309" y="-3" type="curve" smooth="yes"/>
      <point x="397" y="-3"/>
      <point x="472" y="32"/>
      <point x="530" y="104" type="curve"/>
      <point x="482" y="148" type="line"/>
      <point x="437" y="92"/>
      <point x="379" y="64"/>
      <point x="314" y="64" type="curve" smooth="yes"/>
      <point x="200" y="64"/>
      <point x="120" y="147"/>
      <point x="120" y="267" type="curve" smooth="yes"/>
      <point x="120" y="389"/>
      <point x="195" y="461"/>
      <point x="307" y="461" type="curve" smooth="yes"/>
      <point x="381" y="461"/>
      <point x="438" y="429"/>
      <point x="465" y="363" type="curve"/>
      <point x="104" y="241" type="line"/>
    </contour>
    <contour>
      <point x="539" y="10" type="move" name="ogonek"/>
    </contour>
    <contour>
      <point x="300" y="0" type="move" name="bottom"/>
    </contour>
    <contour>
      <point x="300" y="527" type="move" name="top"/>
    </contour>
  </outline>
</glyph>
<glyph name="eight.dnom" format="1">
  <advance width="402"/>
  <outline>
    <contour>
      <point x="115" y="413"/>
      <point x="61" y="374"/>
      <point x="61" y="310" type="curve" smooth="yes"/>
      <point x="61" y="268"/>
      <point x="87" y="237"/>
      <point x="131" y="220" type="curve"/>
      <point x="75" y="203"/>
      <point x="41" y="165"/>
      <point x="41" y="114" type="curve" smooth="yes"/>
      <point x="41" y="42"/>
      <point x="102" y="-2"/>
      <point x="201" y="-2" type="curve" smooth="yes"/>
      <point x="300" y="-2"/>
      <point x="361" y="42"/>
      <point x="361" y="115" type="curve" smooth="yes"/>
      <point x="361" y="165"/>
      <point x="328" y="203"/>
      <point x="274" y="220" type="curve"/>
      <point x="315" y="236"/>
      <point x="340" y="267"/>
      <point x="340" y="308" type="curve" smooth="yes"/>
      <point x="340" y="373"/>
      <point x="286" y="413"/>
      <point x="201" y="413" type="curve" smooth="yes"/>
    </contour>
    <contour>
      <point x="267" y="193"/>
      <point x="305" y="166"/>
      <point x="305" y="120" type="curve" smooth="yes"/>
      <point x="305" y="72"/>
      <point x="266" y="45"/>
      <point x="201" y="45" type="curve" smooth="yes"/>
      <point x="135" y="45"/>
      <point x="97" y="72"/>
      <point x="97" y="121" type="curve" smooth="yes"/>
      <point x="97" y="166"/>
      <point x="136" y="193"/>
      <point x="200" y="193" type="curve" smooth="yes"/>
    </contour>
    <contour>
      <point x="257" y="370"/>
      <point x="290" y="346"/>
      <point x="290" y="305" type="curve" smooth="yes"/>
      <point x="290" y="264"/>
      <point x="257" y="240"/>
      <point x="201" y="240" type="curve" smooth="yes"/>
      <point x="145" y="240"/>
      <point x="112" y="264"/>
      <point x="112" y="305" type="curve" smooth="yes"/>
      <point x="112" y="346"/>
      <point x="145" y="370"/>
      <point x="201" y="370" type="curve" smooth="yes"/>
    </contour>
  </outline>
</glyph>
<glyph name="eight.numr" format="1">
  <advance width="402"/>
  <outline>
    <contour>
      <point x="115" y="702"/>
      <point x="61" y="663"/>
      <point x="61" y="599" type="curve" smooth="yes"/>
      <point x="61" y="557"/>
      <point x="87" y="526"/>
      <point x="131" y="508" type="curve"/>
      <point x="75" y="492"/>
      <point x="41" y="454"/>
      <point x="41" y="403" type="curve" smooth="yes"/>
      <point x="41" y="330"/>
      <point x="102" y="287"/>
      <point x="201" y="287" type="curve" smooth="yes"/>
      <point x="300" y="287"/>
      <point x="361" y="330"/>
      <point x="361" y="404" type="curve" smooth="yes"/>
      <point x="361" y="454"/>
      <point x="328" y="492"/>
      <point x="274" y="508" type="curve"/>
      <point x="315" y="525"/>
      <point x="340" y="556"/>
      <point x="340" y="597" type="curve" smooth="yes"/>
      <point x="340" y="662"/>
      <point x="286" y="702"/>
      <point x="201" y="702" type="curve" smooth="yes"/>
    </contour>
    <contour>
      <point x="267" y="482"/>
      <point x="305" y="455"/>
      <point x="305" y="409" type="curve" smooth="yes"/>
      <point x="305" y="361"/>
      <point x="266" y="334"/>
      <point x="201" y="334" type="curve" smooth="yes"/>
      <point x="135" y="334"/>
      <point x="97" y="361"/>
      <point x="97" y="410" type="curve" smooth="yes"/>
      <point x="97" y="455"/>
      <point x="136" y="482"/>
      <point x="200" y="482" type="curve" smooth="yes"/>
    </contour>
    <contour>
      <point x="257" y="659"/>
      <point x="290" y="635"/>
      <point x="290" y="594" type="curve" smooth="yes"/>
      <point x="290" y="553"/>
      <point x="257" y="529"/>
      <point x="201" y="529" type="curve" smooth="yes"/>
      <point x="145" y="529"/>
      <point x="112" y="553"/>
      <point x="112" y="594" type="curve" smooth="yes"/>
      <point x="112" y="635"/>
      <point x="145" y="659"/>
      <point x="201" y="659" type="curve" smooth="yes"/>
    </contour>
  </outline>
</glyph>
<glyph name="eogonek.ss01" format="1">
  <advance width="596"/>
  <outline>
    <contour>
      <point x="200" y="64"/>
      <point x="120" y="147"/>
      <point x="120" y="267" type="curve" smooth="yes"/>
      <point x="120" y="389"/>
      <point x="195" y="461"/>
      <point x="307" y="461" type="curve" smooth="yes"/>
      <point x="381" y="461"/>
      <point x="438" y="429"/>
      <point x="465" y="363" type="curve"/>
      <point x="104" y="241" type="line"/>
      <point x="109" y="176" type="line"/>
      <point x="543" y="322" type="line"/>
      <point x="526" y="451"/>
      <point x="433" y="531"/>
      <point x="303" y="530" type="curve" smooth="yes"/>
      <point x="146" y="528"/>
      <point x="42" y="417"/>
      <point x="42" y="264" type="curve" smooth="yes"/>
      <point x="42" y="106"/>
      <point x="152" y="-3"/>
      <point x="309" y="-3" type="curve"/>
      <point x="358" y="-3"/>
      <point x="403" y="12"/>
      <point x="441" y="36" type="curve"/>
      <point x="393" y="-29"/>
      <point x="374" y="-81"/>
      <point x="374" y="-126" type="curve" smooth="yes"/>
      <point x="374" y="-176"/>
      <point x="409" y="-200"/>
      <point x="447" y="-200" type="curve" smooth="yes"/>
      <point x="480" y="-200"/>
      <point x="511" y="-180"/>
      <point x="533" y="-149" type="curve"/>
      <point x="507" y="-119" type="line"/>
      <point x="492" y="-138"/>
      <point x="473" y="-152"/>
      <point x="455" y="-152" type="curve" smooth="yes"/>
      <point x="435" y="-152"/>
      <point x="419" y="-138"/>
      <point x="419" y="-114" type="curve" smooth="yes"/>
      <point x="419" y="-65"/>
      <point x="453" y="2"/>
      <point x="520" y="85" type="curve"/>
      <point x="478" y="131" type="line"/>
      <point x="437" y="88"/>
      <point x="379" y="64"/>
      <point x="314" y="64" type="curve"/>
    </contour>
  </outline>
</glyph>
<glyph name="f.ss01" format="1">
  <advance width="304"/>
  <outline>
    <contour>
      <point x="164" y="749"/>
      <point x="83" y="687"/>
      <point x="83" y="572" type="curve"/>
      <point x="83" y="0" type="line"/>
      <point x="160" y="0" type="line"/>
      <point x="160" y="582" type="line"/>
      <point x="160" y="643"/>
      <point x="202" y="676"/>
      <point x="253" y="676" type="curve"/>
      <point x="281" y="676"/>
      <point x="310" y="666"/>
      <point x="333" y="649" type="curve"/>
      <point x="365" y="712" type="line"/>
      <point x="333" y="736"/>
      <point x="292" y="748"/>
      <point x="252" y="749" type="curve"/>
    </contour>
    <contour>
      <point x="91" y="511" type="line"/>
      <point x="91" y="447" type="line"/>
      <point x="311" y="447" type="line"/>
      <point x="311" y="511" type="line"/>
    </contour>
  </outline>
</glyph>
<glyph name="fi.ss01" format="1">
  <advance width="570"/>
  <outline>
    <contour>
      <point x="166" y="749"/>
      <point x="83" y="689"/>
      <point x="83" y="572" type="curve"/>
      <point x="83" y="0" type="line"/>
      <point x="160" y="0" type="line"/>
      <point x="160" y="582" type="line"/>
      <point x="160" y="644"/>
      <point x="201" y="676"/>
      <point x="253" y="675" type="curve"/>
      <point x="283" y="675"/>
      <point x="316" y="665"/>
      <point x="345" y="649" type="curve"/>
      <point x="347" y="722" type="line"/>
      <point x="320" y="739"/>
      <point x="286" y="748"/>
      <point x="252" y="749" type="curve"/>
    </contour>
    <contour>
      <point x="107" y="511" type="line"/>
      <point x="107" y="447" type="line"/>
      <point x="311" y="447" type="line"/>
      <point x="311" y="511" type="line"/>
    </contour>
    <component base="i" xOffset="304"/>
  </outline>
</glyph>
<glyph name="five.dnom" format="1">
  <advance width="370"/>
  <outline>
    <contour>
      <point x="314" y="411" type="line"/>
      <point x="61" y="411" type="line"/>
      <point x="61" y="192" type="line"/>
      <point x="91" y="200"/>
      <point x="146" y="205"/>
      <point x="172" y="205" type="curve"/>
      <point x="231" y="205"/>
      <point x="268" y="177"/>
      <point x="268" y="131" type="curve"/>
      <point x="268" y="78"/>
      <point x="231" y="46"/>
      <point x="171" y="46" type="curve"/>
      <point x="133" y="46"/>
      <point x="89" y="63"/>
      <point x="55" y="93" type="curve"/>
      <point x="30" y="44" type="line"/>
      <point x="71" y="17"/>
      <point x="129" y="-2"/>
      <point x="177" y="-2" type="curve"/>
      <point x="271" y="-2"/>
      <point x="331" y="52"/>
      <point x="331" y="135" type="curve"/>
      <point x="331" y="206"/>
      <point x="273" y="252"/>
      <point x="182" y="252" type="curve"/>
      <point x="165" y="252"/>
      <point x="136" y="248"/>
      <point x="116" y="243" type="curve"/>
      <point x="116" y="361" type="line"/>
      <point x="314" y="361" type="line"/>
    </contour>
  </outline>
</glyph>
<glyph name="five.numr" format="1">
  <advance width="370"/>
  <outline>
    <contour>
      <point x="314" y="700" type="line"/>
      <point x="61" y="700" type="line"/>
      <point x="61" y="481" type="line"/>
      <point x="91" y="489"/>
      <point x="146" y="493"/>
      <point x="172" y="493" type="curve"/>
      <point x="231" y="493"/>
      <point x="268" y="465"/>
      <point x="268" y="420" type="curve"/>
      <point x="268" y="367"/>
      <point x="231" y="335"/>
      <point x="171" y="335" type="curve"/>
      <point x="133" y="335"/>
      <point x="89" y="352"/>
      <point x="55" y="381" type="curve"/>
      <point x="30" y="333" type="line"/>
      <point x="71" y="305"/>
      <point x="129" y="287"/>
      <point x="177" y="287" type="curve"/>
      <point x="271" y="287"/>
      <point x="331" y="341"/>
      <point x="331" y="424" type="curve"/>
      <point x="331" y="495"/>
      <point x="273" y="541"/>
      <point x="182" y="541" type="curve"/>
      <point x="165" y="541"/>
      <point x="136" y="537"/>
      <point x="116" y="531" type="curve"/>
      <point x="116" y="650" type="line"/>
      <point x="314" y="650" type="line"/>
    </contour>
  </outline>
</glyph>
<glyph name="five.ss01" format="1">
  <advance width="565"/>
  <outline>
    <contour>
      <point x="83" y="600" type="line"/>
      <point x="83" y="242" type="line"/>
      <point x="132" y="252"/>
      <point x="217" y="259"/>
      <point x="262" y="259" type="curve"/>
      <point x="365" y="259"/>
      <point x="431" y="207"/>
      <point x="431" y="124" type="curve"/>
      <point x="431" y="30"/>
      <point x="365" y="-28"/>
      <point x="261" y="-28" type="curve"/>
      <point x="197" y="-28"/>
      <point x="123" y="-2"/>
      <point x="66" y="42" type="curve"/>
      <point x="33" y="-26" type="line"/>
      <point x="99" y="-72"/>
      <point x="191" y="-102"/>
      <point x="269" y="-102" type="curve"/>
      <point x="418" y="-102"/>
      <point x="515" y="-11"/>
      <point x="515" y="129" type="curve"/>
      <point x="515" y="249"/>
      <point x="421" y="336"/>
      <point x="275" y="336" type="curve"/>
      <point x="243" y="336"/>
      <point x="193" y="332"/>
      <point x="157" y="326" type="curve"/>
      <point x="157" y="523" type="line"/>
      <point x="489" y="523" type="line"/>
      <point x="488" y="600" type="line"/>
    </contour>
  </outline>
</glyph>
<glyph name="fl.ss01" format="1">
  <advance width="625"/>
  <outline>
    <contour>
      <point x="601" y="-7" type="line"/>
      <point x="582" y="-21"/>
      <point x="563" y="-28"/>
      <point x="546" y="-28" type="curve" smooth="yes"/>
      <point x="514" y="-28"/>
      <point x="495" y="-7"/>
      <point x="495" y="37" type="curve" smooth="yes"/>
      <point x="495" y="577" type="line" smooth="yes"/>
      <point x="495" y="686"/>
      <point x="428" y="747"/>
      <point x="306" y="748" type="curve" smooth="yes"/>
      <point x="181" y="749"/>
      <point x="112" y="689"/>
      <point x="111" y="579" type="curve" smooth="yes"/>
      <point x="111" y="511" type="line"/>
      <point x="43" y="511" type="line"/>
      <point x="43" y="447" type="line"/>
      <point x="111" y="447" type="line"/>
      <point x="111" y="0" type="line"/>
      <point x="189" y="0" type="line"/>
      <point x="189" y="447" type="line"/>
      <point x="312" y="447" type="line"/>
      <point x="312" y="511" type="line"/>
      <point x="189" y="511" type="line"/>
      <point x="189" y="582" type="line" smooth="yes"/>
      <point x="189" y="643"/>
      <point x="229" y="677"/>
      <point x="302" y="676" type="curve" smooth="yes"/>
      <point x="377" y="675"/>
      <point x="418" y="637"/>
      <point x="418" y="570" type="curve" smooth="yes"/>
      <point x="418" y="28" type="line" smooth="yes"/>
      <point x="418" y="-58"/>
      <point x="464" y="-104"/>
      <point x="527" y="-104" type="curve" smooth="yes"/>
      <point x="556" y="-104"/>
      <point x="586" y="-93"/>
      <point x="616" y="-72" type="curve"/>
    </contour>
  </outline>
</glyph>
<glyph name="four.dnom" format="1">
  <advance width="381"/>
  <outline>
    <contour>
      <point x="237" y="411" type="line"/>
      <point x="179" y="411" type="line"/>
      <point x="30" y="150" type="line"/>
      <point x="30" y="104" type="line"/>
      <point x="234" y="104" type="line"/>
      <point x="234" y="0" type="line"/>
      <point x="290" y="0" type="line"/>
      <point x="290" y="104" type="line"/>
      <point x="353" y="104" type="line"/>
      <point x="353" y="151" type="line"/>
      <point x="290" y="151" type="line"/>
      <point x="290" y="261" type="line"/>
      <point x="234" y="261" type="line"/>
      <point x="234" y="151" type="line"/>
      <point x="90" y="151" type="line"/>
    </contour>
  </outline>
</glyph>
<glyph name="four.numr" format="1">
  <advance width="381"/>
  <outline>
    <contour>
      <point x="237" y="700" type="line"/>
      <point x="179" y="700" type="line"/>
      <point x="30" y="439" type="line"/>
      <point x="30" y="393" type="line"/>
      <point x="234" y="393" type="line"/>
      <point x="234" y="289" type="line"/>
      <point x="290" y="289" type="line"/>
      <point x="290" y="393" type="line"/>
      <point x="353" y="393" type="line"/>
      <point x="353" y="440" type="line"/>
      <point x="290" y="440" type="line"/>
      <point x="290" y="549" type="line"/>
      <point x="234" y="549" type="line"/>
      <point x="234" y="440" type="line"/>
      <point x="90" y="440" type="line"/>
    </contour>
  </outline>
</glyph>
